{"glyphs":{"0":{"ha":961,"x_min":0,"x_max":0,"o":"m 674 47 b 808 189 729 82 775 133 b 899 558 875 297 903 432 b 819 853 894 660 869 765 b 649 1004 782 919 719 975 b 283 968 529 1054 390 1042 b 158 833 233 933 190 886 b 58 471 92 728 60 597 b 142 171 57 367 85 257 b 674 47 257 -4 497 -64 z m 481 942 b 490 968 469 949 478 965 b 511 949 504 972 518 960 b 481 942 506 940 489 936 z m 150 615 b 171 696 151 629 165 683 b 190 740 176 711 185 725 b 221 799 193 750 215 790 b 253 846 232 814 238 833 b 326 914 264 856 314 907 b 403 953 351 926 376 942 b 413 924 426 964 439 931 b 343 886 401 921 354 892 b 303 846 336 881 308 853 b 272 813 293 835 278 826 b 251 776 269 808 253 782 b 226 719 242 758 235 739 b 211 690 225 715 214 694 b 194 621 208 681 196 631 b 150 615 190 596 147 592 z m 414 444 b 443 651 407 514 408 590 b 488 689 453 668 468 686 b 532 663 504 690 522 676 b 564 542 556 628 564 583 b 549 414 563 499 561 456 b 517 361 543 394 533 374 b 414 444 469 324 419 385 z "},"1":{"ha":656,"x_min":0,"x_max":0,"o":"m 476 7 b 524 76 497 25 513 50 b 554 203 540 117 549 160 b 579 756 581 385 582 571 b 543 979 578 831 579 913 b 503 1022 533 996 518 1011 b 372 1057 465 1049 417 1061 b 192 1006 310 1053 244 1042 b 81 903 150 978 111 943 b 35 803 58 874 38 839 b 101 674 28 749 54 700 b 225 660 138 654 185 650 b 226 639 229 653 226 646 b 226 251 219 510 218 381 b 250 103 231 201 236 151 b 311 10 261 68 281 32 b 476 7 356 -22 436 -32 z m 321 992 b 339 997 328 994 333 997 b 336 969 361 999 357 971 b 325 967 332 969 329 967 b 321 992 308 965 306 986 z m 92 815 b 107 846 89 828 94 842 b 125 871 113 847 121 867 b 164 906 131 876 160 901 b 211 946 179 919 192 938 b 242 965 222 950 231 960 b 269 964 249 968 263 968 b 251 939 282 954 268 936 b 221 918 242 931 232 924 b 190 889 214 915 194 893 b 147 846 175 875 157 864 b 124 811 144 840 128 815 b 92 815 114 801 94 801 z "},"2":{"ha":883,"x_min":0,"x_max":0,"o":"m 592 -3 b 703 11 629 -1 667 1 b 779 46 731 17 758 28 b 814 99 794 61 807 79 b 783 288 840 160 826 239 b 718 326 767 307 743 324 b 429 299 682 331 467 296 b 592 428 482 343 540 381 b 747 635 657 486 714 556 b 774 797 768 686 779 743 b 718 933 767 846 749 894 b 549 1039 676 986 614 1026 b 249 994 450 1058 338 1042 b 103 664 126 929 39 788 b 189 593 119 631 153 600 b 285 619 221 586 257 600 b 374 685 315 640 339 672 b 422 679 390 690 414 694 b 392 608 432 658 407 625 b 151 443 326 536 229 501 b 85 354 122 421 97 389 b 64 243 71 319 67 281 b 78 122 63 203 65 161 b 110 65 83 101 94 81 b 250 3 146 29 200 11 b 592 -3 363 -15 478 -6 z m 447 950 b 472 976 431 963 453 985 b 467 950 486 972 481 954 b 447 950 460 949 453 947 z m 163 796 b 172 815 165 797 171 813 b 225 875 179 828 214 867 b 265 914 231 879 260 908 b 379 965 283 931 353 964 b 378 936 401 967 401 938 b 297 894 363 935 311 901 b 260 860 283 886 272 872 b 207 797 240 840 219 822 b 196 774 203 790 201 781 b 163 796 172 750 136 776 z "},"3":{"ha":853,"x_min":0,"x_max":0,"o":"m 435 -26 b 657 35 511 -25 592 -7 b 757 139 697 60 733 96 b 788 254 776 174 786 214 b 749 421 790 311 775 369 b 636 532 725 468 681 504 b 731 614 672 553 708 579 b 708 935 786 699 775 858 b 558 1022 669 978 613 1003 b 124 940 413 1078 236 1044 b 82 821 90 910 75 864 b 242 667 96 739 158 656 b 388 746 296 674 336 724 b 481 707 426 764 474 749 b 435 632 486 672 469 636 b 303 613 390 628 342 633 b 258 460 256 586 242 511 b 304 411 265 439 283 419 b 439 410 346 394 396 424 b 428 289 510 390 501 294 b 342 310 399 288 368 296 b 251 363 310 325 283 350 b 146 367 218 375 178 381 b 90 303 119 356 104 328 b 60 164 68 261 50 210 b 92 96 64 139 76 115 b 215 13 122 57 168 31 b 435 -26 283 -15 360 -28 z m 436 986 b 469 993 444 999 460 1004 b 461 972 475 986 469 976 b 436 986 447 965 428 974 z m 147 871 b 169 896 150 875 167 893 b 342 989 215 943 276 981 b 385 990 349 990 378 993 b 385 967 394 986 394 972 b 368 963 381 963 374 963 b 178 857 296 957 225 913 b 147 871 164 840 136 853 z "},"4":{"ha":919,"x_min":0,"x_max":0,"o":"m 697 -7 b 771 101 733 18 757 61 b 839 518 815 235 829 378 b 824 900 849 644 860 778 b 626 996 799 989 701 1049 b 572 929 603 979 585 956 b 535 810 554 892 543 850 b 517 503 525 758 507 554 b 407 503 481 497 443 496 b 389 511 401 503 390 504 b 400 792 385 549 401 754 b 379 901 400 829 397 868 b 318 953 367 925 343 943 b 201 960 282 968 239 969 b 150 933 182 956 164 946 b 86 629 97 888 90 699 b 61 365 79 542 49 453 b 99 275 65 333 76 299 b 176 236 119 254 149 244 b 321 219 224 225 272 221 b 490 224 376 218 435 219 b 506 107 493 185 499 146 b 532 19 511 78 517 46 b 592 -21 543 -1 568 -15 b 697 -7 626 -31 668 -26 z m 261 900 b 281 878 281 921 297 894 b 261 900 263 858 246 883 z m 124 597 b 129 671 125 622 126 647 b 150 781 132 686 146 765 b 175 849 153 792 169 839 b 208 878 183 861 194 872 b 215 853 231 889 240 858 b 193 811 204 849 197 824 b 161 617 174 749 163 682 b 158 588 161 613 160 592 b 124 597 150 561 108 575 z "},"5":{"ha":861,"x_min":0,"x_max":0,"o":"m 465 -3 b 619 47 519 1 574 18 b 747 188 674 81 718 131 b 788 389 778 249 792 321 b 740 556 783 447 772 508 b 611 643 711 599 661 629 b 392 638 540 661 463 654 b 392 736 392 671 393 704 b 554 743 446 744 500 738 b 721 776 610 749 667 758 b 792 904 774 794 808 851 b 735 972 782 933 758 956 b 608 1028 697 999 653 1015 b 371 1058 532 1049 451 1056 b 213 1050 318 1060 265 1060 b 139 1010 186 1044 157 1031 b 110 947 124 993 114 969 b 89 642 99 903 89 686 b 108 538 89 606 96 569 b 151 481 117 515 132 493 b 228 464 174 467 201 464 b 390 464 282 464 338 475 b 435 439 407 461 424 453 b 392 299 471 393 449 317 b 325 303 371 292 346 294 b 167 347 274 321 222 344 b 74 176 82 351 44 254 b 133 89 86 143 107 113 b 251 21 165 57 208 35 b 465 -3 319 -3 393 -7 z m 335 997 b 368 989 344 1017 375 1010 b 335 997 361 968 325 976 z m 156 703 b 157 818 153 721 154 800 b 178 931 163 856 163 896 b 244 999 188 950 222 992 b 292 999 256 1001 282 1006 b 281 971 304 990 296 972 b 250 964 274 971 254 968 b 221 932 239 954 228 944 b 201 861 207 911 203 886 b 194 808 200 854 196 815 b 189 706 193 793 194 719 b 156 703 183 690 158 686 z "},"6":{"ha":899,"x_min":0,"x_max":0,"o":"m 486 -14 b 735 76 575 -12 669 18 b 768 554 875 199 892 414 b 669 624 742 585 707 610 b 522 636 624 642 571 644 b 357 571 464 626 408 601 b 490 753 379 643 429 710 b 621 846 533 785 586 806 b 594 1032 671 906 665 999 b 513 1047 569 1043 540 1046 b 483 1043 508 1047 488 1043 b 331 992 431 1039 378 1019 b 124 754 240 938 168 849 b 69 335 64 626 43 474 b 217 75 88 238 140 139 b 486 -14 290 15 392 -15 z m 458 985 b 488 972 472 999 497 989 b 471 961 483 967 476 961 b 458 985 457 960 450 975 z m 174 678 b 190 729 174 686 188 721 b 275 881 207 785 236 838 b 294 897 281 886 289 892 b 319 922 304 904 311 914 b 390 958 335 933 372 960 b 382 931 408 956 401 932 b 340 900 376 926 346 906 b 319 879 338 899 322 881 b 299 861 313 872 304 868 b 249 786 281 838 261 813 b 208 688 242 772 213 701 b 207 678 207 685 208 681 b 174 678 200 660 172 660 z m 454 257 b 463 378 399 282 404 360 b 550 351 494 388 538 381 b 510 250 564 318 543 265 b 454 257 493 242 472 250 z "},"7":{"ha":790,"x_min":0,"x_max":0,"o":"m 360 -18 b 446 50 393 -4 424 21 b 539 213 485 99 514 156 b 683 597 596 338 643 467 b 740 865 710 685 733 774 b 740 936 743 889 743 913 b 726 983 739 953 736 969 b 299 1092 663 1085 417 1097 b 125 1064 240 1088 182 1079 b 40 986 83 1053 56 1026 b 46 844 24 942 22 885 b 111 794 60 821 85 804 b 288 775 167 776 228 775 b 317 714 314 775 318 740 b 292 579 314 668 303 624 b 196 136 254 433 203 288 b 211 25 194 99 196 58 b 360 -18 236 -31 304 -42 z m 290 1038 b 322 1028 301 1051 328 1044 b 308 1017 319 1022 314 1018 b 290 1038 292 1008 278 1025 z m 94 860 b 92 869 92 863 92 867 b 93 915 93 885 90 900 b 118 983 97 939 103 965 b 213 1031 142 1010 178 1028 b 246 1029 224 1031 236 1035 b 229 1004 258 1019 244 1001 b 179 992 219 1006 189 996 b 144 963 171 988 150 969 b 133 876 135 946 129 896 b 94 860 138 854 110 843 z "},"8":{"ha":928,"x_min":0,"x_max":0,"o":"m 579 -19 b 757 53 642 -8 706 15 b 832 400 861 131 896 289 b 704 533 801 453 757 500 b 818 694 757 572 800 631 b 821 842 832 740 833 793 b 757 954 810 883 786 922 b 617 1036 719 993 668 1019 b 335 1042 528 1065 425 1068 b 143 893 257 1019 183 963 b 114 761 121 854 111 806 b 213 549 119 683 157 604 b 58 297 129 494 69 394 b 86 156 53 249 63 197 b 226 31 118 101 171 58 b 579 -19 332 -24 463 -40 z m 375 996 b 371 967 397 997 393 968 b 375 996 350 965 354 994 z m 185 690 b 168 718 179 694 171 711 b 176 821 158 751 165 789 b 297 958 196 878 240 936 b 325 960 304 961 319 964 b 319 936 335 953 329 940 b 215 731 249 903 196 807 b 222 707 217 728 224 711 b 185 690 221 692 199 681 z m 407 674 b 374 711 392 681 375 694 b 450 761 369 747 413 765 b 522 728 476 760 506 749 b 503 671 536 708 525 683 b 407 674 475 657 436 660 z m 393 333 b 411 397 372 354 386 383 b 472 407 429 408 453 411 b 553 367 494 403 543 386 b 507 310 567 339 538 315 b 393 333 479 306 413 314 z "},"9":{"ha":900,"x_min":0,"x_max":0,"o":"m 390 -14 b 521 18 435 -7 479 0 b 775 279 632 65 724 169 b 829 699 835 407 856 560 b 682 957 811 796 758 894 b 413 1047 608 1017 507 1049 b 164 957 324 1046 229 1015 b 131 479 24 835 7 619 b 229 410 157 449 192 424 b 376 397 275 392 328 389 b 542 463 435 407 490 432 b 408 279 519 390 469 324 b 278 186 365 249 313 228 b 304 1 228 126 233 33 b 390 -14 319 -6 374 -17 z m 324 944 b 321 969 313 949 311 963 b 349 957 333 978 354 971 b 324 944 346 947 332 940 z m 107 663 b 203 904 83 750 125 856 b 251 926 218 914 233 922 b 269 926 257 928 264 929 b 260 901 279 919 272 904 b 231 886 256 900 235 889 b 143 746 183 857 150 800 b 149 676 139 722 142 699 b 150 661 150 672 151 667 b 107 663 142 640 114 640 z m 361 665 b 361 757 336 686 343 731 b 389 783 368 768 378 778 b 414 785 396 788 406 786 b 474 751 436 781 461 771 b 453 663 493 721 483 681 b 361 665 426 647 385 646 z "},"\u0000":{"ha":0,"x_min":0,"x_max":0,"o":""}," ":{"ha":347,"x_min":0,"x_max":0,"o":""},"\r":{"ha":0,"x_min":0,"x_max":0,"o":""},"!":{"ha":521,"x_min":0,"x_max":0,"o":"m 300 351 b 351 375 318 356 338 363 b 401 461 375 397 390 431 b 429 576 414 499 424 538 b 454 810 442 654 456 732 b 424 947 453 857 442 904 b 365 1008 417 964 381 1000 b 214 1022 335 1025 247 1033 b 140 965 185 1013 158 992 b 139 964 139 964 140 965 b 88 863 111 938 97 899 b 101 493 56 743 65 611 b 186 367 115 444 144 396 b 215 354 194 361 206 357 b 300 351 243 347 272 346 z m 226 967 b 219 938 246 965 239 939 b 226 967 196 936 203 971 z m 133 693 b 126 786 121 708 126 767 b 175 919 126 818 153 897 b 199 900 193 939 219 915 b 168 840 188 893 172 853 b 161 744 158 810 160 776 b 163 704 163 738 164 710 b 133 693 161 692 142 683 z m 339 -33 b 435 93 388 -12 425 40 b 428 161 439 115 438 140 b 365 229 417 190 392 213 b 304 257 346 242 325 251 b 192 250 267 265 226 264 b 100 172 154 235 122 206 b 121 -1 64 118 74 40 b 339 -33 167 -43 282 -57 z m 221 199 b 253 211 224 214 240 226 b 221 199 264 197 218 172 z m 125 69 b 136 133 118 83 131 119 b 158 169 139 140 153 164 b 193 183 167 179 182 192 b 188 160 203 178 199 164 b 171 136 179 156 176 144 b 158 79 161 119 160 99 b 125 69 158 63 132 53 z "},"\"":{"ha":517,"x_min":0,"x_max":0,"o":"m 158 685 b 214 754 185 699 204 726 b 240 906 231 803 239 854 b 224 996 242 936 236 968 b 190 1024 217 1008 204 1018 b 54 988 144 1038 76 1031 b 51 869 36 953 47 910 b 61 713 54 818 46 763 b 81 688 64 703 72 693 b 158 685 104 676 135 674 z m 390 681 b 444 750 417 693 436 722 b 472 901 461 799 471 850 b 454 992 474 932 468 964 b 422 1018 449 1004 436 1014 b 286 983 376 1033 308 1026 b 282 865 268 949 279 904 b 293 708 286 813 278 758 b 313 683 296 697 303 688 b 390 681 336 672 367 669 z m 124 993 b 114 967 144 985 131 967 b 124 993 89 964 107 999 z m 356 989 b 346 961 376 981 361 963 b 356 989 319 960 339 994 z m 76 811 b 72 826 72 815 74 821 b 76 910 71 839 74 897 b 83 942 78 915 81 938 b 111 932 94 958 122 949 b 104 890 107 925 106 899 b 106 825 104 868 103 846 b 76 811 108 810 86 800 z m 308 807 b 304 822 304 810 304 817 b 308 906 303 835 306 892 b 315 938 310 910 313 932 b 343 928 326 954 354 944 b 336 886 339 921 338 893 b 338 819 335 864 333 842 b 308 807 340 806 318 796 z "},"«":{"ha":517,"x_min":0,"x_max":0,"o":"m 158 685 b 214 754 185 699 204 726 b 240 906 231 803 239 854 b 224 996 242 936 236 968 b 190 1024 217 1008 204 1018 b 54 988 144 1038 76 1031 b 51 869 36 953 47 910 b 61 713 54 818 46 763 b 81 688 64 703 72 693 b 158 685 104 676 135 674 z m 390 681 b 444 750 417 693 436 722 b 472 901 461 799 471 850 b 454 992 474 932 468 964 b 422 1018 449 1004 436 1014 b 286 983 376 1033 308 1026 b 282 865 268 949 279 904 b 293 708 286 813 278 758 b 313 683 296 697 303 688 b 390 681 336 672 367 669 z m 124 993 b 114 967 144 985 131 967 b 124 993 89 964 107 999 z m 356 989 b 346 961 376 981 361 963 b 356 989 319 960 339 994 z m 76 811 b 72 826 72 815 74 821 b 76 910 71 839 74 897 b 83 942 78 915 81 938 b 111 932 94 958 122 949 b 104 890 107 925 106 899 b 106 825 104 868 103 846 b 76 811 108 810 86 800 z m 308 807 b 304 822 304 810 304 817 b 308 906 303 835 306 892 b 315 938 310 910 313 932 b 343 928 326 954 354 944 b 336 886 339 921 338 893 b 338 819 335 864 333 842 b 308 807 340 806 318 796 z "},"»":{"ha":517,"x_min":0,"x_max":0,"o":"m 158 685 b 214 754 185 699 204 726 b 240 906 231 803 239 854 b 224 996 242 936 236 968 b 190 1024 217 1008 204 1018 b 54 988 144 1038 76 1031 b 51 869 36 953 47 910 b 61 713 54 818 46 763 b 81 688 64 703 72 693 b 158 685 104 676 135 674 z m 390 681 b 444 750 417 693 436 722 b 472 901 461 799 471 850 b 454 992 474 932 468 964 b 422 1018 449 1004 436 1014 b 286 983 376 1033 308 1026 b 282 865 268 949 279 904 b 293 708 286 813 278 758 b 313 683 296 697 303 688 b 390 681 336 672 367 669 z m 124 993 b 114 967 144 985 131 967 b 124 993 89 964 107 999 z m 356 989 b 346 961 376 981 361 963 b 356 989 319 960 339 994 z m 76 811 b 72 826 72 815 74 821 b 76 910 71 839 74 897 b 83 942 78 915 81 938 b 111 932 94 958 122 949 b 104 890 107 925 106 899 b 106 825 104 868 103 846 b 76 811 108 810 86 800 z m 308 807 b 304 822 304 810 304 817 b 308 906 303 835 306 892 b 315 938 310 910 313 932 b 343 928 326 954 354 944 b 336 886 339 921 338 893 b 338 819 335 864 333 842 b 308 807 340 806 318 796 z "},"„":{"ha":517,"x_min":0,"x_max":0,"o":"m 158 685 b 214 754 185 699 204 726 b 240 906 231 803 239 854 b 224 996 242 936 236 968 b 190 1024 217 1008 204 1018 b 54 988 144 1038 76 1031 b 51 869 36 953 47 910 b 61 713 54 818 46 763 b 81 688 64 703 72 693 b 158 685 104 676 135 674 z m 390 681 b 444 750 417 693 436 722 b 472 901 461 799 471 850 b 454 992 474 932 468 964 b 422 1018 449 1004 436 1014 b 286 983 376 1033 308 1026 b 282 865 268 949 279 904 b 293 708 286 813 278 758 b 313 683 296 697 303 688 b 390 681 336 672 367 669 z m 124 993 b 114 967 144 985 131 967 b 124 993 89 964 107 999 z m 356 989 b 346 961 376 981 361 963 b 356 989 319 960 339 994 z m 76 811 b 72 826 72 815 74 821 b 76 910 71 839 74 897 b 83 942 78 915 81 938 b 111 932 94 958 122 949 b 104 890 107 925 106 899 b 106 825 104 868 103 846 b 76 811 108 810 86 800 z m 308 807 b 304 822 304 810 304 817 b 308 906 303 835 306 892 b 315 938 310 910 313 932 b 343 928 326 954 354 944 b 336 886 339 921 338 893 b 338 819 335 864 333 842 b 308 807 340 806 318 796 z "},"‟":{"ha":517,"x_min":0,"x_max":0,"o":"m 158 685 b 214 754 185 699 204 726 b 240 906 231 803 239 854 b 224 996 242 936 236 968 b 190 1024 217 1008 204 1018 b 54 988 144 1038 76 1031 b 51 869 36 953 47 910 b 61 713 54 818 46 763 b 81 688 64 703 72 693 b 158 685 104 676 135 674 z m 390 681 b 444 750 417 693 436 722 b 472 901 461 799 471 850 b 454 992 474 932 468 964 b 422 1018 449 1004 436 1014 b 286 983 376 1033 308 1026 b 282 865 268 949 279 904 b 293 708 286 813 278 758 b 313 683 296 697 303 688 b 390 681 336 672 367 669 z m 124 993 b 114 967 144 985 131 967 b 124 993 89 964 107 999 z m 356 989 b 346 961 376 981 361 963 b 356 989 319 960 339 994 z m 76 811 b 72 826 72 815 74 821 b 76 910 71 839 74 897 b 83 942 78 915 81 938 b 111 932 94 958 122 949 b 104 890 107 925 106 899 b 106 825 104 868 103 846 b 76 811 108 810 86 800 z m 308 807 b 304 822 304 810 304 817 b 308 906 303 835 306 892 b 315 938 310 910 313 932 b 343 928 326 954 354 944 b 336 886 339 921 338 893 b 338 819 335 864 333 842 b 308 807 340 806 318 796 z "},"#":{"ha":1053,"x_min":0,"x_max":0,"o":"m 719 -11 b 801 85 758 6 785 46 b 839 200 818 122 828 161 b 901 219 861 200 882 210 b 946 244 917 226 935 232 b 954 308 960 261 963 289 b 888 389 940 340 913 364 b 910 478 894 418 903 449 b 986 606 964 500 1010 551 b 953 657 979 625 965 640 b 978 767 956 671 975 753 b 981 876 985 801 989 840 b 686 872 947 1022 749 1010 b 625 683 660 813 640 749 b 532 690 611 685 544 690 b 556 871 546 750 565 811 b 522 943 551 897 539 924 b 456 982 504 961 481 976 b 378 981 431 988 403 988 b 260 876 326 965 282 928 b 201 708 235 822 217 765 b 157 701 188 708 172 706 b 92 665 133 697 107 685 b 76 624 83 653 78 639 b 93 579 76 608 83 592 b 163 522 110 554 138 538 b 150 446 158 496 154 471 b 75 404 124 433 96 424 b 56 326 50 382 44 356 b 128 257 68 296 99 275 b 135 76 124 197 122 136 b 260 -14 144 25 207 -15 b 324 14 282 -14 306 -3 b 376 94 347 35 364 64 b 418 226 394 136 406 182 b 553 218 463 224 507 219 b 561 75 551 169 553 122 b 576 39 564 63 568 50 b 719 -11 606 -3 672 -32 z m 400 918 b 432 925 400 932 424 938 b 422 910 438 919 431 913 b 400 918 413 907 400 908 z m 243 701 b 247 735 240 707 246 728 b 263 786 251 751 254 769 b 346 901 281 829 306 875 b 363 911 350 906 357 908 b 369 889 382 915 388 893 b 322 840 356 885 329 853 b 278 706 308 819 281 731 b 243 701 276 686 249 682 z m 468 426 b 486 497 474 450 479 474 b 586 489 518 493 553 490 b 574 418 582 465 578 442 b 468 426 539 424 503 422 z "},"$":{"ha":860,"x_min":0,"x_max":0,"o":"m 494 -106 b 532 -12 514 -79 524 -44 b 689 63 589 0 646 24 b 765 443 793 153 825 317 b 686 538 747 479 721 515 b 469 624 621 581 539 588 b 432 660 457 629 432 644 b 463 679 432 672 450 678 b 540 665 489 682 515 674 b 622 649 567 656 594 650 b 699 668 649 649 676 654 b 757 733 724 685 742 708 b 646 1021 819 843 765 981 b 542 1046 611 1033 576 1040 b 488 1136 531 1079 518 1118 b 410 1107 461 1154 426 1136 b 388 1058 400 1092 393 1075 b 383 1047 386 1054 386 1049 b 199 985 318 1040 251 1022 b 113 875 161 957 132 917 b 88 604 74 793 64 692 b 157 481 100 558 124 514 b 265 417 188 450 225 428 b 375 383 303 406 339 397 b 426 354 393 376 413 368 b 433 307 438 343 442 319 b 344 306 417 282 371 294 b 213 350 325 313 233 347 b 118 335 181 354 144 353 b 69 147 75 304 64 199 b 99 67 72 118 81 89 b 204 1 125 35 165 14 b 361 -25 254 -15 308 -22 b 383 -99 367 -50 369 -76 b 494 -106 408 -140 467 -146 z m 285 979 b 321 983 286 1000 322 1004 b 285 979 318 964 282 958 z m 160 682 b 149 722 151 688 149 713 b 163 851 144 765 149 810 b 185 894 165 858 179 888 b 217 931 193 907 206 918 b 250 953 225 940 238 950 b 268 938 261 956 272 949 b 244 917 267 933 249 921 b 210 875 239 910 214 882 b 186 707 183 825 175 764 b 160 682 199 692 175 671 z "},"%":{"ha":1481,"x_min":0,"x_max":0,"o":"m 568 13 b 692 147 618 49 656 99 b 1076 703 825 329 949 517 b 1143 826 1103 742 1129 782 b 1146 935 1154 861 1157 900 b 1071 1022 1135 974 1107 1006 b 949 1032 1035 1040 989 1042 b 849 972 911 1022 876 1000 b 649 711 772 894 708 804 b 485 432 592 619 536 526 b 365 138 433 339 386 242 b 417 7 356 92 382 38 b 485 -19 435 -8 461 -21 b 568 13 515 -19 544 -4 z m 474 532 b 558 632 508 557 539 593 b 572 868 593 704 599 792 b 525 953 563 899 546 929 b 426 1017 499 983 463 1004 b 256 1024 372 1035 311 1038 b 121 944 204 1011 156 983 b 104 567 28 842 10 668 b 474 532 193 471 368 456 z m 313 989 b 333 996 314 999 326 1000 b 313 989 351 986 311 978 z m 101 814 b 149 911 103 836 136 894 b 164 931 154 918 158 925 b 254 985 190 954 221 974 b 278 989 261 988 271 993 b 278 978 282 986 282 981 b 267 972 275 975 271 974 b 211 943 247 963 226 956 b 182 919 207 939 186 924 b 140 851 174 910 146 863 b 129 814 139 846 131 821 b 101 814 126 799 94 800 z m 1017 946 b 1046 957 990 960 1035 985 b 1017 946 1051 943 1031 938 z m 753 783 b 779 831 754 794 774 822 b 907 947 813 878 856 921 b 976 964 924 957 960 975 b 967 939 989 956 982 939 b 889 900 947 942 903 913 b 790 774 868 882 801 799 b 753 783 781 754 753 761 z m 274 719 b 286 822 268 754 269 792 b 315 850 293 833 303 846 b 365 810 339 857 357 833 b 367 729 374 785 371 756 b 338 676 364 710 356 685 b 274 719 307 663 278 688 z m 1292 25 b 1410 403 1422 93 1469 268 b 1363 474 1399 429 1383 453 b 1275 526 1339 497 1307 515 b 1028 504 1197 554 1099 547 b 925 394 985 479 947 439 b 889 217 896 340 882 276 b 968 61 894 158 924 99 b 1093 1 1003 31 1047 11 b 1292 25 1158 -12 1233 -6 z m 1160 500 b 1179 507 1161 510 1172 511 b 1160 500 1197 497 1158 489 z m 947 325 b 996 422 949 347 982 406 b 1010 442 1000 428 1004 436 b 1100 496 1036 465 1067 485 b 1124 500 1108 499 1117 504 b 1125 488 1128 497 1129 492 b 1113 483 1121 485 1117 485 b 1057 454 1094 474 1074 467 b 1029 431 1053 450 1032 433 b 988 363 1021 421 993 374 b 975 325 985 357 976 331 b 947 325 972 310 940 310 z m 1119 231 b 1117 268 1118 243 1117 256 b 1161 360 1117 300 1132 351 b 1176 360 1167 361 1172 361 b 1217 281 1204 353 1217 310 b 1183 188 1217 253 1208 199 b 1119 231 1154 174 1124 199 z "},"&":{"ha":1046,"x_min":0,"x_max":0,"o":"m 890 -25 b 1000 60 936 -15 982 18 b 985 143 1013 89 1006 122 b 938 164 978 149 946 161 b 846 225 921 169 860 214 b 940 475 922 279 985 392 b 814 540 918 517 863 546 b 771 514 797 539 778 529 b 686 381 747 467 722 418 b 596 507 653 421 622 463 b 763 713 668 556 731 629 b 779 842 778 753 785 799 b 696 982 771 896 739 949 b 546 1050 654 1018 600 1039 b 233 993 442 1069 322 1051 b 139 885 193 967 157 929 b 124 753 121 844 117 797 b 231 547 136 676 174 599 b 82 394 171 508 113 458 b 61 214 56 340 49 274 b 96 126 67 183 79 153 b 193 39 119 90 156 60 b 447 -21 268 -6 360 -26 b 667 57 525 -15 601 15 b 808 -21 710 25 757 -6 b 890 -25 835 -28 864 -31 z m 322 978 b 358 989 324 999 356 1010 b 351 969 360 983 356 974 b 322 978 342 960 321 963 z m 199 710 b 176 753 188 714 179 742 b 257 950 154 825 186 919 b 292 956 265 954 285 961 b 281 929 303 949 293 933 b 211 856 249 918 222 888 b 222 731 196 814 200 768 b 199 710 229 718 213 706 z m 419 803 b 464 818 428 817 449 821 b 511 744 497 810 519 778 b 454 665 504 713 479 686 b 419 803 426 700 393 767 z m 339 289 b 354 365 331 308 340 349 b 453 261 385 329 418 293 b 339 289 411 244 356 247 z "},"'":{"ha":283,"x_min":0,"x_max":0,"o":"m 157 685 b 213 754 183 699 203 726 b 239 906 229 803 238 854 b 222 996 240 936 235 968 b 189 1024 215 1008 203 1018 b 53 988 143 1038 75 1031 b 50 869 35 953 46 910 b 60 713 53 818 44 763 b 79 688 63 703 71 693 b 157 685 103 676 133 674 z m 122 993 b 113 967 143 985 129 967 b 122 993 88 964 106 999 z m 75 811 b 71 826 71 815 72 821 b 75 910 69 839 72 897 b 82 942 76 915 79 938 b 110 932 93 958 121 949 b 103 890 106 925 104 899 b 104 825 103 868 101 846 b 75 811 107 810 85 800 z "},"‚":{"ha":283,"x_min":0,"x_max":0,"o":"m 157 685 b 213 754 183 699 203 726 b 239 906 229 803 238 854 b 222 996 240 936 235 968 b 189 1024 215 1008 203 1018 b 53 988 143 1038 75 1031 b 50 869 35 953 46 910 b 60 713 53 818 44 763 b 79 688 63 703 71 693 b 157 685 103 676 133 674 z m 122 993 b 113 967 143 985 129 967 b 122 993 88 964 106 999 z m 75 811 b 71 826 71 815 72 821 b 75 910 69 839 72 897 b 82 942 76 915 79 938 b 110 932 93 958 121 949 b 103 890 106 925 104 899 b 104 825 103 868 101 846 b 75 811 107 810 85 800 z "},"‛":{"ha":283,"x_min":0,"x_max":0,"o":"m 157 685 b 213 754 183 699 203 726 b 239 906 229 803 238 854 b 222 996 240 936 235 968 b 189 1024 215 1008 203 1018 b 53 988 143 1038 75 1031 b 50 869 35 953 46 910 b 60 713 53 818 44 763 b 79 688 63 703 71 693 b 157 685 103 676 133 674 z m 122 993 b 113 967 143 985 129 967 b 122 993 88 964 106 999 z m 75 811 b 71 826 71 815 72 821 b 75 910 69 839 72 897 b 82 942 76 915 79 938 b 110 932 93 958 121 949 b 103 890 106 925 104 899 b 104 825 103 868 101 846 b 75 811 107 810 85 800 z "},"‹":{"ha":283,"x_min":0,"x_max":0,"o":"m 157 685 b 213 754 183 699 203 726 b 239 906 229 803 238 854 b 222 996 240 936 235 968 b 189 1024 215 1008 203 1018 b 53 988 143 1038 75 1031 b 50 869 35 953 46 910 b 60 713 53 818 44 763 b 79 688 63 703 71 693 b 157 685 103 676 133 674 z m 122 993 b 113 967 143 985 129 967 b 122 993 88 964 106 999 z m 75 811 b 71 826 71 815 72 821 b 75 910 69 839 72 897 b 82 942 76 915 79 938 b 110 932 93 958 121 949 b 103 890 106 925 104 899 b 104 825 103 868 101 846 b 75 811 107 810 85 800 z "},"›":{"ha":283,"x_min":0,"x_max":0,"o":"m 157 685 b 213 754 183 699 203 726 b 239 906 229 803 238 854 b 222 996 240 936 235 968 b 189 1024 215 1008 203 1018 b 53 988 143 1038 75 1031 b 50 869 35 953 46 910 b 60 713 53 818 44 763 b 79 688 63 703 71 693 b 157 685 103 676 133 674 z m 122 993 b 113 967 143 985 129 967 b 122 993 88 964 106 999 z m 75 811 b 71 826 71 815 72 821 b 75 910 69 839 72 897 b 82 942 76 915 79 938 b 110 932 93 958 121 949 b 103 890 106 925 104 899 b 104 825 103 868 101 846 b 75 811 107 810 85 800 z "},"(":{"ha":636,"x_min":0,"x_max":0,"o":"m 475 -82 b 549 -50 501 -79 528 -68 b 579 124 600 -6 624 72 b 461 215 546 160 500 185 b 403 282 438 233 417 256 b 356 493 371 347 358 421 b 385 707 351 565 356 642 b 519 885 415 775 472 828 b 554 943 535 901 547 922 b 425 1121 583 1032 519 1125 b 361 1104 403 1119 382 1114 b 161 906 276 1064 206 988 b 69 400 78 756 56 571 b 176 74 79 286 108 167 b 369 -68 222 8 293 -44 b 475 -82 404 -79 440 -85 z m 358 1035 b 388 1031 363 1071 407 1061 b 358 1035 379 1018 357 1019 z m 144 685 b 164 794 146 703 160 779 b 249 954 181 853 207 913 b 310 1001 267 972 288 990 b 332 988 322 1006 336 999 b 315 974 329 981 321 976 b 238 889 283 953 258 922 b 179 694 203 831 186 763 b 175 682 178 690 178 685 b 144 685 167 668 144 669 z "},")":{"ha":636,"x_min":0,"x_max":0,"o":"m 239 -75 b 407 15 301 -61 361 -29 b 510 164 451 56 486 108 b 569 481 553 263 568 374 b 461 926 571 633 540 796 b 274 1104 417 1000 351 1067 b 189 1121 247 1117 217 1124 b 76 956 110 1111 58 1033 b 115 883 83 929 97 904 b 225 751 153 839 194 799 b 268 651 246 721 260 686 b 275 444 283 583 283 513 b 229 278 269 388 257 329 b 176 218 218 254 197 235 b 81 146 146 193 111 172 b 35 81 60 129 40 106 b 133 -76 24 15 71 -57 b 239 -75 167 -87 206 -83 z m 178 1054 b 167 1068 172 1056 167 1063 b 200 1075 168 1083 194 1089 b 178 1054 206 1063 190 1049 z m 278 729 b 272 743 275 733 274 739 b 251 793 271 751 256 786 b 194 863 235 818 217 842 b 171 889 192 865 174 886 b 147 907 167 892 150 904 b 122 958 139 917 122 947 b 132 1014 121 974 121 1006 b 154 997 150 1026 169 1013 b 153 961 153 990 151 968 b 175 925 156 954 169 931 b 211 894 188 915 200 906 b 261 838 228 875 246 858 b 306 746 282 811 296 779 b 278 729 310 731 288 718 z "},"*":{"ha":461,"x_min":0,"x_max":0,"o":"m 226 694 b 242 703 231 697 238 706 b 279 676 247 700 274 681 b 369 644 297 663 347 638 b 396 711 397 651 406 685 b 353 786 386 739 365 760 b 408 843 358 794 401 836 b 411 896 422 860 428 882 b 318 911 396 910 339 913 b 261 1021 314 942 289 1007 b 207 996 240 1032 218 1017 b 171 910 193 968 182 939 b 53 907 143 918 76 926 b 54 840 33 890 39 861 b 115 781 71 818 96 803 b 113 768 118 778 114 772 b 85 700 101 746 90 724 b 88 663 82 688 81 674 b 126 643 94 650 111 642 b 226 694 164 643 197 671 z "},"+":{"ha":746,"x_min":0,"x_max":0,"o":"m 446 168 b 501 269 469 197 486 233 b 597 282 533 272 565 274 b 703 433 660 299 707 365 b 667 514 703 463 689 494 b 614 538 651 526 633 533 b 492 549 599 540 508 549 b 460 618 482 572 471 596 b 340 674 436 665 386 701 b 299 632 322 664 310 647 b 254 551 281 607 265 579 b 153 540 221 549 186 546 b 60 482 117 535 81 513 b 86 315 26 429 36 353 b 160 283 108 299 133 290 b 261 268 193 275 228 271 b 325 161 275 229 294 189 b 388 135 342 146 365 135 b 446 168 410 135 432 150 z m 211 496 b 246 513 214 511 233 521 b 238 488 256 506 247 494 b 211 496 228 481 210 483 z m 100 371 b 90 419 89 378 90 407 b 101 460 90 428 97 453 b 151 494 113 476 132 486 b 182 490 161 499 176 500 b 168 469 186 481 178 472 b 135 446 158 467 139 454 b 125 399 126 432 125 414 b 126 381 125 392 129 386 b 100 371 124 371 108 365 z "},",":{"ha":354,"x_min":0,"x_max":0,"o":"m 261 -83 b 288 183 315 -14 343 115 b 229 222 272 201 251 215 b 44 138 158 243 71 206 b 163 -42 10 50 69 -49 b 211 -29 179 -40 196 -35 b 188 -104 214 -53 207 -93 b 197 -136 168 -114 176 -139 b 261 -83 217 -135 249 -99 z m 161 188 b 158 158 185 189 182 160 b 161 188 138 157 140 186 z m 81 47 b 74 108 67 57 69 90 b 103 157 78 126 89 143 b 122 139 119 175 142 153 b 103 75 107 128 97 94 b 107 60 103 69 108 65 b 81 47 106 49 90 42 z "},"-":{"ha":699,"x_min":0,"x_max":0,"o":"m 494 272 b 558 282 515 274 538 276 b 618 319 581 289 603 303 b 658 443 649 353 664 400 b 628 510 656 468 644 493 b 567 538 611 525 589 535 b 147 540 429 556 286 563 b 75 504 121 535 93 524 b 49 357 38 467 26 406 b 89 308 57 338 72 321 b 147 283 107 297 128 289 b 313 265 201 269 257 267 b 494 272 374 265 433 265 z m 199 496 b 231 511 200 510 218 519 b 219 485 240 504 232 490 b 199 496 210 479 197 485 z m 93 371 b 85 406 86 375 85 397 b 101 465 85 426 86 451 b 164 494 115 479 146 501 b 157 468 176 489 171 472 b 126 446 149 465 131 453 b 118 396 118 431 118 413 b 119 382 118 392 121 388 b 93 371 119 371 103 364 z "},".":{"ha":358,"x_min":0,"x_max":0,"o":"m 308 64 b 304 206 322 108 328 164 b 207 265 286 239 244 260 b 44 167 138 272 57 235 b 43 79 39 138 36 107 b 90 3 50 50 67 21 b 308 64 167 -54 278 -28 z m 158 229 b 188 219 169 247 201 240 b 158 229 178 203 144 208 z m 83 82 b 75 132 75 90 74 121 b 107 201 79 157 86 186 b 128 182 126 215 147 194 b 108 135 114 172 111 151 b 114 100 107 124 110 111 b 83 82 119 85 94 68 z "},"/":{"ha":626,"x_min":0,"x_max":0,"o":"m 224 -79 b 288 -29 249 -69 271 -50 b 361 129 322 17 343 74 b 558 794 433 349 494 572 b 582 931 571 839 583 885 b 563 1017 582 960 576 990 b 257 978 497 1143 321 1106 b 132 594 199 857 163 725 b 69 281 108 490 83 386 b 60 32 58 199 50 114 b 161 -79 67 -18 114 -64 b 224 -79 181 -85 204 -86 z m 419 1026 b 444 1007 438 1043 469 1021 b 419 1026 429 1000 404 1011 z m 226 768 b 244 846 221 783 239 831 b 286 928 254 875 269 903 b 357 1001 304 957 328 983 b 371 1008 361 1004 367 1007 b 379 983 392 1015 400 988 b 301 886 350 975 313 915 b 264 769 294 869 267 789 b 226 768 261 749 232 747 z "},":":{"ha":399,"x_min":0,"x_max":0,"o":"m 333 565 b 329 704 347 608 353 664 b 232 763 310 736 269 758 b 68 664 163 771 82 733 b 67 578 63 636 61 606 b 111 504 74 550 89 522 b 333 565 189 442 303 471 z m 182 728 b 213 717 193 746 226 739 b 182 728 201 701 169 707 z m 107 581 b 100 631 100 589 99 618 b 132 700 103 656 111 685 b 153 681 150 714 171 693 b 133 632 139 669 136 650 b 138 599 132 621 133 610 b 107 581 144 582 118 567 z m 324 64 b 319 206 338 108 343 164 b 222 265 301 239 260 260 b 60 167 153 272 72 235 b 58 79 54 138 51 107 b 106 3 65 50 82 21 b 324 64 182 -54 293 -28 z m 174 229 b 203 219 185 247 217 240 b 174 229 193 203 160 208 z m 99 82 b 90 132 90 90 89 121 b 122 201 94 157 101 186 b 143 182 142 215 163 194 b 124 135 129 172 126 151 b 129 100 122 124 125 111 b 99 82 135 85 110 68 z "},";":{"ha":418,"x_min":0,"x_max":0,"o":"m 356 565 b 351 704 369 608 374 664 b 254 763 332 736 292 758 b 90 664 183 771 104 733 b 89 578 85 636 83 606 b 133 504 96 550 111 522 b 356 565 211 442 325 471 z m 204 728 b 235 717 215 746 247 739 b 204 728 224 701 192 707 z m 129 581 b 122 631 122 589 121 618 b 154 700 125 656 133 685 b 175 681 172 714 193 693 b 171 678 174 679 171 678 b 157 604 157 663 151 622 b 161 592 158 600 161 596 b 129 581 160 578 138 569 z m 272 -83 b 299 183 326 -14 354 115 b 240 222 283 201 263 215 b 56 138 169 243 82 206 b 174 -42 21 50 81 -49 b 222 -29 190 -40 207 -35 b 199 -104 225 -53 218 -93 b 208 -136 179 -114 188 -139 b 272 -83 228 -135 260 -99 z m 172 188 b 169 158 196 189 193 160 b 172 188 149 157 151 186 z m 92 47 b 85 108 78 57 81 90 b 114 157 89 126 100 143 b 133 139 131 175 153 153 b 114 75 118 128 108 94 b 118 60 114 69 119 65 b 92 47 117 49 101 42 z "},"<":{"ha":581,"x_min":0,"x_max":0,"o":"m 428 83 b 485 111 449 85 469 96 b 507 274 528 153 544 228 b 481 296 500 282 490 289 b 358 386 439 325 394 351 b 344 408 354 392 343 401 b 351 424 344 414 349 419 b 483 558 388 475 443 510 b 513 621 497 576 510 597 b 344 729 531 719 421 794 b 90 474 251 653 164 568 b 47 404 74 453 58 429 b 51 314 35 374 36 342 b 135 228 69 278 103 251 b 251 151 171 199 211 175 b 367 94 289 131 326 111 b 428 83 386 88 407 81 z m 263 589 b 285 615 247 600 268 621 b 263 589 307 607 283 576 z m 99 418 b 186 535 101 449 165 513 b 215 560 190 539 213 556 b 247 560 224 572 244 575 b 236 543 249 553 240 547 b 132 418 211 519 136 453 b 99 418 131 399 96 399 z "},"=":{"ha":642,"x_min":0,"x_max":0,"o":"m 432 453 b 499 463 454 454 476 456 b 585 607 556 478 593 549 b 556 665 582 629 572 650 b 507 686 543 676 525 683 b 142 688 386 703 261 708 b 85 496 57 672 22 556 b 143 465 101 481 122 472 b 281 449 188 453 235 450 b 432 453 331 447 382 447 z m 192 650 b 217 664 193 661 207 669 b 192 650 240 651 189 622 z m 100 542 b 94 582 93 549 93 574 b 100 611 94 588 99 607 b 122 636 104 622 114 631 b 164 647 133 644 153 656 b 156 626 172 642 167 629 b 129 606 149 624 132 613 b 124 553 121 590 121 571 b 100 542 126 542 107 532 z m 390 164 b 501 178 428 167 465 167 b 554 211 521 183 540 196 b 589 310 576 236 590 275 b 558 379 588 335 578 363 b 507 401 544 393 525 399 b 144 403 386 417 264 424 b 72 231 67 389 32 297 b 138 183 86 207 113 192 b 256 164 175 171 215 167 b 390 164 300 163 346 163 z m 194 364 b 219 379 196 376 210 385 b 194 364 244 367 192 338 z m 103 257 b 97 297 96 264 96 289 b 103 326 97 303 101 322 b 126 351 107 338 117 344 b 167 363 136 360 156 369 b 158 340 175 357 169 343 b 132 321 151 339 136 328 b 126 268 124 306 125 286 b 103 257 129 256 110 247 z "},">":{"ha":582,"x_min":0,"x_max":0,"o":"m 188 86 b 299 135 226 97 263 115 b 440 222 347 161 396 189 b 529 314 474 247 510 275 b 533 404 544 342 546 374 b 489 476 522 429 506 454 b 238 729 415 569 328 651 b 68 617 158 796 46 717 b 97 558 72 594 83 575 b 226 426 138 511 190 476 b 236 404 231 421 239 410 b 203 369 233 396 210 375 b 81 281 188 357 94 294 b 57 240 68 269 61 254 b 131 89 42 182 75 110 b 188 86 149 82 169 81 z m 131 675 b 150 699 117 692 133 701 b 131 675 175 694 140 663 z m 200 496 b 132 558 176 517 151 535 b 100 638 113 579 97 610 b 133 642 103 658 136 663 b 132 626 133 636 131 633 b 200 536 135 603 183 551 b 231 507 206 531 228 514 b 200 496 239 490 203 476 z "},"?":{"ha":781,"x_min":0,"x_max":0,"o":"m 435 274 b 493 315 457 282 479 297 b 518 386 507 336 515 361 b 532 447 519 407 521 429 b 650 569 564 493 614 526 b 739 764 696 624 733 693 b 635 996 746 849 701 942 b 514 1054 600 1025 558 1044 b 332 1053 456 1068 392 1067 b 96 900 240 1031 150 976 b 43 740 63 854 43 796 b 99 589 43 686 61 626 b 281 607 153 536 243 543 b 342 746 292 626 328 729 b 451 719 375 786 440 771 b 396 622 458 688 425 640 b 288 533 357 597 318 569 b 243 457 268 513 251 486 b 233 372 236 431 232 401 b 249 321 235 354 239 335 b 435 274 283 272 379 254 z m 296 1001 b 310 979 317 1013 332 989 b 296 1001 289 969 274 992 z m 96 704 b 93 747 96 710 93 742 b 103 814 94 769 96 793 b 131 875 107 824 125 867 b 156 910 135 881 151 906 b 186 933 165 919 176 926 b 238 967 203 946 219 958 b 249 940 261 978 275 946 b 219 921 238 936 229 928 b 179 886 206 910 189 901 b 161 865 174 879 168 872 b 129 715 138 836 118 753 b 125 701 131 711 128 706 b 96 704 117 688 93 689 z m 490 -8 b 510 156 528 29 538 110 b 375 226 483 199 426 226 b 283 190 339 226 310 215 b 258 164 274 183 267 172 b 257 0 217 119 217 46 b 314 -40 272 -17 292 -31 b 490 -8 363 -62 453 -47 z m 357 169 b 381 194 340 181 365 206 b 357 169 397 183 372 158 z m 286 10 b 274 24 281 13 278 18 b 271 104 258 46 265 78 b 294 139 274 113 289 133 b 317 158 301 147 307 156 b 325 132 340 164 349 139 b 318 125 324 132 319 126 b 299 49 300 107 293 75 b 313 22 301 39 314 32 b 286 10 311 11 296 3 z "},"@":{"ha":1158,"x_min":0,"x_max":0,"o":"m 858 -96 b 903 -56 875 -86 894 -74 b 890 18 914 -33 907 -1 b 851 31 879 31 867 33 b 786 1 828 25 810 7 b 619 -15 732 -10 675 -15 b 419 35 550 -15 476 -3 b 324 164 375 64 340 113 b 315 486 289 265 281 385 b 447 675 339 560 385 631 b 576 736 486 703 529 726 b 750 739 632 749 693 750 b 869 685 793 731 836 713 b 921 614 892 665 910 640 b 933 529 931 588 935 558 b 867 332 932 475 914 360 b 826 347 851 324 831 331 b 828 457 821 365 826 439 b 818 576 832 497 829 539 b 778 642 811 601 797 625 b 561 675 722 688 631 699 b 415 564 503 656 453 613 b 331 314 358 492 329 406 b 374 154 331 258 343 200 b 438 100 389 131 413 110 b 622 104 494 76 567 78 b 747 225 674 129 717 175 b 808 161 763 199 782 172 b 864 156 826 154 846 153 b 968 210 903 160 942 181 b 1042 332 999 246 1022 289 b 1101 542 1071 399 1094 469 b 1069 771 1108 618 1097 699 b 951 929 1044 832 1003 889 b 729 1017 889 979 808 1007 b 401 958 619 1029 501 1006 b 144 711 294 906 199 817 b 61 311 82 589 49 446 b 178 4 69 201 111 92 b 292 -101 210 -36 249 -74 b 499 -172 354 -140 426 -162 b 858 -96 621 -186 756 -162 z m 533 950 b 569 964 535 963 558 972 b 564 940 578 958 574 944 b 533 950 551 935 532 936 z m 176 640 b 185 675 174 647 182 667 b 344 878 215 756 274 829 b 457 926 379 900 417 917 b 461 900 478 932 482 906 b 368 853 428 892 397 872 b 211 647 297 804 235 731 b 176 640 207 632 183 625 z m 618 376 b 610 408 611 385 610 397 b 676 465 611 444 643 482 b 689 411 692 458 692 429 b 671 376 686 399 681 385 b 618 376 657 361 632 361 z "},"A":{"ha":1039,"x_min":0,"x_max":0,"o":"m 263 -4 b 329 60 290 8 314 33 b 363 161 347 90 357 126 b 675 157 403 160 636 160 b 731 31 682 113 700 65 b 801 -11 749 11 774 -6 b 913 8 838 -19 881 -11 b 983 92 944 28 969 58 b 1000 226 1001 133 1003 182 b 922 604 990 354 963 482 b 750 933 883 722 831 840 b 561 1050 701 989 635 1038 b 424 1031 515 1058 467 1050 b 260 896 358 1003 301 953 b 115 601 194 808 149 706 b 39 246 76 486 50 367 b 46 110 35 200 33 153 b 88 36 54 82 68 56 b 172 -14 110 11 140 -7 b 263 -4 201 -19 235 -17 z m 417 944 b 443 967 400 956 426 978 b 417 944 460 956 435 932 z m 179 603 b 192 639 181 608 190 633 b 306 863 219 718 254 796 b 363 924 322 885 340 906 b 389 915 372 932 389 928 b 378 900 388 908 382 904 b 264 733 328 856 290 794 b 214 601 244 690 232 646 b 179 603 207 585 178 583 z m 403 382 b 465 593 418 454 433 528 b 522 649 476 615 497 651 b 582 571 549 646 572 596 b 635 382 607 510 621 446 b 403 382 603 383 435 385 z "},"À":{"ha":1039,"x_min":0,"x_max":0,"o":"m 263 -4 b 329 60 290 8 314 33 b 363 161 347 90 357 126 b 675 157 403 160 636 160 b 731 31 682 113 700 65 b 801 -11 749 11 774 -6 b 913 8 838 -19 881 -11 b 983 92 944 28 969 58 b 1000 226 1001 133 1003 182 b 922 604 990 354 963 482 b 750 933 883 722 831 840 b 561 1050 701 989 635 1038 b 424 1031 515 1058 467 1050 b 260 896 358 1003 301 953 b 115 601 194 808 149 706 b 39 246 76 486 50 367 b 46 110 35 200 33 153 b 88 36 54 82 68 56 b 172 -14 110 11 140 -7 b 263 -4 201 -19 235 -17 z m 417 944 b 443 967 400 956 426 978 b 417 944 460 956 435 932 z m 179 603 b 192 639 181 608 190 633 b 306 863 219 718 254 796 b 363 924 322 885 340 906 b 389 915 372 932 389 928 b 378 900 388 908 382 904 b 264 733 328 856 290 794 b 214 601 244 690 232 646 b 179 603 207 585 178 583 z m 403 382 b 465 593 418 454 433 528 b 522 649 476 615 497 651 b 582 571 549 646 572 596 b 635 382 607 510 621 446 b 403 382 603 383 435 385 z "},"Á":{"ha":1039,"x_min":0,"x_max":0,"o":"m 263 -4 b 329 60 290 8 314 33 b 363 161 347 90 357 126 b 675 157 403 160 636 160 b 731 31 682 113 700 65 b 801 -11 749 11 774 -6 b 913 8 838 -19 881 -11 b 983 92 944 28 969 58 b 1000 226 1001 133 1003 182 b 922 604 990 354 963 482 b 750 933 883 722 831 840 b 561 1050 701 989 635 1038 b 424 1031 515 1058 467 1050 b 260 896 358 1003 301 953 b 115 601 194 808 149 706 b 39 246 76 486 50 367 b 46 110 35 200 33 153 b 88 36 54 82 68 56 b 172 -14 110 11 140 -7 b 263 -4 201 -19 235 -17 z m 417 944 b 443 967 400 956 426 978 b 417 944 460 956 435 932 z m 179 603 b 192 639 181 608 190 633 b 306 863 219 718 254 796 b 363 924 322 885 340 906 b 389 915 372 932 389 928 b 378 900 388 908 382 904 b 264 733 328 856 290 794 b 214 601 244 690 232 646 b 179 603 207 585 178 583 z m 403 382 b 465 593 418 454 433 528 b 522 649 476 615 497 651 b 582 571 549 646 572 596 b 635 382 607 510 621 446 b 403 382 603 383 435 385 z "},"Â":{"ha":1039,"x_min":0,"x_max":0,"o":"m 263 -4 b 329 60 290 8 314 33 b 363 161 347 90 357 126 b 675 157 403 160 636 160 b 731 31 682 113 700 65 b 801 -11 749 11 774 -6 b 913 8 838 -19 881 -11 b 983 92 944 28 969 58 b 1000 226 1001 133 1003 182 b 922 604 990 354 963 482 b 750 933 883 722 831 840 b 561 1050 701 989 635 1038 b 424 1031 515 1058 467 1050 b 260 896 358 1003 301 953 b 115 601 194 808 149 706 b 39 246 76 486 50 367 b 46 110 35 200 33 153 b 88 36 54 82 68 56 b 172 -14 110 11 140 -7 b 263 -4 201 -19 235 -17 z m 417 944 b 443 967 400 956 426 978 b 417 944 460 956 435 932 z m 179 603 b 192 639 181 608 190 633 b 306 863 219 718 254 796 b 363 924 322 885 340 906 b 389 915 372 932 389 928 b 378 900 388 908 382 904 b 264 733 328 856 290 794 b 214 601 244 690 232 646 b 179 603 207 585 178 583 z m 403 382 b 465 593 418 454 433 528 b 522 649 476 615 497 651 b 582 571 549 646 572 596 b 635 382 607 510 621 446 b 403 382 603 383 435 385 z "},"Ã":{"ha":1039,"x_min":0,"x_max":0,"o":"m 263 -4 b 329 60 290 8 314 33 b 363 161 347 90 357 126 b 675 157 403 160 636 160 b 731 31 682 113 700 65 b 801 -11 749 11 774 -6 b 913 8 838 -19 881 -11 b 983 92 944 28 969 58 b 1000 226 1001 133 1003 182 b 922 604 990 354 963 482 b 750 933 883 722 831 840 b 561 1050 701 989 635 1038 b 424 1031 515 1058 467 1050 b 260 896 358 1003 301 953 b 115 601 194 808 149 706 b 39 246 76 486 50 367 b 46 110 35 200 33 153 b 88 36 54 82 68 56 b 172 -14 110 11 140 -7 b 263 -4 201 -19 235 -17 z m 417 944 b 443 967 400 956 426 978 b 417 944 460 956 435 932 z m 179 603 b 192 639 181 608 190 633 b 306 863 219 718 254 796 b 363 924 322 885 340 906 b 389 915 372 932 389 928 b 378 900 388 908 382 904 b 264 733 328 856 290 794 b 214 601 244 690 232 646 b 179 603 207 585 178 583 z m 403 382 b 465 593 418 454 433 528 b 522 649 476 615 497 651 b 582 571 549 646 572 596 b 635 382 607 510 621 446 b 403 382 603 383 435 385 z "},"Ä":{"ha":1039,"x_min":0,"x_max":0,"o":"m 263 -4 b 329 60 290 8 314 33 b 363 161 347 90 357 126 b 675 157 403 160 636 160 b 731 31 682 113 700 65 b 801 -11 749 11 774 -6 b 913 8 838 -19 881 -11 b 983 92 944 28 969 58 b 1000 226 1001 133 1003 182 b 922 604 990 354 963 482 b 750 933 883 722 831 840 b 561 1050 701 989 635 1038 b 424 1031 515 1058 467 1050 b 260 896 358 1003 301 953 b 115 601 194 808 149 706 b 39 246 76 486 50 367 b 46 110 35 200 33 153 b 88 36 54 82 68 56 b 172 -14 110 11 140 -7 b 263 -4 201 -19 235 -17 z m 417 944 b 443 967 400 956 426 978 b 417 944 460 956 435 932 z m 179 603 b 192 639 181 608 190 633 b 306 863 219 718 254 796 b 363 924 322 885 340 906 b 389 915 372 932 389 928 b 378 900 388 908 382 904 b 264 733 328 856 290 794 b 214 601 244 690 232 646 b 179 603 207 585 178 583 z m 403 382 b 465 593 418 454 433 528 b 522 649 476 615 497 651 b 582 571 549 646 572 596 b 635 382 607 510 621 446 b 403 382 603 383 435 385 z "},"Å":{"ha":1039,"x_min":0,"x_max":0,"o":"m 263 -4 b 329 60 290 8 314 33 b 363 161 347 90 357 126 b 675 157 403 160 636 160 b 731 31 682 113 700 65 b 801 -11 749 11 774 -6 b 913 8 838 -19 881 -11 b 983 92 944 28 969 58 b 1000 226 1001 133 1003 182 b 922 604 990 354 963 482 b 750 933 883 722 831 840 b 561 1050 701 989 635 1038 b 424 1031 515 1058 467 1050 b 260 896 358 1003 301 953 b 115 601 194 808 149 706 b 39 246 76 486 50 367 b 46 110 35 200 33 153 b 88 36 54 82 68 56 b 172 -14 110 11 140 -7 b 263 -4 201 -19 235 -17 z m 417 944 b 443 967 400 956 426 978 b 417 944 460 956 435 932 z m 179 603 b 192 639 181 608 190 633 b 306 863 219 718 254 796 b 363 924 322 885 340 906 b 389 915 372 932 389 928 b 378 900 388 908 382 904 b 264 733 328 856 290 794 b 214 601 244 690 232 646 b 179 603 207 585 178 583 z m 403 382 b 465 593 418 454 433 528 b 522 649 476 615 497 651 b 582 571 549 646 572 596 b 635 382 607 510 621 446 b 403 382 603 383 435 385 z "},"B":{"ha":1054,"x_min":0,"x_max":0,"o":"m 532 -21 b 779 35 617 -19 704 -4 b 911 129 826 60 874 90 b 1003 275 951 171 983 221 b 985 506 1028 347 1021 438 b 917 585 968 536 944 565 b 831 628 890 604 861 618 b 917 724 865 654 899 685 b 926 883 938 772 942 832 b 851 988 914 924 886 961 b 697 1046 807 1019 751 1036 b 539 1058 644 1056 592 1057 b 269 1049 450 1063 358 1060 b 119 1019 219 1042 169 1032 b 39 971 89 1013 54 999 b 43 803 21 935 26 839 b 86 751 53 782 65 760 b 160 757 110 743 136 753 b 124 550 132 724 125 593 b 136 263 119 454 126 358 b 178 88 142 203 151 142 b 256 6 194 53 221 21 b 374 -18 292 -12 333 -15 b 532 -21 394 -19 511 -21 z m 354 994 b 351 965 375 996 372 967 b 354 994 329 964 332 993 z m 88 831 b 86 915 85 846 81 900 b 114 954 89 924 106 949 b 179 982 132 968 156 975 b 258 994 204 988 231 992 b 296 982 272 994 293 996 b 278 960 297 972 288 963 b 244 958 274 958 250 958 b 161 943 217 956 188 951 b 131 925 150 939 136 935 b 119 906 128 918 119 913 b 119 868 119 900 119 872 b 122 836 119 864 122 840 b 88 831 119 817 92 811 z m 443 661 b 444 735 443 685 442 710 b 456 760 446 743 449 754 b 507 768 464 767 496 768 b 568 738 531 768 557 757 b 568 692 575 726 575 701 b 546 678 565 688 551 679 b 465 658 521 665 493 660 b 443 661 458 658 450 661 z m 468 372 b 481 435 468 388 468 425 b 613 438 506 453 582 446 b 640 425 622 435 632 432 b 660 357 654 411 665 375 b 560 296 653 322 594 300 b 472 292 531 292 501 294 b 468 372 469 303 468 360 z "},"C":{"ha":899,"x_min":0,"x_max":0,"o":"m 488 -26 b 708 28 564 -25 640 -4 b 851 175 769 57 829 110 b 733 360 882 263 825 360 b 653 347 706 360 679 354 b 508 308 606 333 558 315 b 438 317 485 306 460 307 b 392 375 415 328 400 351 b 381 485 381 411 379 449 b 399 608 382 526 388 568 b 438 694 407 639 418 669 b 483 724 450 708 465 721 b 538 717 501 728 521 724 b 704 663 590 692 646 664 b 786 692 733 663 764 672 b 839 850 828 728 853 796 b 744 967 826 897 786 939 b 478 1036 668 1017 569 1044 b 185 889 369 1026 257 971 b 49 569 107 803 63 685 b 94 232 35 456 49 335 b 260 36 131 154 188 82 b 488 -26 326 -6 410 -26 z m 404 956 b 400 928 421 954 417 932 b 404 956 367 918 368 961 z m 113 628 b 151 751 108 653 139 728 b 276 907 181 811 222 868 b 338 931 289 917 321 938 b 335 906 349 926 346 911 b 303 890 324 901 313 897 b 183 746 251 856 213 801 b 146 635 164 711 150 674 b 113 628 144 617 115 610 z "},"Ç":{"ha":899,"x_min":0,"x_max":0,"o":"m 488 -26 b 708 28 564 -25 640 -4 b 851 175 769 57 829 110 b 733 360 882 263 825 360 b 653 347 706 360 679 354 b 508 308 606 333 558 315 b 438 317 485 306 460 307 b 392 375 415 328 400 351 b 381 485 381 411 379 449 b 399 608 382 526 388 568 b 438 694 407 639 418 669 b 483 724 450 708 465 721 b 538 717 501 728 521 724 b 704 663 590 692 646 664 b 786 692 733 663 764 672 b 839 850 828 728 853 796 b 744 967 826 897 786 939 b 478 1036 668 1017 569 1044 b 185 889 369 1026 257 971 b 49 569 107 803 63 685 b 94 232 35 456 49 335 b 260 36 131 154 188 82 b 488 -26 326 -6 410 -26 z m 404 956 b 400 928 421 954 417 932 b 404 956 367 918 368 961 z m 113 628 b 151 751 108 653 139 728 b 276 907 181 811 222 868 b 338 931 289 917 321 938 b 335 906 349 926 346 911 b 303 890 324 901 313 897 b 183 746 251 856 213 801 b 146 635 164 711 150 674 b 113 628 144 617 115 610 z "},"D":{"ha":1067,"x_min":0,"x_max":0,"o":"m 717 15 b 944 219 808 58 890 133 b 1022 451 986 289 1013 371 b 967 781 1035 561 1018 682 b 719 1014 914 881 821 965 b 324 1072 599 1071 456 1083 b 107 1036 250 1067 175 1061 b 46 974 81 1025 57 1000 b 57 789 19 918 21 839 b 121 749 72 769 96 750 b 144 749 124 749 140 750 b 146 729 151 747 147 735 b 150 121 131 526 118 321 b 222 10 158 74 182 36 b 396 -36 272 -22 336 -32 b 717 15 504 -43 618 -29 z m 100 849 b 94 863 96 851 94 857 b 93 896 93 868 93 892 b 101 918 94 904 99 911 b 113 947 106 928 107 939 b 142 981 121 958 131 972 b 215 1015 151 986 204 1011 b 311 1026 232 1024 293 1029 b 363 1019 319 1025 356 1022 b 351 988 381 1014 369 992 b 299 990 343 985 308 990 b 228 986 288 992 239 989 b 188 969 222 985 192 971 b 140 933 168 963 150 951 b 133 913 138 926 136 919 b 126 897 131 908 126 903 b 128 863 124 886 126 875 b 100 849 128 850 110 842 z m 413 1003 b 446 1001 421 1017 447 1018 b 413 1003 442 967 393 974 z m 489 333 b 467 347 479 333 467 338 b 472 651 460 449 458 551 b 488 696 474 663 478 690 b 529 697 496 700 521 699 b 628 622 569 689 607 658 b 653 518 646 592 654 554 b 489 333 651 419 589 324 z "},"E":{"ha":851,"x_min":0,"x_max":0,"o":"m 704 40 b 781 108 733 58 761 81 b 799 165 793 124 799 146 b 724 304 800 215 771 288 b 525 292 689 315 561 299 b 394 324 475 283 406 274 b 414 399 389 344 396 385 b 486 414 433 414 461 414 b 686 415 553 413 624 392 b 738 458 707 424 726 439 b 735 610 757 497 763 576 b 657 649 715 632 685 643 b 500 653 606 658 553 654 b 440 656 490 653 450 651 b 431 697 426 660 428 683 b 451 732 432 711 440 725 b 526 744 474 744 501 746 b 699 749 585 744 644 731 b 722 999 817 788 833 944 b 469 1049 644 1038 556 1050 b 221 1003 386 1049 299 1036 b 150 947 193 990 168 971 b 86 804 117 907 97 856 b 64 374 51 664 58 518 b 93 196 67 314 76 254 b 140 85 104 157 117 118 b 207 25 157 60 181 40 b 394 -28 263 -8 329 -24 b 704 40 500 -35 614 -15 z m 325 969 b 340 997 310 981 319 1001 b 325 969 364 994 346 956 z m 129 663 b 124 710 119 669 122 697 b 147 854 124 735 139 832 b 164 886 149 858 161 882 b 229 957 176 915 203 939 b 285 969 243 965 271 979 b 279 946 293 964 289 951 b 197 874 246 931 214 906 b 185 850 193 865 188 858 b 160 724 176 831 161 744 b 160 678 160 718 160 683 b 129 663 158 664 140 656 z "},"È":{"ha":851,"x_min":0,"x_max":0,"o":"m 704 40 b 781 108 733 58 761 81 b 799 165 793 124 799 146 b 724 304 800 215 771 288 b 525 292 689 315 561 299 b 394 324 475 283 406 274 b 414 399 389 344 396 385 b 486 414 433 414 461 414 b 686 415 553 413 624 392 b 738 458 707 424 726 439 b 735 610 757 497 763 576 b 657 649 715 632 685 643 b 500 653 606 658 553 654 b 440 656 490 653 450 651 b 431 697 426 660 428 683 b 451 732 432 711 440 725 b 526 744 474 744 501 746 b 699 749 585 744 644 731 b 722 999 817 788 833 944 b 469 1049 644 1038 556 1050 b 221 1003 386 1049 299 1036 b 150 947 193 990 168 971 b 86 804 117 907 97 856 b 64 374 51 664 58 518 b 93 196 67 314 76 254 b 140 85 104 157 117 118 b 207 25 157 60 181 40 b 394 -28 263 -8 329 -24 b 704 40 500 -35 614 -15 z m 325 969 b 340 997 310 981 319 1001 b 325 969 364 994 346 956 z m 129 663 b 124 710 119 669 122 697 b 147 854 124 735 139 832 b 164 886 149 858 161 882 b 229 957 176 915 203 939 b 285 969 243 965 271 979 b 279 946 293 964 289 951 b 197 874 246 931 214 906 b 185 850 193 865 188 858 b 160 724 176 831 161 744 b 160 678 160 718 160 683 b 129 663 158 664 140 656 z "},"É":{"ha":851,"x_min":0,"x_max":0,"o":"m 704 40 b 781 108 733 58 761 81 b 799 165 793 124 799 146 b 724 304 800 215 771 288 b 525 292 689 315 561 299 b 394 324 475 283 406 274 b 414 399 389 344 396 385 b 486 414 433 414 461 414 b 686 415 553 413 624 392 b 738 458 707 424 726 439 b 735 610 757 497 763 576 b 657 649 715 632 685 643 b 500 653 606 658 553 654 b 440 656 490 653 450 651 b 431 697 426 660 428 683 b 451 732 432 711 440 725 b 526 744 474 744 501 746 b 699 749 585 744 644 731 b 722 999 817 788 833 944 b 469 1049 644 1038 556 1050 b 221 1003 386 1049 299 1036 b 150 947 193 990 168 971 b 86 804 117 907 97 856 b 64 374 51 664 58 518 b 93 196 67 314 76 254 b 140 85 104 157 117 118 b 207 25 157 60 181 40 b 394 -28 263 -8 329 -24 b 704 40 500 -35 614 -15 z m 325 969 b 340 997 310 981 319 1001 b 325 969 364 994 346 956 z m 129 663 b 124 710 119 669 122 697 b 147 854 124 735 139 832 b 164 886 149 858 161 882 b 229 957 176 915 203 939 b 285 969 243 965 271 979 b 279 946 293 964 289 951 b 197 874 246 931 214 906 b 185 850 193 865 188 858 b 160 724 176 831 161 744 b 160 678 160 718 160 683 b 129 663 158 664 140 656 z "},"Ê":{"ha":851,"x_min":0,"x_max":0,"o":"m 704 40 b 781 108 733 58 761 81 b 799 165 793 124 799 146 b 724 304 800 215 771 288 b 525 292 689 315 561 299 b 394 324 475 283 406 274 b 414 399 389 344 396 385 b 486 414 433 414 461 414 b 686 415 553 413 624 392 b 738 458 707 424 726 439 b 735 610 757 497 763 576 b 657 649 715 632 685 643 b 500 653 606 658 553 654 b 440 656 490 653 450 651 b 431 697 426 660 428 683 b 451 732 432 711 440 725 b 526 744 474 744 501 746 b 699 749 585 744 644 731 b 722 999 817 788 833 944 b 469 1049 644 1038 556 1050 b 221 1003 386 1049 299 1036 b 150 947 193 990 168 971 b 86 804 117 907 97 856 b 64 374 51 664 58 518 b 93 196 67 314 76 254 b 140 85 104 157 117 118 b 207 25 157 60 181 40 b 394 -28 263 -8 329 -24 b 704 40 500 -35 614 -15 z m 325 969 b 340 997 310 981 319 1001 b 325 969 364 994 346 956 z m 129 663 b 124 710 119 669 122 697 b 147 854 124 735 139 832 b 164 886 149 858 161 882 b 229 957 176 915 203 939 b 285 969 243 965 271 979 b 279 946 293 964 289 951 b 197 874 246 931 214 906 b 185 850 193 865 188 858 b 160 724 176 831 161 744 b 160 678 160 718 160 683 b 129 663 158 664 140 656 z "},"Ë":{"ha":851,"x_min":0,"x_max":0,"o":"m 704 40 b 781 108 733 58 761 81 b 799 165 793 124 799 146 b 724 304 800 215 771 288 b 525 292 689 315 561 299 b 394 324 475 283 406 274 b 414 399 389 344 396 385 b 486 414 433 414 461 414 b 686 415 553 413 624 392 b 738 458 707 424 726 439 b 735 610 757 497 763 576 b 657 649 715 632 685 643 b 500 653 606 658 553 654 b 440 656 490 653 450 651 b 431 697 426 660 428 683 b 451 732 432 711 440 725 b 526 744 474 744 501 746 b 699 749 585 744 644 731 b 722 999 817 788 833 944 b 469 1049 644 1038 556 1050 b 221 1003 386 1049 299 1036 b 150 947 193 990 168 971 b 86 804 117 907 97 856 b 64 374 51 664 58 518 b 93 196 67 314 76 254 b 140 85 104 157 117 118 b 207 25 157 60 181 40 b 394 -28 263 -8 329 -24 b 704 40 500 -35 614 -15 z m 325 969 b 340 997 310 981 319 1001 b 325 969 364 994 346 956 z m 129 663 b 124 710 119 669 122 697 b 147 854 124 735 139 832 b 164 886 149 858 161 882 b 229 957 176 915 203 939 b 285 969 243 965 271 979 b 279 946 293 964 289 951 b 197 874 246 931 214 906 b 185 850 193 865 188 858 b 160 724 176 831 161 744 b 160 678 160 718 160 683 b 129 663 158 664 140 656 z "},"F":{"ha":826,"x_min":0,"x_max":0,"o":"m 333 -7 b 396 101 369 15 390 60 b 394 299 404 167 401 233 b 411 347 393 315 399 335 b 475 371 426 363 453 368 b 643 376 531 378 588 369 b 728 417 674 382 708 392 b 754 526 751 446 754 489 b 736 592 756 550 750 574 b 656 632 717 615 685 626 b 490 636 601 642 544 636 b 440 639 481 635 449 635 b 432 686 426 646 429 672 b 460 722 435 703 444 715 b 535 732 483 733 510 733 b 671 728 581 731 626 722 b 751 768 701 732 729 746 b 763 969 807 822 817 914 b 725 996 751 981 739 989 b 468 1049 649 1036 556 1050 b 219 999 383 1049 296 1035 b 150 942 192 986 167 965 b 90 804 119 901 103 851 b 65 344 53 654 60 497 b 93 160 68 282 78 219 b 151 29 106 114 122 67 b 333 -7 193 -24 276 -44 z m 332 971 b 363 983 333 983 353 990 b 360 961 371 978 367 968 b 332 971 350 950 331 956 z m 135 625 b 136 735 132 642 135 718 b 160 836 138 750 154 821 b 211 917 172 865 190 893 b 240 940 219 926 229 933 b 260 951 246 944 254 947 b 303 958 274 961 293 971 b 288 935 311 947 300 935 b 261 917 279 928 271 921 b 197 831 242 907 206 851 b 176 749 188 804 181 776 b 169 633 174 731 167 651 b 135 625 174 615 138 607 z "},"G":{"ha":968,"x_min":0,"x_max":0,"o":"m 679 1 b 849 125 746 25 808 68 b 925 367 899 193 928 282 b 893 483 924 407 913 449 b 840 546 879 507 861 528 b 776 576 821 560 799 569 b 515 582 714 599 568 622 b 489 404 467 544 460 458 b 531 375 497 389 515 381 b 593 357 540 372 586 363 b 596 351 596 356 597 354 b 542 328 589 339 556 331 b 363 435 465 314 386 361 b 367 590 346 483 357 539 b 425 710 375 633 396 675 b 494 760 443 732 467 751 b 572 751 519 768 549 764 b 658 674 606 733 625 693 b 811 697 700 649 776 665 b 869 783 838 719 861 750 b 861 867 876 811 872 842 b 792 951 846 900 819 929 b 663 1022 754 983 710 1010 b 511 1035 614 1036 561 1039 b 247 940 418 1025 325 992 b 125 817 200 908 157 867 b 42 456 60 713 32 579 b 160 150 51 347 92 236 b 321 21 203 97 258 51 b 679 1 431 -32 564 -40 z m 379 946 b 408 933 388 971 426 953 b 379 946 396 922 374 931 z m 114 622 b 113 643 110 628 111 636 b 247 875 128 731 179 817 b 322 924 271 894 296 911 b 335 900 343 933 354 910 b 285 867 326 896 292 872 b 157 675 224 819 179 749 b 147 631 156 669 149 636 b 114 622 142 617 124 611 z "},"H":{"ha":1074,"x_min":0,"x_max":0,"o":"m 782 -31 b 854 1 808 -28 833 -15 b 921 99 885 25 908 61 b 967 383 950 190 963 288 b 1031 449 990 401 1015 424 b 1046 497 1039 464 1046 481 b 1032 528 1044 508 1039 518 b 968 590 1014 551 992 571 b 953 796 965 658 961 728 b 899 968 944 856 932 918 b 815 1035 881 999 850 1025 b 725 1025 786 1043 751 1039 b 664 957 699 1010 678 983 b 624 818 642 914 632 865 b 607 625 613 754 606 689 b 479 621 590 624 497 619 b 465 797 482 681 475 739 b 407 978 457 860 442 925 b 360 1025 394 996 379 1014 b 192 972 303 1058 228 1026 b 142 838 165 932 151 883 b 119 604 126 761 122 682 b 86 590 107 603 96 597 b 38 444 35 557 1 493 b 121 385 57 417 89 400 b 168 93 125 286 138 186 b 249 -10 181 51 211 13 b 332 -29 272 -25 304 -33 b 399 8 357 -25 382 -11 b 431 78 415 28 424 54 b 460 218 444 124 453 171 b 475 375 468 271 474 322 b 611 379 521 378 567 383 b 651 88 615 282 621 181 b 703 -3 663 54 678 21 b 782 -31 724 -22 753 -33 z m 286 964 b 319 965 289 985 322 988 b 286 964 318 946 285 944 z m 179 671 b 175 686 175 675 175 681 b 179 785 175 719 175 753 b 189 836 179 792 188 829 b 235 932 196 871 210 907 b 257 917 253 951 278 931 b 233 882 251 911 236 889 b 217 811 224 860 221 835 b 211 685 213 790 208 704 b 179 671 214 669 189 658 z "},"I":{"ha":507,"x_min":0,"x_max":0,"o":"m 322 -4 b 376 79 349 17 364 49 b 408 203 392 118 401 161 b 424 861 442 419 468 646 b 347 994 413 911 389 964 b 94 929 264 1056 150 1017 b 61 813 72 896 61 853 b 100 253 61 625 64 436 b 146 85 111 196 124 139 b 208 -6 160 50 178 15 b 322 -4 242 -31 289 -29 z m 214 940 b 244 933 215 958 258 956 b 214 940 235 919 211 918 z m 106 597 b 99 629 106 601 100 625 b 100 782 93 654 96 757 b 117 840 101 792 114 832 b 182 915 128 865 154 913 b 189 889 200 917 206 897 b 150 826 172 882 154 843 b 142 790 147 814 143 803 b 143 608 140 729 139 669 b 135 586 147 600 144 590 b 106 597 124 582 108 585 z "},"Ì":{"ha":507,"x_min":0,"x_max":0,"o":"m 322 -4 b 376 79 349 17 364 49 b 408 203 392 118 401 161 b 424 861 442 419 468 646 b 347 994 413 911 389 964 b 94 929 264 1056 150 1017 b 61 813 72 896 61 853 b 100 253 61 625 64 436 b 146 85 111 196 124 139 b 208 -6 160 50 178 15 b 322 -4 242 -31 289 -29 z m 214 940 b 244 933 215 958 258 956 b 214 940 235 919 211 918 z m 106 597 b 99 629 106 601 100 625 b 100 782 93 654 96 757 b 117 840 101 792 114 832 b 182 915 128 865 154 913 b 189 889 200 917 206 897 b 150 826 172 882 154 843 b 142 790 147 814 143 803 b 143 608 140 729 139 669 b 135 586 147 600 144 590 b 106 597 124 582 108 585 z "},"Í":{"ha":507,"x_min":0,"x_max":0,"o":"m 322 -4 b 376 79 349 17 364 49 b 408 203 392 118 401 161 b 424 861 442 419 468 646 b 347 994 413 911 389 964 b 94 929 264 1056 150 1017 b 61 813 72 896 61 853 b 100 253 61 625 64 436 b 146 85 111 196 124 139 b 208 -6 160 50 178 15 b 322 -4 242 -31 289 -29 z m 214 940 b 244 933 215 958 258 956 b 214 940 235 919 211 918 z m 106 597 b 99 629 106 601 100 625 b 100 782 93 654 96 757 b 117 840 101 792 114 832 b 182 915 128 865 154 913 b 189 889 200 917 206 897 b 150 826 172 882 154 843 b 142 790 147 814 143 803 b 143 608 140 729 139 669 b 135 586 147 600 144 590 b 106 597 124 582 108 585 z "},"Î":{"ha":507,"x_min":0,"x_max":0,"o":"m 322 -4 b 376 79 349 17 364 49 b 408 203 392 118 401 161 b 424 861 442 419 468 646 b 347 994 413 911 389 964 b 94 929 264 1056 150 1017 b 61 813 72 896 61 853 b 100 253 61 625 64 436 b 146 85 111 196 124 139 b 208 -6 160 50 178 15 b 322 -4 242 -31 289 -29 z m 214 940 b 244 933 215 958 258 956 b 214 940 235 919 211 918 z m 106 597 b 99 629 106 601 100 625 b 100 782 93 654 96 757 b 117 840 101 792 114 832 b 182 915 128 865 154 913 b 189 889 200 917 206 897 b 150 826 172 882 154 843 b 142 790 147 814 143 803 b 143 608 140 729 139 669 b 135 586 147 600 144 590 b 106 597 124 582 108 585 z "},"Ï":{"ha":507,"x_min":0,"x_max":0,"o":"m 322 -4 b 376 79 349 17 364 49 b 408 203 392 118 401 161 b 424 861 442 419 468 646 b 347 994 413 911 389 964 b 94 929 264 1056 150 1017 b 61 813 72 896 61 853 b 100 253 61 625 64 436 b 146 85 111 196 124 139 b 208 -6 160 50 178 15 b 322 -4 242 -31 289 -29 z m 214 940 b 244 933 215 958 258 956 b 214 940 235 919 211 918 z m 106 597 b 99 629 106 601 100 625 b 100 782 93 654 96 757 b 117 840 101 792 114 832 b 182 915 128 865 154 913 b 189 889 200 917 206 897 b 150 826 172 882 154 843 b 142 790 147 814 143 803 b 143 608 140 729 139 669 b 135 586 147 600 144 590 b 106 597 124 582 108 585 z "},"J":{"ha":842,"x_min":0,"x_max":0,"o":"m 463 -46 b 617 3 515 -42 572 -28 b 732 163 669 42 707 101 b 778 347 757 221 771 283 b 769 708 790 467 785 589 b 736 861 763 760 753 811 b 681 969 724 899 708 939 b 625 1006 667 986 646 1000 b 404 1033 553 1026 478 1033 b 233 1008 346 1033 285 1032 b 147 924 196 992 163 961 b 164 740 126 867 129 790 b 232 693 179 718 206 701 b 290 685 250 688 271 685 b 458 667 326 685 432 690 b 485 606 469 658 482 618 b 486 431 497 549 497 488 b 439 342 479 399 467 360 b 354 338 414 326 381 329 b 192 399 331 344 215 396 b 89 360 156 403 114 385 b 24 207 50 321 26 261 b 71 68 22 158 38 104 b 256 -29 118 17 188 -11 b 463 -46 322 -47 393 -53 z m 286 964 b 303 978 289 971 297 975 b 328 964 315 985 332 978 b 307 950 325 957 315 954 b 286 964 296 946 282 953 z m 196 769 b 183 789 194 772 185 786 b 179 822 179 799 179 811 b 179 867 179 828 178 861 b 199 919 183 886 188 906 b 250 953 208 933 233 954 b 256 925 264 950 268 933 b 221 836 231 907 221 868 b 226 794 221 822 221 808 b 233 772 228 792 233 776 b 196 769 232 753 204 751 z "},"K":{"ha":938,"x_min":0,"x_max":0,"o":"m 296 1 b 367 86 328 21 350 54 b 411 260 393 140 404 201 b 658 38 483 176 567 100 b 761 -6 689 17 724 -1 b 854 21 793 -10 831 -1 b 822 271 922 85 882 199 b 661 444 772 332 718 389 b 590 513 639 468 615 492 b 744 624 646 544 697 582 b 863 751 788 663 829 704 b 864 956 907 811 907 896 b 786 1010 844 981 817 1003 b 665 983 746 1018 701 1006 b 426 760 625 958 461 792 b 357 1021 429 835 422 983 b 115 971 278 1064 165 1047 b 78 851 92 936 83 893 b 69 706 72 803 69 754 b 83 251 69 554 68 401 b 124 67 90 189 96 124 b 296 1 157 3 233 -36 z m 242 961 b 253 989 233 971 240 986 b 269 969 265 993 275 981 b 242 961 265 957 250 953 z m 128 621 b 121 663 118 626 121 653 b 119 751 119 692 119 722 b 129 854 118 767 125 839 b 144 904 132 871 136 889 b 193 950 151 915 181 944 b 206 925 218 963 232 932 b 193 914 203 924 196 915 b 161 825 172 890 165 856 b 157 681 158 806 157 700 b 157 635 157 675 157 640 b 128 621 156 622 138 614 z "},"L":{"ha":732,"x_min":0,"x_max":0,"o":"m 406 -47 b 628 -14 438 -43 597 -24 b 665 6 642 -10 654 -3 b 719 108 697 29 715 71 b 664 292 724 164 714 267 b 593 307 642 303 617 304 b 432 300 539 311 486 300 b 447 453 433 319 446 433 b 463 697 456 535 460 615 b 451 903 464 765 465 836 b 415 990 446 935 433 964 b 288 1057 389 1031 336 1056 b 217 1036 263 1057 238 1049 b 118 896 168 1006 138 949 b 78 718 96 839 83 778 b 68 356 67 597 65 476 b 92 114 71 275 75 193 b 119 39 97 88 104 61 b 214 -29 140 6 178 -18 b 406 -47 275 -49 342 -53 z m 276 950 b 279 979 265 957 267 974 b 306 965 293 985 310 979 b 276 950 300 951 289 942 z m 124 554 b 125 664 124 568 124 650 b 147 825 129 718 131 774 b 189 908 157 854 169 885 b 214 940 193 914 208 936 b 231 917 236 956 257 928 b 204 872 222 901 213 888 b 188 833 200 868 189 839 b 164 726 172 800 168 763 b 157 574 161 706 157 594 b 158 558 157 572 158 560 b 124 554 156 539 124 535 z "},"M":{"ha":1174,"x_min":0,"x_max":0,"o":"m 332 29 b 374 136 354 60 365 99 b 386 408 392 225 389 317 b 539 110 439 310 475 201 b 585 76 550 94 567 76 b 626 107 603 75 619 92 b 785 413 681 208 722 315 b 794 158 782 328 781 242 b 846 25 803 111 815 60 b 1051 47 904 -40 1006 -26 b 1085 147 1071 78 1078 113 b 1106 428 1101 240 1104 335 b 1096 704 1106 521 1106 613 b 1057 892 1090 768 1081 832 b 976 999 1040 932 1014 972 b 713 894 885 1061 774 989 b 585 638 692 861 601 674 b 463 882 568 671 482 851 b 214 1004 410 967 304 1047 b 147 947 188 992 165 971 b 90 808 118 907 101 857 b 68 600 76 739 72 669 b 88 140 61 447 60 292 b 108 63 92 114 97 88 b 332 29 150 -31 272 -53 z m 224 932 b 222 949 219 936 221 943 b 256 950 228 964 253 965 b 224 932 258 935 233 921 z m 114 579 b 111 686 107 596 111 667 b 125 786 111 701 119 771 b 161 879 133 818 143 851 b 179 900 164 882 178 897 b 203 885 194 924 224 900 b 165 815 190 876 171 829 b 149 729 154 788 151 758 b 149 589 146 683 142 635 b 114 579 153 571 122 563 z "},"N":{"ha":1025,"x_min":0,"x_max":0,"o":"m 333 31 b 375 149 357 64 368 107 b 386 408 390 233 389 321 b 501 172 428 331 458 249 b 589 51 525 128 551 85 b 694 -4 618 25 656 4 b 778 -1 722 -10 751 -10 b 842 43 801 7 825 24 b 889 126 863 68 876 97 b 946 364 919 203 935 283 b 964 690 961 472 967 582 b 922 911 961 765 953 843 b 861 997 908 943 888 974 b 807 1026 846 1011 828 1022 b 743 1015 786 1032 763 1026 b 671 919 710 994 686 957 b 636 729 646 860 638 793 b 638 521 635 660 636 590 b 450 903 614 579 486 850 b 349 996 424 940 389 975 b 275 1018 326 1008 300 1017 b 203 999 250 1018 224 1011 b 136 931 175 982 153 957 b 83 771 107 883 93 826 b 67 574 74 706 69 639 b 69 304 64 483 64 393 b 90 126 72 244 78 185 b 110 58 94 103 100 79 b 333 31 153 -32 275 -53 z m 265 961 b 272 936 283 967 292 946 b 265 961 253 928 240 956 z m 126 593 b 119 607 122 596 119 601 b 136 815 117 643 125 781 b 200 918 144 839 181 903 b 222 899 219 932 242 913 b 167 793 201 883 171 818 b 157 611 161 764 151 640 b 126 593 158 597 138 585 z "},"Ñ":{"ha":1025,"x_min":0,"x_max":0,"o":"m 333 31 b 375 149 357 64 368 107 b 386 408 390 233 389 321 b 501 172 428 331 458 249 b 589 51 525 128 551 85 b 694 -4 618 25 656 4 b 778 -1 722 -10 751 -10 b 842 43 801 7 825 24 b 889 126 863 68 876 97 b 946 364 919 203 935 283 b 964 690 961 472 967 582 b 922 911 961 765 953 843 b 861 997 908 943 888 974 b 807 1026 846 1011 828 1022 b 743 1015 786 1032 763 1026 b 671 919 710 994 686 957 b 636 729 646 860 638 793 b 638 521 635 660 636 590 b 450 903 614 579 486 850 b 349 996 424 940 389 975 b 275 1018 326 1008 300 1017 b 203 999 250 1018 224 1011 b 136 931 175 982 153 957 b 83 771 107 883 93 826 b 67 574 74 706 69 639 b 69 304 64 483 64 393 b 90 126 72 244 78 185 b 110 58 94 103 100 79 b 333 31 153 -32 275 -53 z m 265 961 b 272 936 283 967 292 946 b 265 961 253 928 240 956 z m 126 593 b 119 607 122 596 119 601 b 136 815 117 643 125 781 b 200 918 144 839 181 903 b 222 899 219 932 242 913 b 167 793 201 883 171 818 b 157 611 161 764 151 640 b 126 593 158 597 138 585 z "},"O":{"ha":985,"x_min":0,"x_max":0,"o":"m 546 -36 b 783 75 632 -25 721 14 b 910 321 849 140 886 232 b 883 810 951 479 950 661 b 150 868 749 1113 335 1143 b 68 668 110 808 85 739 b 65 311 42 553 40 428 b 163 92 82 233 113 154 b 286 3 194 53 239 22 b 546 -36 367 -32 458 -47 z m 367 940 b 394 953 349 953 397 975 b 367 940 393 936 381 931 z m 142 610 b 157 725 139 629 151 706 b 188 803 160 736 182 792 b 226 876 199 828 211 853 b 271 915 238 893 256 904 b 299 936 275 919 294 933 b 329 936 307 940 321 943 b 324 913 338 931 333 918 b 272 875 314 908 279 882 b 194 728 249 856 206 756 b 182 618 188 710 181 636 b 142 610 182 596 146 589 z m 443 331 b 397 536 401 363 396 485 b 447 706 400 594 414 657 b 540 724 467 733 514 743 b 604 585 581 692 597 635 b 601 421 611 531 611 474 b 553 321 593 385 581 344 b 443 331 525 296 472 307 z "},"Ò":{"ha":985,"x_min":0,"x_max":0,"o":"m 546 -36 b 783 75 632 -25 721 14 b 910 321 849 140 886 232 b 883 810 951 479 950 661 b 150 868 749 1113 335 1143 b 68 668 110 808 85 739 b 65 311 42 553 40 428 b 163 92 82 233 113 154 b 286 3 194 53 239 22 b 546 -36 367 -32 458 -47 z m 367 940 b 394 953 349 953 397 975 b 367 940 393 936 381 931 z m 142 610 b 157 725 139 629 151 706 b 188 803 160 736 182 792 b 226 876 199 828 211 853 b 271 915 238 893 256 904 b 299 936 275 919 294 933 b 329 936 307 940 321 943 b 324 913 338 931 333 918 b 272 875 314 908 279 882 b 194 728 249 856 206 756 b 182 618 188 710 181 636 b 142 610 182 596 146 589 z m 443 331 b 397 536 401 363 396 485 b 447 706 400 594 414 657 b 540 724 467 733 514 743 b 604 585 581 692 597 635 b 601 421 611 531 611 474 b 553 321 593 385 581 344 b 443 331 525 296 472 307 z "},"Ó":{"ha":985,"x_min":0,"x_max":0,"o":"m 546 -36 b 783 75 632 -25 721 14 b 910 321 849 140 886 232 b 883 810 951 479 950 661 b 150 868 749 1113 335 1143 b 68 668 110 808 85 739 b 65 311 42 553 40 428 b 163 92 82 233 113 154 b 286 3 194 53 239 22 b 546 -36 367 -32 458 -47 z m 367 940 b 394 953 349 953 397 975 b 367 940 393 936 381 931 z m 142 610 b 157 725 139 629 151 706 b 188 803 160 736 182 792 b 226 876 199 828 211 853 b 271 915 238 893 256 904 b 299 936 275 919 294 933 b 329 936 307 940 321 943 b 324 913 338 931 333 918 b 272 875 314 908 279 882 b 194 728 249 856 206 756 b 182 618 188 710 181 636 b 142 610 182 596 146 589 z m 443 331 b 397 536 401 363 396 485 b 447 706 400 594 414 657 b 540 724 467 733 514 743 b 604 585 581 692 597 635 b 601 421 611 531 611 474 b 553 321 593 385 581 344 b 443 331 525 296 472 307 z "},"Ô":{"ha":985,"x_min":0,"x_max":0,"o":"m 546 -36 b 783 75 632 -25 721 14 b 910 321 849 140 886 232 b 883 810 951 479 950 661 b 150 868 749 1113 335 1143 b 68 668 110 808 85 739 b 65 311 42 553 40 428 b 163 92 82 233 113 154 b 286 3 194 53 239 22 b 546 -36 367 -32 458 -47 z m 367 940 b 394 953 349 953 397 975 b 367 940 393 936 381 931 z m 142 610 b 157 725 139 629 151 706 b 188 803 160 736 182 792 b 226 876 199 828 211 853 b 271 915 238 893 256 904 b 299 936 275 919 294 933 b 329 936 307 940 321 943 b 324 913 338 931 333 918 b 272 875 314 908 279 882 b 194 728 249 856 206 756 b 182 618 188 710 181 636 b 142 610 182 596 146 589 z m 443 331 b 397 536 401 363 396 485 b 447 706 400 594 414 657 b 540 724 467 733 514 743 b 604 585 581 692 597 635 b 601 421 611 531 611 474 b 553 321 593 385 581 344 b 443 331 525 296 472 307 z "},"Õ":{"ha":985,"x_min":0,"x_max":0,"o":"m 546 -36 b 783 75 632 -25 721 14 b 910 321 849 140 886 232 b 883 810 951 479 950 661 b 150 868 749 1113 335 1143 b 68 668 110 808 85 739 b 65 311 42 553 40 428 b 163 92 82 233 113 154 b 286 3 194 53 239 22 b 546 -36 367 -32 458 -47 z m 367 940 b 394 953 349 953 397 975 b 367 940 393 936 381 931 z m 142 610 b 157 725 139 629 151 706 b 188 803 160 736 182 792 b 226 876 199 828 211 853 b 271 915 238 893 256 904 b 299 936 275 919 294 933 b 329 936 307 940 321 943 b 324 913 338 931 333 918 b 272 875 314 908 279 882 b 194 728 249 856 206 756 b 182 618 188 710 181 636 b 142 610 182 596 146 589 z m 443 331 b 397 536 401 363 396 485 b 447 706 400 594 414 657 b 540 724 467 733 514 743 b 604 585 581 692 597 635 b 601 421 611 531 611 474 b 553 321 593 385 581 344 b 443 331 525 296 472 307 z "},"Ö":{"ha":985,"x_min":0,"x_max":0,"o":"m 546 -36 b 783 75 632 -25 721 14 b 910 321 849 140 886 232 b 883 810 951 479 950 661 b 150 868 749 1113 335 1143 b 68 668 110 808 85 739 b 65 311 42 553 40 428 b 163 92 82 233 113 154 b 286 3 194 53 239 22 b 546 -36 367 -32 458 -47 z m 367 940 b 394 953 349 953 397 975 b 367 940 393 936 381 931 z m 142 610 b 157 725 139 629 151 706 b 188 803 160 736 182 792 b 226 876 199 828 211 853 b 271 915 238 893 256 904 b 299 936 275 919 294 933 b 329 936 307 940 321 943 b 324 913 338 931 333 918 b 272 875 314 908 279 882 b 194 728 249 856 206 756 b 182 618 188 710 181 636 b 142 610 182 596 146 589 z m 443 331 b 397 536 401 363 396 485 b 447 706 400 594 414 657 b 540 724 467 733 514 743 b 604 585 581 692 597 635 b 601 421 611 531 611 474 b 553 321 593 385 581 344 b 443 331 525 296 472 307 z "},"Ø":{"ha":985,"x_min":0,"x_max":0,"o":"m 546 -36 b 783 75 632 -25 721 14 b 910 321 849 140 886 232 b 883 810 951 479 950 661 b 150 868 749 1113 335 1143 b 68 668 110 808 85 739 b 65 311 42 553 40 428 b 163 92 82 233 113 154 b 286 3 194 53 239 22 b 546 -36 367 -32 458 -47 z m 367 940 b 394 953 349 953 397 975 b 367 940 393 936 381 931 z m 142 610 b 157 725 139 629 151 706 b 188 803 160 736 182 792 b 226 876 199 828 211 853 b 271 915 238 893 256 904 b 299 936 275 919 294 933 b 329 936 307 940 321 943 b 324 913 338 931 333 918 b 272 875 314 908 279 882 b 194 728 249 856 206 756 b 182 618 188 710 181 636 b 142 610 182 596 146 589 z m 443 331 b 397 536 401 363 396 485 b 447 706 400 594 414 657 b 540 724 467 733 514 743 b 604 585 581 692 597 635 b 601 421 611 531 611 474 b 553 321 593 385 581 344 b 443 331 525 296 472 307 z "},"P":{"ha":1011,"x_min":0,"x_max":0,"o":"m 399 8 b 443 69 418 24 435 46 b 485 332 475 153 478 243 b 761 383 578 332 675 346 b 925 513 825 411 885 456 b 968 801 985 597 1001 704 b 840 971 946 868 899 929 b 688 1038 796 1003 742 1025 b 410 1063 597 1058 503 1065 b 189 1036 335 1060 261 1053 b 74 993 149 1028 107 1017 b 29 903 47 974 35 936 b 43 788 24 864 25 822 b 79 749 51 771 64 757 b 121 740 92 742 107 739 b 143 739 129 740 143 749 b 150 133 147 538 124 333 b 174 40 154 101 157 68 b 260 -19 193 11 226 -11 b 399 8 307 -32 360 -21 z m 324 1007 b 356 1004 325 1033 369 1025 b 324 1007 343 985 322 985 z m 86 819 b 93 921 75 851 78 890 b 182 993 111 954 146 981 b 269 1006 210 1004 240 1007 b 267 978 290 1006 288 979 b 253 979 265 978 254 979 b 111 868 186 978 114 935 b 117 831 110 856 113 842 b 86 819 121 814 90 803 z m 482 633 b 489 756 464 665 464 728 b 514 771 494 763 504 768 b 613 664 576 785 629 726 b 482 633 596 600 514 576 z "},"Q":{"ha":988,"x_min":0,"x_max":0,"o":"m 915 -192 b 892 8 985 -146 951 -50 b 808 103 861 38 835 69 b 911 322 858 165 890 244 b 883 810 951 481 950 661 b 150 868 749 1113 335 1143 b 79 707 117 819 94 764 b 65 317 44 582 39 444 b 157 99 81 239 108 161 b 314 -11 196 49 254 11 b 540 -36 386 -36 465 -44 b 676 -164 576 -87 624 -131 b 828 -212 721 -192 775 -211 b 915 -192 858 -214 890 -208 z m 369 974 b 379 988 369 979 375 983 b 404 975 392 996 410 990 b 369 974 399 958 367 954 z m 135 604 b 138 617 135 608 138 613 b 181 821 143 686 151 758 b 236 900 188 838 222 890 b 290 940 244 907 281 936 b 324 947 300 946 313 946 b 321 919 344 949 342 921 b 304 914 318 918 307 915 b 261 879 299 911 268 883 b 217 817 250 871 222 829 b 186 717 210 801 188 733 b 178 668 185 710 178 674 b 174 614 178 661 174 621 b 157 597 172 606 164 600 b 135 604 149 593 136 596 z m 446 329 b 397 506 410 356 399 461 b 446 704 396 574 408 647 b 535 726 464 732 506 743 b 590 650 563 711 579 679 b 608 514 606 607 608 560 b 594 389 608 472 607 429 b 551 319 586 363 572 336 b 446 329 525 297 474 308 z "},"R":{"ha":1060,"x_min":0,"x_max":0,"o":"m 458 72 b 496 293 485 142 490 218 b 754 28 574 197 651 96 b 857 -8 785 8 821 -10 b 951 54 899 -7 933 17 b 961 142 963 81 965 113 b 922 246 956 178 940 214 b 797 388 890 300 844 346 b 928 469 846 406 892 433 b 1013 757 1003 546 1035 654 b 921 925 1000 819 965 881 b 715 1036 865 981 790 1017 b 304 1054 582 1068 440 1069 b 57 972 244 1047 92 1021 b 58 769 17 919 15 821 b 128 740 75 751 103 736 b 147 738 136 743 147 747 b 153 160 151 544 131 351 b 165 82 156 133 158 108 b 183 36 168 67 174 50 b 236 -8 196 17 215 1 b 458 72 319 -50 425 -15 z m 317 993 b 335 1019 301 1008 314 1022 b 317 993 358 1017 331 978 z m 107 815 b 92 903 94 831 89 883 b 121 957 94 924 108 942 b 169 985 128 965 160 982 b 239 1000 178 988 231 997 b 257 1001 242 1000 256 1001 b 256 974 285 1011 283 976 b 203 960 249 972 210 961 b 156 942 193 958 163 947 b 136 919 151 939 139 924 b 135 850 128 906 129 865 b 142 832 136 847 142 835 b 107 815 144 815 118 801 z m 494 639 b 493 739 479 669 476 710 b 558 771 506 761 531 774 b 604 619 635 765 660 671 b 494 639 569 588 515 596 z "},"S":{"ha":833,"x_min":0,"x_max":0,"o":"m 472 -21 b 644 39 532 -12 594 6 b 754 171 693 69 732 118 b 757 433 789 251 792 353 b 661 544 738 478 704 521 b 457 624 597 582 522 590 b 419 660 444 629 419 644 b 446 679 419 671 435 676 b 528 665 472 683 501 674 b 644 653 564 651 607 644 b 700 679 665 657 685 665 b 632 1021 817 783 781 971 b 347 1044 543 1053 442 1060 b 146 949 274 1033 194 1006 b 135 492 42 828 29 611 b 253 417 165 456 208 429 b 363 383 290 406 326 397 b 414 354 381 376 400 368 b 421 307 425 343 429 319 b 340 301 407 285 365 293 b 207 349 322 308 226 346 b 118 342 178 354 144 354 b 82 307 103 335 90 322 b 76 81 51 254 44 133 b 136 25 90 57 113 39 b 260 -15 174 4 217 -8 b 472 -21 329 -28 401 -31 z m 272 979 b 303 994 274 992 292 1001 b 293 968 314 988 306 974 b 272 979 283 963 271 968 z m 143 686 b 139 807 132 708 136 783 b 193 919 144 849 164 890 b 225 949 203 929 213 940 b 256 942 238 957 258 956 b 242 924 256 933 247 928 b 200 879 233 917 206 888 b 174 707 168 829 163 764 b 143 686 188 689 153 667 z "},"T":{"ha":807,"x_min":0,"x_max":0,"o":"m 507 4 b 546 56 525 17 536 36 b 578 156 561 88 571 121 b 604 367 594 225 601 296 b 599 715 611 482 608 599 b 722 732 640 713 685 715 b 763 761 738 738 751 747 b 749 989 814 819 799 929 b 697 1022 735 1004 715 1015 b 589 1046 663 1035 625 1042 b 449 1056 542 1053 496 1056 b 46 979 343 1057 104 1068 b 21 790 11 925 4 851 b 72 710 29 760 44 726 b 108 696 82 703 94 699 b 240 706 151 689 197 699 b 267 192 238 535 231 360 b 347 17 281 129 303 64 b 507 4 388 -24 463 -31 z m 286 983 b 318 1007 289 1000 304 1015 b 317 981 325 1001 321 989 b 286 983 310 967 285 968 z m 88 786 b 85 799 88 789 86 797 b 81 811 83 803 81 807 b 79 872 79 821 78 864 b 111 950 85 900 93 929 b 201 990 133 975 169 986 b 224 997 210 992 217 994 b 250 986 233 999 246 996 b 226 967 257 974 240 963 b 154 940 218 963 163 946 b 124 897 140 932 132 914 b 119 814 117 879 113 831 b 121 781 122 804 128 788 b 88 786 111 769 90 774 z "},"U":{"ha":963,"x_min":0,"x_max":0,"o":"m 636 18 b 778 119 690 40 740 76 b 896 394 843 196 881 296 b 883 843 918 542 911 696 b 828 978 874 890 857 939 b 639 1014 782 1038 699 1060 b 585 913 608 990 593 950 b 582 557 561 796 579 675 b 563 457 583 524 578 488 b 458 393 544 418 500 381 b 406 449 435 401 415 425 b 392 538 396 476 392 508 b 418 872 392 650 426 761 b 382 983 415 911 406 953 b 161 982 329 1056 226 1043 b 82 832 119 943 94 888 b 58 585 61 751 60 668 b 88 276 56 482 58 375 b 181 107 106 215 136 154 b 369 0 231 56 300 18 b 636 18 457 -22 554 -17 z m 236 969 b 253 946 261 976 264 957 b 236 969 231 924 217 964 z m 107 617 b 111 771 103 639 110 749 b 129 853 111 783 124 840 b 154 896 131 860 150 890 b 194 918 163 910 181 922 b 189 892 208 913 201 894 b 176 876 182 890 179 882 b 160 849 172 867 164 858 b 140 629 135 779 140 703 b 107 617 151 607 111 593 z "},"Ù":{"ha":963,"x_min":0,"x_max":0,"o":"m 636 18 b 778 119 690 40 740 76 b 896 394 843 196 881 296 b 883 843 918 542 911 696 b 828 978 874 890 857 939 b 639 1014 782 1038 699 1060 b 585 913 608 990 593 950 b 582 557 561 796 579 675 b 563 457 583 524 578 488 b 458 393 544 418 500 381 b 406 449 435 401 415 425 b 392 538 396 476 392 508 b 418 872 392 650 426 761 b 382 983 415 911 406 953 b 161 982 329 1056 226 1043 b 82 832 119 943 94 888 b 58 585 61 751 60 668 b 88 276 56 482 58 375 b 181 107 106 215 136 154 b 369 0 231 56 300 18 b 636 18 457 -22 554 -17 z m 236 969 b 253 946 261 976 264 957 b 236 969 231 924 217 964 z m 107 617 b 111 771 103 639 110 749 b 129 853 111 783 124 840 b 154 896 131 860 150 890 b 194 918 163 910 181 922 b 189 892 208 913 201 894 b 176 876 182 890 179 882 b 160 849 172 867 164 858 b 140 629 135 779 140 703 b 107 617 151 607 111 593 z "},"Ú":{"ha":963,"x_min":0,"x_max":0,"o":"m 636 18 b 778 119 690 40 740 76 b 896 394 843 196 881 296 b 883 843 918 542 911 696 b 828 978 874 890 857 939 b 639 1014 782 1038 699 1060 b 585 913 608 990 593 950 b 582 557 561 796 579 675 b 563 457 583 524 578 488 b 458 393 544 418 500 381 b 406 449 435 401 415 425 b 392 538 396 476 392 508 b 418 872 392 650 426 761 b 382 983 415 911 406 953 b 161 982 329 1056 226 1043 b 82 832 119 943 94 888 b 58 585 61 751 60 668 b 88 276 56 482 58 375 b 181 107 106 215 136 154 b 369 0 231 56 300 18 b 636 18 457 -22 554 -17 z m 236 969 b 253 946 261 976 264 957 b 236 969 231 924 217 964 z m 107 617 b 111 771 103 639 110 749 b 129 853 111 783 124 840 b 154 896 131 860 150 890 b 194 918 163 910 181 922 b 189 892 208 913 201 894 b 176 876 182 890 179 882 b 160 849 172 867 164 858 b 140 629 135 779 140 703 b 107 617 151 607 111 593 z "},"Û":{"ha":963,"x_min":0,"x_max":0,"o":"m 636 18 b 778 119 690 40 740 76 b 896 394 843 196 881 296 b 883 843 918 542 911 696 b 828 978 874 890 857 939 b 639 1014 782 1038 699 1060 b 585 913 608 990 593 950 b 582 557 561 796 579 675 b 563 457 583 524 578 488 b 458 393 544 418 500 381 b 406 449 435 401 415 425 b 392 538 396 476 392 508 b 418 872 392 650 426 761 b 382 983 415 911 406 953 b 161 982 329 1056 226 1043 b 82 832 119 943 94 888 b 58 585 61 751 60 668 b 88 276 56 482 58 375 b 181 107 106 215 136 154 b 369 0 231 56 300 18 b 636 18 457 -22 554 -17 z m 236 969 b 253 946 261 976 264 957 b 236 969 231 924 217 964 z m 107 617 b 111 771 103 639 110 749 b 129 853 111 783 124 840 b 154 896 131 860 150 890 b 194 918 163 910 181 922 b 189 892 208 913 201 894 b 176 876 182 890 179 882 b 160 849 172 867 164 858 b 140 629 135 779 140 703 b 107 617 151 607 111 593 z "},"Ü":{"ha":963,"x_min":0,"x_max":0,"o":"m 636 18 b 778 119 690 40 740 76 b 896 394 843 196 881 296 b 883 843 918 542 911 696 b 828 978 874 890 857 939 b 639 1014 782 1038 699 1060 b 585 913 608 990 593 950 b 582 557 561 796 579 675 b 563 457 583 524 578 488 b 458 393 544 418 500 381 b 406 449 435 401 415 425 b 392 538 396 476 392 508 b 418 872 392 650 426 761 b 382 983 415 911 406 953 b 161 982 329 1056 226 1043 b 82 832 119 943 94 888 b 58 585 61 751 60 668 b 88 276 56 482 58 375 b 181 107 106 215 136 154 b 369 0 231 56 300 18 b 636 18 457 -22 554 -17 z m 236 969 b 253 946 261 976 264 957 b 236 969 231 924 217 964 z m 107 617 b 111 771 103 639 110 749 b 129 853 111 783 124 840 b 154 896 131 860 150 890 b 194 918 163 910 181 922 b 189 892 208 913 201 894 b 176 876 182 890 179 882 b 160 849 172 867 164 858 b 140 629 135 779 140 703 b 107 617 151 607 111 593 z "},"V":{"ha":957,"x_min":0,"x_max":0,"o":"m 506 1 b 650 89 561 14 613 47 b 719 193 679 119 699 157 b 863 517 776 296 824 406 b 919 746 888 592 911 668 b 924 826 924 774 924 800 b 903 961 924 872 924 921 b 725 1013 871 1024 789 1042 b 639 940 690 997 661 969 b 560 783 603 893 578 839 b 478 447 524 674 499 561 b 433 654 467 517 451 586 b 358 874 414 729 392 804 b 293 976 340 910 321 946 b 207 1025 271 1001 240 1022 b 88 981 164 1029 118 1010 b 58 615 13 915 36 713 b 290 99 103 432 176 249 b 396 11 318 63 353 28 b 506 1 429 -3 469 -6 z m 125 953 b 160 961 131 967 151 971 b 149 935 168 951 161 938 b 125 953 136 931 121 940 z m 156 521 b 144 533 153 522 146 531 b 114 615 135 561 126 589 b 86 769 101 640 86 743 b 94 869 86 803 86 838 b 99 888 96 875 96 882 b 126 876 113 908 144 894 b 121 851 124 872 121 857 b 119 754 118 836 118 769 b 146 632 122 735 139 650 b 185 538 160 601 171 569 b 156 521 190 522 165 508 z "},"W":{"ha":1281,"x_min":0,"x_max":0,"o":"m 454 10 b 540 106 492 31 518 68 b 642 372 588 189 614 282 b 792 39 675 256 711 131 b 1008 42 847 -24 944 -14 b 1138 244 1069 93 1111 168 b 1233 785 1199 417 1221 603 b 1224 929 1236 833 1235 883 b 1183 1006 1215 957 1204 986 b 1031 993 1142 1046 1074 1032 b 972 910 1006 971 988 940 b 918 760 949 863 933 811 b 861 514 896 679 878 596 b 721 847 822 628 790 749 b 679 881 711 863 696 875 b 607 876 657 889 629 886 b 543 819 581 865 557 843 b 422 514 488 725 456 618 b 358 776 403 601 383 690 b 276 964 340 842 318 910 b 211 1021 260 988 238 1010 b 125 1014 185 1032 150 1029 b 67 911 93 992 76 950 b 49 721 50 850 47 785 b 106 333 50 590 67 458 b 226 92 132 247 171 163 b 356 -3 260 49 304 11 b 454 10 388 -11 425 -7 z m 178 935 b 207 947 161 947 208 969 b 178 935 204 931 193 925 z m 142 525 b 139 531 142 528 140 529 b 96 732 122 561 99 697 b 117 892 92 765 99 864 b 143 878 132 915 165 893 b 133 742 132 833 128 788 b 151 644 135 731 150 657 b 161 592 153 638 158 599 b 174 528 165 578 178 540 b 142 525 168 513 144 510 z "},"X":{"ha":894,"x_min":0,"x_max":0,"o":"m 175 -39 b 290 21 219 -37 258 -8 b 435 193 346 71 389 133 b 654 -8 501 119 571 46 b 829 24 708 -44 789 -29 b 849 85 842 40 849 64 b 826 188 850 119 839 154 b 746 332 806 238 776 286 b 649 482 714 382 681 432 b 747 619 682 528 715 574 b 833 768 781 667 814 714 b 844 881 846 804 851 843 b 790 972 839 915 818 950 b 678 1004 758 996 717 1007 b 546 936 629 1000 581 971 b 431 804 504 894 467 850 b 329 935 400 850 369 896 b 226 996 300 963 265 988 b 128 979 193 1003 156 997 b 57 883 93 958 68 921 b 68 719 40 831 46 769 b 213 474 106 632 158 553 b 61 133 151 365 92 254 b 110 -10 50 85 72 25 b 175 -39 126 -26 151 -39 z m 181 936 b 175 904 201 933 196 906 b 181 936 150 903 156 939 z m 211 589 b 199 603 210 592 201 600 b 186 624 196 606 188 621 b 168 647 185 628 171 644 b 147 685 160 658 154 672 b 108 792 131 718 119 756 b 110 835 107 799 110 828 b 149 881 113 860 128 894 b 149 861 154 875 154 867 b 143 844 144 857 144 850 b 142 801 142 838 139 808 b 192 682 146 782 182 699 b 240 611 197 672 235 619 b 243 592 243 607 244 596 b 211 589 238 576 214 574 z "},"Y":{"ha":900,"x_min":0,"x_max":0,"o":"m 481 -14 b 529 49 503 -1 519 24 b 594 494 553 117 592 424 b 808 667 671 546 750 597 b 867 753 831 693 851 722 b 786 1000 911 838 874 956 b 699 1013 760 1014 729 1018 b 632 981 675 1008 651 996 b 438 776 558 922 496 850 b 292 992 419 814 321 961 b 199 1043 267 1017 233 1036 b 13 910 110 1057 26 997 b 22 825 8 882 13 851 b 119 668 42 767 81 717 b 256 510 163 614 208 561 b 268 203 247 408 253 304 b 300 64 274 156 282 108 b 325 17 306 47 314 31 b 481 -14 358 -25 433 -42 z m 143 968 b 146 979 144 971 144 975 b 178 971 157 994 185 989 b 143 968 171 951 139 947 z m 179 675 b 174 681 178 676 175 678 b 119 744 163 689 126 733 b 69 854 107 764 71 832 b 93 944 67 879 72 931 b 115 928 108 957 129 942 b 104 857 103 914 100 875 b 146 774 113 826 131 800 b 188 718 157 754 172 735 b 211 688 193 713 211 696 b 179 675 214 671 186 660 z "},"Ý":{"ha":900,"x_min":0,"x_max":0,"o":"m 481 -14 b 529 49 503 -1 519 24 b 594 494 553 117 592 424 b 808 667 671 546 750 597 b 867 753 831 693 851 722 b 786 1000 911 838 874 956 b 699 1013 760 1014 729 1018 b 632 981 675 1008 651 996 b 438 776 558 922 496 850 b 292 992 419 814 321 961 b 199 1043 267 1017 233 1036 b 13 910 110 1057 26 997 b 22 825 8 882 13 851 b 119 668 42 767 81 717 b 256 510 163 614 208 561 b 268 203 247 408 253 304 b 300 64 274 156 282 108 b 325 17 306 47 314 31 b 481 -14 358 -25 433 -42 z m 143 968 b 146 979 144 971 144 975 b 178 971 157 994 185 989 b 143 968 171 951 139 947 z m 179 675 b 174 681 178 676 175 678 b 119 744 163 689 126 733 b 69 854 107 764 71 832 b 93 944 67 879 72 931 b 115 928 108 957 129 942 b 104 857 103 914 100 875 b 146 774 113 826 131 800 b 188 718 157 754 172 735 b 211 688 193 713 211 696 b 179 675 214 671 186 660 z "},"Ÿ":{"ha":900,"x_min":0,"x_max":0,"o":"m 481 -14 b 529 49 503 -1 519 24 b 594 494 553 117 592 424 b 808 667 671 546 750 597 b 867 753 831 693 851 722 b 786 1000 911 838 874 956 b 699 1013 760 1014 729 1018 b 632 981 675 1008 651 996 b 438 776 558 922 496 850 b 292 992 419 814 321 961 b 199 1043 267 1017 233 1036 b 13 910 110 1057 26 997 b 22 825 8 882 13 851 b 119 668 42 767 81 717 b 256 510 163 614 208 561 b 268 203 247 408 253 304 b 300 64 274 156 282 108 b 325 17 306 47 314 31 b 481 -14 358 -25 433 -42 z m 143 968 b 146 979 144 971 144 975 b 178 971 157 994 185 989 b 143 968 171 951 139 947 z m 179 675 b 174 681 178 676 175 678 b 119 744 163 689 126 733 b 69 854 107 764 71 832 b 93 944 67 879 72 931 b 115 928 108 957 129 942 b 104 857 103 914 100 875 b 146 774 113 826 131 800 b 188 718 157 754 172 735 b 211 688 193 713 211 696 b 179 675 214 671 186 660 z "},"Z":{"ha":878,"x_min":0,"x_max":0,"o":"m 632 -26 b 782 22 683 -22 742 -12 b 821 89 801 39 814 64 b 789 283 836 143 831 247 b 703 310 765 303 732 310 b 521 293 642 311 582 293 b 632 468 550 356 592 411 b 754 654 675 528 718 589 b 821 822 783 707 808 764 b 828 906 826 850 831 878 b 806 963 826 925 819 947 b 757 996 793 978 775 988 b 521 1054 683 1031 601 1043 b 228 1057 424 1065 325 1071 b 101 1015 183 1051 138 1042 b 32 882 61 985 35 935 b 82 758 29 838 49 788 b 167 721 106 738 136 725 b 450 721 260 706 357 742 b 326 539 418 654 372 596 b 93 221 243 436 153 338 b 58 103 74 185 58 144 b 85 31 58 78 67 50 b 158 -12 103 10 131 -4 b 247 -28 188 -22 217 -25 b 442 -32 313 -32 376 -32 b 632 -26 506 -32 568 -32 z m 97 869 b 101 896 96 875 100 890 b 163 978 111 929 132 963 b 213 1000 179 986 194 996 b 339 999 240 1006 315 1015 b 315 972 354 989 333 968 b 200 957 292 978 222 968 b 158 928 185 950 168 942 b 138 892 150 917 142 904 b 132 869 135 885 136 876 b 97 869 124 857 104 856 z m 419 1007 b 419 976 443 1008 442 978 b 419 1007 394 975 394 1006 z "},"[":{"ha":615,"x_min":0,"x_max":0,"o":"m 525 -99 b 563 -7 551 -79 561 -40 b 557 58 563 15 561 38 b 535 93 553 72 546 85 b 499 111 524 101 511 107 b 411 143 485 117 422 135 b 388 249 390 160 389 222 b 382 557 385 351 385 454 b 385 767 379 626 385 697 b 392 875 385 803 383 840 b 400 899 393 883 396 892 b 429 915 404 906 422 914 b 533 949 442 921 519 943 b 586 988 553 956 575 968 b 578 1113 606 1024 597 1076 b 535 1151 568 1129 553 1144 b 486 1161 519 1158 503 1161 b 400 1157 457 1164 428 1160 b 243 1125 347 1150 294 1138 b 226 1119 240 1124 228 1119 b 118 1089 190 1113 149 1111 b 89 1042 104 1078 93 1060 b 79 971 83 1018 81 994 b 81 775 75 906 75 840 b 93 546 86 699 93 622 b 83 83 94 392 94 238 b 81 11 83 75 81 21 b 90 -35 81 -4 81 -22 b 261 -104 114 -69 221 -97 b 525 -99 319 -115 476 -133 z m 218 1075 b 240 1076 224 1079 235 1081 b 226 1050 253 1068 240 1051 b 218 1075 211 1049 206 1067 z m 126 696 b 121 735 121 701 121 728 b 117 925 115 765 113 894 b 138 1010 121 954 126 983 b 160 1042 142 1022 151 1033 b 192 1046 168 1050 183 1056 b 181 1022 199 1038 190 1025 b 169 1008 176 1022 171 1013 b 157 708 142 954 147 768 b 126 696 160 694 136 685 z "},"\\":{"ha":626,"x_min":0,"x_max":0,"o":"m 439 -83 b 565 36 500 -79 558 -24 b 560 243 572 104 568 175 b 493 588 546 358 519 474 b 367 978 463 721 426 854 b 267 1078 346 1021 308 1058 b 190 1096 243 1089 217 1096 b 65 1022 139 1096 90 1068 b 42 936 50 996 43 965 b 65 796 40 889 53 842 b 263 129 129 574 190 349 b 319 -4 278 83 294 38 b 389 -74 338 -32 360 -60 b 439 -83 404 -82 422 -85 z m 107 988 b 144 999 111 1003 135 1011 b 139 974 151 992 147 979 b 107 988 124 963 103 971 z m 160 611 b 146 649 153 617 149 642 b 124 701 140 667 131 683 b 89 824 108 742 96 782 b 93 922 86 844 82 904 b 121 910 107 943 138 928 b 118 849 111 900 117 863 b 174 667 121 785 150 726 b 186 626 175 661 185 632 b 160 611 190 614 171 604 z "},"]":{"ha":615,"x_min":0,"x_max":0,"o":"m 247 -118 b 518 -42 308 -112 478 -86 b 533 46 539 -21 535 17 b 522 614 522 235 514 425 b 535 785 525 671 531 728 b 519 1057 539 835 540 1013 b 496 1089 514 1069 506 1081 b 447 1110 482 1100 464 1106 b 372 1125 422 1115 396 1118 b 203 1158 317 1138 260 1151 b 65 1143 157 1163 103 1169 b 24 997 24 1117 6 1043 b 82 949 32 974 58 957 b 211 901 103 940 194 918 b 229 768 233 881 229 799 b 233 590 229 747 233 613 b 225 232 233 544 228 276 b 211 151 225 204 224 175 b 132 118 201 136 150 124 b 79 93 114 111 94 104 b 57 57 68 85 61 71 b 53 -1 53 38 51 18 b 61 -61 53 -22 54 -43 b 89 -99 67 -76 76 -89 b 147 -117 106 -110 126 -115 b 247 -118 181 -119 214 -119 z m 64 1019 b 96 1110 57 1050 69 1092 b 139 1124 103 1114 131 1122 b 136 1094 164 1126 161 1090 b 122 1090 133 1094 125 1090 b 114 1088 119 1089 117 1090 b 96 1032 99 1076 94 1051 b 97 1021 96 1028 97 1025 b 92 1010 97 1017 94 1014 b 64 1019 81 993 58 1000 z m 186 1118 b 210 1101 200 1128 219 1117 b 186 1118 196 1079 164 1101 z "},"^":{"ha":529,"x_min":0,"x_max":0,"o":"m 169 660 b 274 764 211 686 244 724 b 354 674 299 732 322 699 b 481 674 394 643 453 632 b 481 763 496 699 492 735 b 349 993 465 803 376 960 b 269 1036 329 1015 300 1038 b 207 1008 247 1036 225 1024 b 138 924 178 986 157 954 b 43 672 101 869 21 733 b 92 638 49 653 71 640 b 169 660 118 633 147 646 z m 247 971 b 261 999 219 975 235 1008 b 247 971 276 992 265 969 z m 106 804 b 167 915 108 825 156 897 b 199 954 171 924 192 950 b 214 932 219 969 236 943 b 186 896 206 929 192 903 b 147 828 172 874 158 851 b 133 797 144 824 136 801 b 106 804 124 788 104 790 z "},"_":{"ha":857,"x_min":0,"x_max":0,"o":"m 672 -182 b 767 -158 704 -179 739 -175 b 838 -42 807 -133 833 -89 b 817 42 840 -12 833 18 b 750 82 801 63 775 78 b 443 101 708 89 486 101 b 194 97 361 104 278 104 b 85 75 157 94 117 93 b 47 -121 14 35 -6 -58 b 125 -164 67 -143 96 -156 b 294 -183 179 -181 238 -182 b 672 -182 346 -185 622 -187 z m 211 63 b 193 33 224 53 208 33 b 211 63 164 33 188 79 z m 74 -78 b 65 -42 67 -72 65 -50 b 83 17 65 -21 68 3 b 147 44 99 33 128 57 b 139 19 157 38 151 24 b 106 -6 131 17 110 4 b 99 -53 99 -19 99 -36 b 101 -65 99 -57 100 -61 b 74 -78 101 -78 82 -86 z "},"a":{"ha":775,"x_min":0,"x_max":0,"o":"m 357 1 b 483 74 404 11 450 39 b 583 3 504 39 543 6 b 664 40 614 0 644 15 b 694 106 678 60 686 82 b 719 240 708 149 715 194 b 726 540 728 340 740 442 b 649 724 718 606 694 675 b 506 806 611 764 558 792 b 146 686 375 838 231 790 b 76 563 115 649 93 607 b 39 279 42 474 31 374 b 108 99 44 215 68 149 b 217 15 136 63 175 32 b 357 1 260 -3 311 -8 z m 356 729 b 367 758 340 736 349 758 b 356 729 396 761 383 718 z m 121 492 b 178 640 124 519 163 617 b 197 663 182 650 190 656 b 219 689 206 671 211 682 b 285 725 229 699 271 722 b 285 696 313 733 314 693 b 240 665 276 692 246 672 b 214 636 232 656 224 644 b 174 549 200 624 179 565 b 160 496 171 540 160 504 b 121 492 160 471 118 468 z m 306 417 b 393 539 307 464 347 528 b 497 453 447 554 494 508 b 461 351 499 417 482 381 b 432 324 453 340 443 331 b 306 417 371 288 303 346 z "},"à":{"ha":775,"x_min":0,"x_max":0,"o":"m 357 1 b 483 74 404 11 450 39 b 583 3 504 39 543 6 b 664 40 614 0 644 15 b 694 106 678 60 686 82 b 719 240 708 149 715 194 b 726 540 728 340 740 442 b 649 724 718 606 694 675 b 506 806 611 764 558 792 b 146 686 375 838 231 790 b 76 563 115 649 93 607 b 39 279 42 474 31 374 b 108 99 44 215 68 149 b 217 15 136 63 175 32 b 357 1 260 -3 311 -8 z m 356 729 b 367 758 340 736 349 758 b 356 729 396 761 383 718 z m 121 492 b 178 640 124 519 163 617 b 197 663 182 650 190 656 b 219 689 206 671 211 682 b 285 725 229 699 271 722 b 285 696 313 733 314 693 b 240 665 276 692 246 672 b 214 636 232 656 224 644 b 174 549 200 624 179 565 b 160 496 171 540 160 504 b 121 492 160 471 118 468 z m 306 417 b 393 539 307 464 347 528 b 497 453 447 554 494 508 b 461 351 499 417 482 381 b 432 324 453 340 443 331 b 306 417 371 288 303 346 z "},"á":{"ha":775,"x_min":0,"x_max":0,"o":"m 357 1 b 483 74 404 11 450 39 b 583 3 504 39 543 6 b 664 40 614 0 644 15 b 694 106 678 60 686 82 b 719 240 708 149 715 194 b 726 540 728 340 740 442 b 649 724 718 606 694 675 b 506 806 611 764 558 792 b 146 686 375 838 231 790 b 76 563 115 649 93 607 b 39 279 42 474 31 374 b 108 99 44 215 68 149 b 217 15 136 63 175 32 b 357 1 260 -3 311 -8 z m 356 729 b 367 758 340 736 349 758 b 356 729 396 761 383 718 z m 121 492 b 178 640 124 519 163 617 b 197 663 182 650 190 656 b 219 689 206 671 211 682 b 285 725 229 699 271 722 b 285 696 313 733 314 693 b 240 665 276 692 246 672 b 214 636 232 656 224 644 b 174 549 200 624 179 565 b 160 496 171 540 160 504 b 121 492 160 471 118 468 z m 306 417 b 393 539 307 464 347 528 b 497 453 447 554 494 508 b 461 351 499 417 482 381 b 432 324 453 340 443 331 b 306 417 371 288 303 346 z "},"â":{"ha":775,"x_min":0,"x_max":0,"o":"m 357 1 b 483 74 404 11 450 39 b 583 3 504 39 543 6 b 664 40 614 0 644 15 b 694 106 678 60 686 82 b 719 240 708 149 715 194 b 726 540 728 340 740 442 b 649 724 718 606 694 675 b 506 806 611 764 558 792 b 146 686 375 838 231 790 b 76 563 115 649 93 607 b 39 279 42 474 31 374 b 108 99 44 215 68 149 b 217 15 136 63 175 32 b 357 1 260 -3 311 -8 z m 356 729 b 367 758 340 736 349 758 b 356 729 396 761 383 718 z m 121 492 b 178 640 124 519 163 617 b 197 663 182 650 190 656 b 219 689 206 671 211 682 b 285 725 229 699 271 722 b 285 696 313 733 314 693 b 240 665 276 692 246 672 b 214 636 232 656 224 644 b 174 549 200 624 179 565 b 160 496 171 540 160 504 b 121 492 160 471 118 468 z m 306 417 b 393 539 307 464 347 528 b 497 453 447 554 494 508 b 461 351 499 417 482 381 b 432 324 453 340 443 331 b 306 417 371 288 303 346 z "},"ã":{"ha":775,"x_min":0,"x_max":0,"o":"m 357 1 b 483 74 404 11 450 39 b 583 3 504 39 543 6 b 664 40 614 0 644 15 b 694 106 678 60 686 82 b 719 240 708 149 715 194 b 726 540 728 340 740 442 b 649 724 718 606 694 675 b 506 806 611 764 558 792 b 146 686 375 838 231 790 b 76 563 115 649 93 607 b 39 279 42 474 31 374 b 108 99 44 215 68 149 b 217 15 136 63 175 32 b 357 1 260 -3 311 -8 z m 356 729 b 367 758 340 736 349 758 b 356 729 396 761 383 718 z m 121 492 b 178 640 124 519 163 617 b 197 663 182 650 190 656 b 219 689 206 671 211 682 b 285 725 229 699 271 722 b 285 696 313 733 314 693 b 240 665 276 692 246 672 b 214 636 232 656 224 644 b 174 549 200 624 179 565 b 160 496 171 540 160 504 b 121 492 160 471 118 468 z m 306 417 b 393 539 307 464 347 528 b 497 453 447 554 494 508 b 461 351 499 417 482 381 b 432 324 453 340 443 331 b 306 417 371 288 303 346 z "},"ä":{"ha":775,"x_min":0,"x_max":0,"o":"m 357 1 b 483 74 404 11 450 39 b 583 3 504 39 543 6 b 664 40 614 0 644 15 b 694 106 678 60 686 82 b 719 240 708 149 715 194 b 726 540 728 340 740 442 b 649 724 718 606 694 675 b 506 806 611 764 558 792 b 146 686 375 838 231 790 b 76 563 115 649 93 607 b 39 279 42 474 31 374 b 108 99 44 215 68 149 b 217 15 136 63 175 32 b 357 1 260 -3 311 -8 z m 356 729 b 367 758 340 736 349 758 b 356 729 396 761 383 718 z m 121 492 b 178 640 124 519 163 617 b 197 663 182 650 190 656 b 219 689 206 671 211 682 b 285 725 229 699 271 722 b 285 696 313 733 314 693 b 240 665 276 692 246 672 b 214 636 232 656 224 644 b 174 549 200 624 179 565 b 160 496 171 540 160 504 b 121 492 160 471 118 468 z m 306 417 b 393 539 307 464 347 528 b 497 453 447 554 494 508 b 461 351 499 417 482 381 b 432 324 453 340 443 331 b 306 417 371 288 303 346 z "},"å":{"ha":775,"x_min":0,"x_max":0,"o":"m 357 1 b 483 74 404 11 450 39 b 583 3 504 39 543 6 b 664 40 614 0 644 15 b 694 106 678 60 686 82 b 719 240 708 149 715 194 b 726 540 728 340 740 442 b 649 724 718 606 694 675 b 506 806 611 764 558 792 b 146 686 375 838 231 790 b 76 563 115 649 93 607 b 39 279 42 474 31 374 b 108 99 44 215 68 149 b 217 15 136 63 175 32 b 357 1 260 -3 311 -8 z m 356 729 b 367 758 340 736 349 758 b 356 729 396 761 383 718 z m 121 492 b 178 640 124 519 163 617 b 197 663 182 650 190 656 b 219 689 206 671 211 682 b 285 725 229 699 271 722 b 285 696 313 733 314 693 b 240 665 276 692 246 672 b 214 636 232 656 224 644 b 174 549 200 624 179 565 b 160 496 171 540 160 504 b 121 492 160 471 118 468 z m 306 417 b 393 539 307 464 347 528 b 497 453 447 554 494 508 b 461 351 499 417 482 381 b 432 324 453 340 443 331 b 306 417 371 288 303 346 z "},"b":{"ha":867,"x_min":0,"x_max":0,"o":"m 586 -19 b 686 49 622 -4 657 19 b 793 206 732 92 771 147 b 788 619 844 335 842 493 b 690 753 767 671 733 719 b 588 803 661 776 625 794 b 397 756 524 817 454 788 b 396 926 401 813 406 871 b 357 1011 389 957 378 988 b 283 1053 338 1032 311 1049 b 94 875 189 1072 119 968 b 72 271 44 681 46 471 b 135 67 82 200 101 129 b 204 -17 153 35 175 3 b 268 -36 222 -29 246 -37 b 339 -8 293 -35 318 -22 b 586 -19 413 -44 510 -51 z m 265 1004 b 276 981 281 1008 290 990 b 265 1004 249 961 232 996 z m 121 708 b 132 819 121 746 126 783 b 192 951 138 851 165 933 b 206 928 215 968 235 935 b 197 917 203 926 199 919 b 164 822 186 903 167 840 b 153 731 158 792 154 761 b 154 703 153 726 156 707 b 121 708 147 683 114 689 z m 392 343 b 440 540 376 404 386 508 b 496 543 458 551 478 553 b 544 356 550 514 557 415 b 506 286 539 329 526 303 b 392 343 463 251 406 289 z "},"c":{"ha":735,"x_min":0,"x_max":0,"o":"m 539 6 b 653 82 582 21 624 47 b 690 151 669 103 683 126 b 626 315 708 214 686 293 b 569 314 608 322 588 322 b 485 281 557 310 497 283 b 386 290 453 274 417 278 b 317 467 324 315 297 401 b 436 554 333 519 382 568 b 578 524 483 543 529 517 b 675 699 656 536 696 622 b 354 860 643 821 479 878 b 219 808 307 854 260 835 b 96 665 168 774 125 722 b 43 292 39 554 22 417 b 146 94 56 219 93 147 b 354 -10 201 40 278 6 b 539 6 415 -21 482 -17 z m 389 789 b 415 811 376 806 401 821 b 389 789 435 799 400 776 z m 168 649 b 201 717 169 663 193 706 b 244 764 214 735 229 750 b 303 796 253 774 290 793 b 326 799 310 799 318 799 b 351 789 336 800 350 799 b 332 769 353 778 342 771 b 281 750 314 768 297 760 b 204 651 256 735 208 681 b 168 649 201 629 165 626 z "},"ç":{"ha":735,"x_min":0,"x_max":0,"o":"m 539 6 b 653 82 582 21 624 47 b 690 151 669 103 683 126 b 626 315 708 214 686 293 b 569 314 608 322 588 322 b 485 281 557 310 497 283 b 386 290 453 274 417 278 b 317 467 324 315 297 401 b 436 554 333 519 382 568 b 578 524 483 543 529 517 b 675 699 656 536 696 622 b 354 860 643 821 479 878 b 219 808 307 854 260 835 b 96 665 168 774 125 722 b 43 292 39 554 22 417 b 146 94 56 219 93 147 b 354 -10 201 40 278 6 b 539 6 415 -21 482 -17 z m 389 789 b 415 811 376 806 401 821 b 389 789 435 799 400 776 z m 168 649 b 201 717 169 663 193 706 b 244 764 214 735 229 750 b 303 796 253 774 290 793 b 326 799 310 799 318 799 b 351 789 336 800 350 799 b 332 769 353 778 342 771 b 281 750 314 768 297 760 b 204 651 256 735 208 681 b 168 649 201 629 165 626 z "},"d":{"ha":867,"x_min":0,"x_max":0,"o":"m 526 -8 b 664 -36 568 -29 617 -40 b 746 -4 693 -33 724 -24 b 785 53 764 10 778 31 b 792 158 796 86 794 124 b 781 544 783 286 779 415 b 806 874 783 654 789 765 b 803 950 810 899 810 925 b 758 1014 794 974 779 997 b 544 999 699 1061 599 1051 b 493 922 522 978 506 950 b 468 756 472 869 464 811 b 288 804 414 785 350 813 b 204 774 258 800 231 789 b 90 646 156 744 117 697 b 43 318 40 547 26 428 b 99 150 51 260 69 201 b 285 -22 142 78 207 8 b 526 -8 360 -51 454 -43 z m 357 754 b 372 728 376 763 390 740 b 357 754 342 706 322 738 z m 132 500 b 128 536 126 507 128 529 b 136 564 128 540 135 560 b 182 672 146 601 161 639 b 228 715 193 690 210 704 b 290 735 242 725 275 740 b 281 706 310 728 301 703 b 268 703 276 707 272 704 b 219 668 250 696 233 682 b 181 590 210 657 185 604 b 167 515 171 567 167 540 b 132 500 167 499 143 489 z m 369 281 b 319 369 339 296 324 336 b 379 547 310 432 319 526 b 426 540 394 551 413 549 b 475 347 476 507 489 406 b 369 281 463 296 415 256 z "},"e":{"ha":742,"x_min":0,"x_max":0,"o":"m 517 -8 b 624 47 556 1 593 22 b 672 111 644 64 664 86 b 614 290 690 176 678 265 b 554 292 596 297 574 296 b 411 267 506 285 460 268 b 344 285 388 265 361 269 b 319 339 329 299 322 319 b 410 317 347 324 379 318 b 544 333 456 314 501 322 b 617 369 571 340 596 351 b 700 551 668 411 696 485 b 663 710 703 606 692 664 b 583 779 643 739 614 761 b 394 828 528 813 460 831 b 196 751 324 824 251 796 b 56 538 126 699 78 622 b 51 232 31 439 26 331 b 135 75 67 175 94 118 b 276 -11 174 35 224 4 b 517 -8 353 -35 439 -29 z m 368 761 b 392 783 351 772 375 794 b 368 761 408 772 385 749 z m 125 565 b 175 663 126 588 161 646 b 225 714 182 671 217 708 b 246 728 228 715 243 725 b 283 747 257 736 271 742 b 313 749 290 750 307 753 b 296 722 326 739 311 719 b 286 719 294 724 288 719 b 267 710 279 717 272 714 b 254 701 263 706 258 703 b 182 622 236 692 193 639 b 158 564 171 604 165 583 b 125 565 151 547 124 546 z m 369 539 b 425 597 378 564 403 583 b 497 538 467 622 521 581 b 442 489 485 515 465 496 b 369 539 403 478 358 500 z "},"è":{"ha":742,"x_min":0,"x_max":0,"o":"m 517 -8 b 624 47 556 1 593 22 b 672 111 644 64 664 86 b 614 290 690 176 678 265 b 554 292 596 297 574 296 b 411 267 506 285 460 268 b 344 285 388 265 361 269 b 319 339 329 299 322 319 b 410 317 347 324 379 318 b 544 333 456 314 501 322 b 617 369 571 340 596 351 b 700 551 668 411 696 485 b 663 710 703 606 692 664 b 583 779 643 739 614 761 b 394 828 528 813 460 831 b 196 751 324 824 251 796 b 56 538 126 699 78 622 b 51 232 31 439 26 331 b 135 75 67 175 94 118 b 276 -11 174 35 224 4 b 517 -8 353 -35 439 -29 z m 368 761 b 392 783 351 772 375 794 b 368 761 408 772 385 749 z m 125 565 b 175 663 126 588 161 646 b 225 714 182 671 217 708 b 246 728 228 715 243 725 b 283 747 257 736 271 742 b 313 749 290 750 307 753 b 296 722 326 739 311 719 b 286 719 294 724 288 719 b 267 710 279 717 272 714 b 254 701 263 706 258 703 b 182 622 236 692 193 639 b 158 564 171 604 165 583 b 125 565 151 547 124 546 z m 369 539 b 425 597 378 564 403 583 b 497 538 467 622 521 581 b 442 489 485 515 465 496 b 369 539 403 478 358 500 z "},"é":{"ha":742,"x_min":0,"x_max":0,"o":"m 517 -8 b 624 47 556 1 593 22 b 672 111 644 64 664 86 b 614 290 690 176 678 265 b 554 292 596 297 574 296 b 411 267 506 285 460 268 b 344 285 388 265 361 269 b 319 339 329 299 322 319 b 410 317 347 324 379 318 b 544 333 456 314 501 322 b 617 369 571 340 596 351 b 700 551 668 411 696 485 b 663 710 703 606 692 664 b 583 779 643 739 614 761 b 394 828 528 813 460 831 b 196 751 324 824 251 796 b 56 538 126 699 78 622 b 51 232 31 439 26 331 b 135 75 67 175 94 118 b 276 -11 174 35 224 4 b 517 -8 353 -35 439 -29 z m 368 761 b 392 783 351 772 375 794 b 368 761 408 772 385 749 z m 125 565 b 175 663 126 588 161 646 b 225 714 182 671 217 708 b 246 728 228 715 243 725 b 283 747 257 736 271 742 b 313 749 290 750 307 753 b 296 722 326 739 311 719 b 286 719 294 724 288 719 b 267 710 279 717 272 714 b 254 701 263 706 258 703 b 182 622 236 692 193 639 b 158 564 171 604 165 583 b 125 565 151 547 124 546 z m 369 539 b 425 597 378 564 403 583 b 497 538 467 622 521 581 b 442 489 485 515 465 496 b 369 539 403 478 358 500 z "},"ê":{"ha":742,"x_min":0,"x_max":0,"o":"m 517 -8 b 624 47 556 1 593 22 b 672 111 644 64 664 86 b 614 290 690 176 678 265 b 554 292 596 297 574 296 b 411 267 506 285 460 268 b 344 285 388 265 361 269 b 319 339 329 299 322 319 b 410 317 347 324 379 318 b 544 333 456 314 501 322 b 617 369 571 340 596 351 b 700 551 668 411 696 485 b 663 710 703 606 692 664 b 583 779 643 739 614 761 b 394 828 528 813 460 831 b 196 751 324 824 251 796 b 56 538 126 699 78 622 b 51 232 31 439 26 331 b 135 75 67 175 94 118 b 276 -11 174 35 224 4 b 517 -8 353 -35 439 -29 z m 368 761 b 392 783 351 772 375 794 b 368 761 408 772 385 749 z m 125 565 b 175 663 126 588 161 646 b 225 714 182 671 217 708 b 246 728 228 715 243 725 b 283 747 257 736 271 742 b 313 749 290 750 307 753 b 296 722 326 739 311 719 b 286 719 294 724 288 719 b 267 710 279 717 272 714 b 254 701 263 706 258 703 b 182 622 236 692 193 639 b 158 564 171 604 165 583 b 125 565 151 547 124 546 z m 369 539 b 425 597 378 564 403 583 b 497 538 467 622 521 581 b 442 489 485 515 465 496 b 369 539 403 478 358 500 z "},"ë":{"ha":742,"x_min":0,"x_max":0,"o":"m 517 -8 b 624 47 556 1 593 22 b 672 111 644 64 664 86 b 614 290 690 176 678 265 b 554 292 596 297 574 296 b 411 267 506 285 460 268 b 344 285 388 265 361 269 b 319 339 329 299 322 319 b 410 317 347 324 379 318 b 544 333 456 314 501 322 b 617 369 571 340 596 351 b 700 551 668 411 696 485 b 663 710 703 606 692 664 b 583 779 643 739 614 761 b 394 828 528 813 460 831 b 196 751 324 824 251 796 b 56 538 126 699 78 622 b 51 232 31 439 26 331 b 135 75 67 175 94 118 b 276 -11 174 35 224 4 b 517 -8 353 -35 439 -29 z m 368 761 b 392 783 351 772 375 794 b 368 761 408 772 385 749 z m 125 565 b 175 663 126 588 161 646 b 225 714 182 671 217 708 b 246 728 228 715 243 725 b 283 747 257 736 271 742 b 313 749 290 750 307 753 b 296 722 326 739 311 719 b 286 719 294 724 288 719 b 267 710 279 717 272 714 b 254 701 263 706 258 703 b 182 622 236 692 193 639 b 158 564 171 604 165 583 b 125 565 151 547 124 546 z m 369 539 b 425 597 378 564 403 583 b 497 538 467 622 521 581 b 442 489 485 515 465 496 b 369 539 403 478 358 500 z "},"f":{"ha":750,"x_min":0,"x_max":0,"o":"m 418 -97 b 451 -17 439 -78 449 -46 b 450 106 454 24 453 65 b 588 110 496 104 542 104 b 650 135 610 113 635 118 b 683 250 678 163 686 210 b 639 360 679 289 669 335 b 581 386 622 374 601 382 b 464 385 543 394 503 386 b 447 381 458 385 453 382 b 443 382 444 381 443 381 b 446 486 439 417 439 453 b 467 529 450 501 454 519 b 578 518 486 544 553 521 b 661 531 606 515 638 517 b 683 556 671 536 679 546 b 706 624 694 576 700 600 b 707 736 713 660 717 700 b 678 796 701 757 692 778 b 590 849 656 822 622 836 b 422 876 536 869 479 876 b 268 840 369 878 315 865 b 176 760 233 821 200 794 b 136 640 154 725 140 682 b 138 403 128 563 132 482 b 50 349 121 397 64 361 b 19 286 33 332 19 310 b 42 218 19 263 29 239 b 107 156 57 192 82 172 b 153 115 124 143 142 132 b 168 54 164 99 165 75 b 188 -53 172 18 175 -19 b 242 -114 199 -82 214 -100 b 313 -129 263 -126 289 -128 b 418 -97 349 -132 390 -122 z m 351 821 b 385 819 357 839 386 838 b 379 810 385 815 382 813 b 351 821 365 794 344 803 z m 171 546 b 192 689 171 594 172 644 b 251 772 206 719 224 751 b 307 793 265 783 292 803 b 290 768 319 785 306 765 b 222 685 260 749 236 718 b 207 551 206 643 207 596 b 171 546 207 531 172 525 z "},"g":{"ha":908,"x_min":0,"x_max":0,"o":"m 590 -261 b 708 -178 636 -244 676 -214 b 832 75 774 -110 811 -17 b 857 494 864 211 864 354 b 831 644 854 544 849 597 b 725 765 811 694 775 749 b 572 738 683 779 603 769 b 464 782 539 758 503 774 b 133 671 343 806 217 763 b 33 454 81 611 46 533 b 64 235 22 381 32 301 b 160 122 85 190 119 150 b 400 65 228 75 318 54 b 533 125 449 71 494 94 b 496 40 528 94 519 61 b 425 19 478 24 450 19 b 285 24 378 19 331 33 b 221 -190 190 6 163 -112 b 590 -261 292 -286 479 -304 z m 378 728 b 389 700 396 732 404 711 b 378 728 361 682 346 719 z m 114 467 b 122 507 113 475 119 500 b 232 671 146 568 181 631 b 292 701 242 679 279 700 b 293 668 315 703 317 675 b 233 628 271 661 250 646 b 169 526 206 600 183 564 b 144 453 164 513 157 463 b 114 467 132 444 117 451 z m 363 311 b 339 354 350 322 343 339 b 397 515 329 406 351 489 b 508 446 449 544 506 504 b 469 342 508 408 492 371 b 363 311 443 307 396 282 z "},"h":{"ha":949,"x_min":0,"x_max":0,"o":"m 790 7 b 864 104 825 29 850 67 b 908 344 894 179 908 263 b 835 640 908 446 888 553 b 722 749 808 685 769 725 b 589 771 682 769 633 776 b 411 701 525 764 465 736 b 401 915 419 772 429 850 b 342 996 388 946 367 974 b 139 938 278 1051 186 1008 b 93 825 117 904 103 864 b 53 485 64 714 54 599 b 81 179 51 382 58 279 b 133 60 90 138 107 94 b 214 -1 153 32 182 8 b 322 0 249 -14 288 -11 b 379 49 346 7 367 26 b 415 167 400 85 408 126 b 438 332 425 222 429 278 b 451 407 440 358 444 383 b 508 472 461 435 479 475 b 564 381 542 468 558 413 b 576 281 571 347 575 314 b 578 153 578 238 576 194 b 589 79 578 128 581 103 b 639 8 599 51 615 26 b 708 -17 658 -7 682 -15 b 790 7 736 -18 767 -10 z m 267 924 b 264 942 261 928 260 936 b 299 940 274 957 300 960 b 267 924 297 925 279 915 z m 114 586 b 108 608 106 590 104 600 b 110 671 108 617 110 663 b 114 694 110 679 113 686 b 128 753 117 701 125 746 b 164 849 140 785 146 819 b 210 906 174 861 194 901 b 219 879 233 911 243 885 b 190 829 214 872 193 838 b 151 678 169 782 157 729 b 149 607 150 669 150 615 b 114 586 147 593 126 582 z "},"i":{"ha":489,"x_min":0,"x_max":0,"o":"m 340 710 b 436 836 389 731 426 785 b 429 904 440 858 439 883 b 367 974 418 933 393 957 b 306 1000 347 985 326 994 b 193 993 268 1008 228 1007 b 101 917 156 978 124 950 b 121 742 65 861 75 783 b 340 710 168 701 283 686 z m 222 942 b 254 954 224 957 242 969 b 222 942 265 942 219 915 z m 126 813 b 133 867 121 824 129 856 b 176 926 139 882 161 921 b 189 903 197 936 210 913 b 160 842 174 896 163 858 b 158 818 158 833 163 825 b 126 813 153 804 133 799 z m 325 -1 b 374 69 347 15 361 43 b 415 242 397 124 407 183 b 433 454 426 313 438 383 b 403 576 431 496 419 538 b 344 638 396 592 360 629 b 194 651 314 654 228 663 b 121 594 165 640 139 619 b 119 593 119 593 121 594 b 74 510 96 571 83 540 b 58 221 44 418 43 317 b 117 47 68 160 83 97 b 174 -10 132 25 150 3 b 325 -1 211 -29 290 -26 z m 203 596 b 200 567 225 597 221 568 b 203 596 179 565 182 594 z m 115 319 b 107 339 113 322 108 335 b 107 415 104 350 107 404 b 154 549 107 446 133 526 b 178 529 172 567 199 544 b 149 468 167 521 151 481 b 142 425 146 463 143 431 b 143 356 140 414 142 365 b 143 336 143 353 143 339 b 115 319 144 322 126 313 z "},"ì":{"ha":489,"x_min":0,"x_max":0,"o":"m 340 710 b 436 836 389 731 426 785 b 429 904 440 858 439 883 b 367 974 418 933 393 957 b 306 1000 347 985 326 994 b 193 993 268 1008 228 1007 b 101 917 156 978 124 950 b 121 742 65 861 75 783 b 340 710 168 701 283 686 z m 222 942 b 254 954 224 957 242 969 b 222 942 265 942 219 915 z m 126 813 b 133 867 121 824 129 856 b 176 926 139 882 161 921 b 189 903 197 936 210 913 b 160 842 174 896 163 858 b 158 818 158 833 163 825 b 126 813 153 804 133 799 z m 325 -1 b 374 69 347 15 361 43 b 415 242 397 124 407 183 b 433 454 426 313 438 383 b 403 576 431 496 419 538 b 344 638 396 592 360 629 b 194 651 314 654 228 663 b 121 594 165 640 139 619 b 119 593 119 593 121 594 b 74 510 96 571 83 540 b 58 221 44 418 43 317 b 117 47 68 160 83 97 b 174 -10 132 25 150 3 b 325 -1 211 -29 290 -26 z m 203 596 b 200 567 225 597 221 568 b 203 596 179 565 182 594 z m 115 319 b 107 339 113 322 108 335 b 107 415 104 350 107 404 b 154 549 107 446 133 526 b 178 529 172 567 199 544 b 149 468 167 521 151 481 b 142 425 146 463 143 431 b 143 356 140 414 142 365 b 143 336 143 353 143 339 b 115 319 144 322 126 313 z "},"í":{"ha":489,"x_min":0,"x_max":0,"o":"m 340 710 b 436 836 389 731 426 785 b 429 904 440 858 439 883 b 367 974 418 933 393 957 b 306 1000 347 985 326 994 b 193 993 268 1008 228 1007 b 101 917 156 978 124 950 b 121 742 65 861 75 783 b 340 710 168 701 283 686 z m 222 942 b 254 954 224 957 242 969 b 222 942 265 942 219 915 z m 126 813 b 133 867 121 824 129 856 b 176 926 139 882 161 921 b 189 903 197 936 210 913 b 160 842 174 896 163 858 b 158 818 158 833 163 825 b 126 813 153 804 133 799 z m 325 -1 b 374 69 347 15 361 43 b 415 242 397 124 407 183 b 433 454 426 313 438 383 b 403 576 431 496 419 538 b 344 638 396 592 360 629 b 194 651 314 654 228 663 b 121 594 165 640 139 619 b 119 593 119 593 121 594 b 74 510 96 571 83 540 b 58 221 44 418 43 317 b 117 47 68 160 83 97 b 174 -10 132 25 150 3 b 325 -1 211 -29 290 -26 z m 203 596 b 200 567 225 597 221 568 b 203 596 179 565 182 594 z m 115 319 b 107 339 113 322 108 335 b 107 415 104 350 107 404 b 154 549 107 446 133 526 b 178 529 172 567 199 544 b 149 468 167 521 151 481 b 142 425 146 463 143 431 b 143 356 140 414 142 365 b 143 336 143 353 143 339 b 115 319 144 322 126 313 z "},"î":{"ha":489,"x_min":0,"x_max":0,"o":"m 340 710 b 436 836 389 731 426 785 b 429 904 440 858 439 883 b 367 974 418 933 393 957 b 306 1000 347 985 326 994 b 193 993 268 1008 228 1007 b 101 917 156 978 124 950 b 121 742 65 861 75 783 b 340 710 168 701 283 686 z m 222 942 b 254 954 224 957 242 969 b 222 942 265 942 219 915 z m 126 813 b 133 867 121 824 129 856 b 176 926 139 882 161 921 b 189 903 197 936 210 913 b 160 842 174 896 163 858 b 158 818 158 833 163 825 b 126 813 153 804 133 799 z m 325 -1 b 374 69 347 15 361 43 b 415 242 397 124 407 183 b 433 454 426 313 438 383 b 403 576 431 496 419 538 b 344 638 396 592 360 629 b 194 651 314 654 228 663 b 121 594 165 640 139 619 b 119 593 119 593 121 594 b 74 510 96 571 83 540 b 58 221 44 418 43 317 b 117 47 68 160 83 97 b 174 -10 132 25 150 3 b 325 -1 211 -29 290 -26 z m 203 596 b 200 567 225 597 221 568 b 203 596 179 565 182 594 z m 115 319 b 107 339 113 322 108 335 b 107 415 104 350 107 404 b 154 549 107 446 133 526 b 178 529 172 567 199 544 b 149 468 167 521 151 481 b 142 425 146 463 143 431 b 143 356 140 414 142 365 b 143 336 143 353 143 339 b 115 319 144 322 126 313 z "},"ï":{"ha":489,"x_min":0,"x_max":0,"o":"m 340 710 b 436 836 389 731 426 785 b 429 904 440 858 439 883 b 367 974 418 933 393 957 b 306 1000 347 985 326 994 b 193 993 268 1008 228 1007 b 101 917 156 978 124 950 b 121 742 65 861 75 783 b 340 710 168 701 283 686 z m 222 942 b 254 954 224 957 242 969 b 222 942 265 942 219 915 z m 126 813 b 133 867 121 824 129 856 b 176 926 139 882 161 921 b 189 903 197 936 210 913 b 160 842 174 896 163 858 b 158 818 158 833 163 825 b 126 813 153 804 133 799 z m 325 -1 b 374 69 347 15 361 43 b 415 242 397 124 407 183 b 433 454 426 313 438 383 b 403 576 431 496 419 538 b 344 638 396 592 360 629 b 194 651 314 654 228 663 b 121 594 165 640 139 619 b 119 593 119 593 121 594 b 74 510 96 571 83 540 b 58 221 44 418 43 317 b 117 47 68 160 83 97 b 174 -10 132 25 150 3 b 325 -1 211 -29 290 -26 z m 203 596 b 200 567 225 597 221 568 b 203 596 179 565 182 594 z m 115 319 b 107 339 113 322 108 335 b 107 415 104 350 107 404 b 154 549 107 446 133 526 b 178 529 172 567 199 544 b 149 468 167 521 151 481 b 142 425 146 463 143 431 b 143 356 140 414 142 365 b 143 336 143 353 143 339 b 115 319 144 322 126 313 z "},"j":{"ha":496,"x_min":0,"x_max":0,"o":"m 325 735 b 378 764 344 739 364 750 b 436 865 407 790 429 826 b 424 949 442 893 438 925 b 367 1003 410 971 389 989 b 306 1029 349 1014 328 1025 b 193 1022 269 1038 228 1036 b 107 953 158 1008 129 982 b 122 771 67 899 72 815 b 208 733 146 750 178 739 b 325 735 246 726 288 724 z m 238 994 b 257 971 257 1011 281 985 b 238 994 233 957 217 976 z m 131 818 b 128 849 125 824 126 842 b 144 917 131 872 133 896 b 196 969 153 933 176 968 b 197 942 215 971 217 947 b 179 922 192 940 183 926 b 167 896 175 914 169 904 b 160 835 163 883 154 847 b 131 818 167 821 140 807 z m 257 -242 b 375 -115 306 -210 349 -167 b 426 71 406 -58 418 7 b 439 306 436 149 439 226 b 411 525 439 379 436 456 b 350 610 399 558 376 588 b 199 631 308 643 249 653 b 133 574 171 619 149 599 b 94 488 118 546 103 518 b 89 314 81 432 81 371 b 110 157 96 261 108 210 b 96 51 111 121 108 83 b 81 29 92 43 88 35 b -4 -14 57 8 25 -1 b -61 -87 -36 -28 -56 -54 b -43 -193 -65 -122 -61 -161 b 99 -281 -17 -242 43 -275 b 257 -242 154 -286 211 -272 z m 213 572 b 235 550 231 588 251 567 b 213 572 218 532 193 556 z m 158 226 b 151 251 156 229 153 247 b 143 364 146 269 143 346 b 154 432 144 386 149 410 b 179 499 157 442 174 489 b 208 488 190 515 218 506 b 183 411 193 465 188 438 b 194 240 175 356 185 297 b 158 226 197 224 169 214 z "},"k":{"ha":876,"x_min":0,"x_max":0,"o":"m 746 -4 b 790 153 793 19 801 101 b 736 265 782 194 760 232 b 614 394 700 313 657 354 b 731 471 654 418 694 443 b 813 553 761 494 792 521 b 844 643 831 581 842 611 b 683 815 853 738 778 817 b 581 785 647 815 613 803 b 415 638 517 749 463 694 b 417 903 417 672 419 867 b 239 1069 408 1000 336 1085 b 158 1035 210 1065 182 1053 b 85 917 121 1006 94 964 b 58 610 61 817 58 713 b 90 229 58 482 68 354 b 132 78 100 178 113 126 b 164 32 139 61 150 44 b 257 -3 189 10 224 -3 b 340 31 288 -4 321 8 b 394 200 379 76 389 142 b 600 21 454 132 522 68 b 689 -12 628 6 657 -8 b 746 -4 707 -14 728 -12 z m 235 999 b 269 999 243 1011 267 1014 b 249 976 271 989 258 978 b 235 999 236 975 228 989 z m 124 638 b 115 681 115 643 117 669 b 121 826 113 703 117 803 b 169 936 129 865 143 906 b 178 944 172 939 175 942 b 196 925 197 964 218 940 b 163 865 185 917 165 881 b 150 694 149 811 149 751 b 156 651 150 688 156 657 b 124 638 153 638 135 631 z "},"l":{"ha":481,"x_min":0,"x_max":0,"o":"m 335 3 b 379 90 358 26 371 58 b 399 224 392 133 396 178 b 414 894 404 322 432 796 b 364 1004 408 935 392 975 b 125 982 297 1074 186 1056 b 83 892 104 956 90 924 b 58 579 63 789 58 683 b 89 215 58 457 68 335 b 132 54 99 161 111 106 b 164 10 139 38 150 22 b 335 3 213 -31 292 -43 z m 224 961 b 254 979 221 979 242 988 b 224 961 276 964 228 942 z m 103 679 b 106 771 101 694 103 757 b 121 839 108 794 114 817 b 164 925 131 869 143 901 b 203 944 175 938 190 953 b 197 921 213 938 207 925 b 169 882 189 917 174 890 b 142 710 143 831 143 768 b 143 679 142 706 143 683 b 103 679 140 658 107 658 z "},"m":{"ha":1229,"x_min":0,"x_max":0,"o":"m 321 -1 b 360 65 340 15 353 40 b 381 193 372 107 375 150 b 410 429 389 272 383 354 b 465 472 419 453 440 478 b 492 453 476 469 485 461 b 508 397 503 436 507 417 b 522 151 510 363 515 185 b 554 86 528 128 538 104 b 753 124 614 19 722 40 b 769 193 761 146 765 169 b 786 426 782 269 786 349 b 807 500 786 451 788 483 b 872 440 836 524 864 476 b 886 128 896 339 874 231 b 910 53 890 101 896 75 b 956 4 921 33 936 15 b 1132 81 1024 -33 1103 10 b 1182 429 1179 188 1182 311 b 1132 706 1182 522 1172 621 b 1015 832 1107 757 1067 806 b 928 853 989 846 958 853 b 831 828 894 853 860 842 b 686 693 771 797 722 747 b 606 801 668 735 642 775 b 506 838 576 822 542 836 b 425 814 476 838 449 831 b 364 744 399 797 378 772 b 314 814 353 771 336 796 b 211 847 285 838 247 849 b 135 819 183 846 156 836 b 86 750 113 803 96 778 b 46 543 63 685 50 614 b 93 151 39 413 58 279 b 149 28 106 108 121 64 b 321 -1 192 -25 268 -46 z m 208 765 b 239 785 210 781 226 794 b 238 761 247 779 242 769 b 208 765 229 749 207 750 z m 100 467 b 97 514 101 474 99 507 b 106 629 97 531 103 611 b 126 689 110 650 117 669 b 153 725 129 694 149 719 b 176 732 158 731 168 733 b 174 706 193 729 190 710 b 153 678 167 696 158 688 b 131 557 136 640 132 597 b 135 469 131 544 132 482 b 100 467 138 446 97 443 z "},"n":{"ha":833,"x_min":0,"x_max":0,"o":"m 671 -14 b 738 61 700 1 725 31 b 788 367 779 156 788 264 b 765 611 789 449 786 532 b 697 750 753 661 731 710 b 607 821 674 781 643 807 b 504 832 575 835 539 838 b 358 756 450 824 400 792 b 122 810 314 849 193 882 b 63 667 86 772 74 717 b 90 161 28 503 47 325 b 154 21 104 113 119 60 b 346 29 208 -39 306 -42 b 371 129 363 58 368 94 b 376 392 381 217 372 304 b 386 475 378 419 379 447 b 443 528 394 506 415 543 b 465 504 453 522 461 513 b 489 400 483 474 488 436 b 492 113 496 306 481 208 b 525 19 496 81 506 46 b 671 -14 560 -25 619 -39 z m 213 793 b 218 761 239 800 244 768 b 213 793 193 754 188 788 z m 107 424 b 100 458 101 428 101 451 b 107 614 93 510 100 563 b 132 697 108 629 125 685 b 164 728 138 708 153 728 b 172 704 179 729 183 713 b 138 617 154 692 140 638 b 133 472 132 568 126 519 b 136 431 135 464 139 438 b 107 424 132 418 114 414 z "},"ñ":{"ha":833,"x_min":0,"x_max":0,"o":"m 671 -14 b 738 61 700 1 725 31 b 788 367 779 156 788 264 b 765 611 789 449 786 532 b 697 750 753 661 731 710 b 607 821 674 781 643 807 b 504 832 575 835 539 838 b 358 756 450 824 400 792 b 122 810 314 849 193 882 b 63 667 86 772 74 717 b 90 161 28 503 47 325 b 154 21 104 113 119 60 b 346 29 208 -39 306 -42 b 371 129 363 58 368 94 b 376 392 381 217 372 304 b 386 475 378 419 379 447 b 443 528 394 506 415 543 b 465 504 453 522 461 513 b 489 400 483 474 488 436 b 492 113 496 306 481 208 b 525 19 496 81 506 46 b 671 -14 560 -25 619 -39 z m 213 793 b 218 761 239 800 244 768 b 213 793 193 754 188 788 z m 107 424 b 100 458 101 428 101 451 b 107 614 93 510 100 563 b 132 697 108 629 125 685 b 164 728 138 708 153 728 b 172 704 179 729 183 713 b 138 617 154 692 140 638 b 133 472 132 568 126 519 b 136 431 135 464 139 438 b 107 424 132 418 114 414 z "},"o":{"ha":783,"x_min":0,"x_max":0,"o":"m 442 -29 b 588 33 494 -24 549 -3 b 697 194 635 76 674 133 b 739 547 743 304 751 431 b 678 713 732 606 713 665 b 475 839 629 776 554 829 b 283 815 411 847 343 839 b 158 729 236 796 194 767 b 85 611 126 696 101 654 b 35 369 53 535 39 451 b 63 201 33 313 42 254 b 215 8 90 124 144 50 b 442 -29 281 -31 365 -37 z m 317 771 b 350 758 324 792 372 782 b 317 771 336 744 307 746 z m 110 406 b 107 438 101 411 106 429 b 126 532 108 451 122 519 b 186 664 139 578 161 622 b 251 733 203 690 225 715 b 267 708 275 750 294 717 b 247 693 261 708 251 696 b 147 451 188 629 157 538 b 146 419 146 440 147 429 b 110 406 143 403 124 396 z m 331 310 b 319 404 315 338 315 372 b 350 533 324 447 335 492 b 447 572 365 578 418 608 b 460 549 453 565 457 557 b 476 421 475 508 479 464 b 446 318 474 385 467 347 b 331 310 418 278 357 268 z "},"ò":{"ha":783,"x_min":0,"x_max":0,"o":"m 442 -29 b 588 33 494 -24 549 -3 b 697 194 635 76 674 133 b 739 547 743 304 751 431 b 678 713 732 606 713 665 b 475 839 629 776 554 829 b 283 815 411 847 343 839 b 158 729 236 796 194 767 b 85 611 126 696 101 654 b 35 369 53 535 39 451 b 63 201 33 313 42 254 b 215 8 90 124 144 50 b 442 -29 281 -31 365 -37 z m 317 771 b 350 758 324 792 372 782 b 317 771 336 744 307 746 z m 110 406 b 107 438 101 411 106 429 b 126 532 108 451 122 519 b 186 664 139 578 161 622 b 251 733 203 690 225 715 b 267 708 275 750 294 717 b 247 693 261 708 251 696 b 147 451 188 629 157 538 b 146 419 146 440 147 429 b 110 406 143 403 124 396 z m 331 310 b 319 404 315 338 315 372 b 350 533 324 447 335 492 b 447 572 365 578 418 608 b 460 549 453 565 457 557 b 476 421 475 508 479 464 b 446 318 474 385 467 347 b 331 310 418 278 357 268 z "},"ó":{"ha":783,"x_min":0,"x_max":0,"o":"m 442 -29 b 588 33 494 -24 549 -3 b 697 194 635 76 674 133 b 739 547 743 304 751 431 b 678 713 732 606 713 665 b 475 839 629 776 554 829 b 283 815 411 847 343 839 b 158 729 236 796 194 767 b 85 611 126 696 101 654 b 35 369 53 535 39 451 b 63 201 33 313 42 254 b 215 8 90 124 144 50 b 442 -29 281 -31 365 -37 z m 317 771 b 350 758 324 792 372 782 b 317 771 336 744 307 746 z m 110 406 b 107 438 101 411 106 429 b 126 532 108 451 122 519 b 186 664 139 578 161 622 b 251 733 203 690 225 715 b 267 708 275 750 294 717 b 247 693 261 708 251 696 b 147 451 188 629 157 538 b 146 419 146 440 147 429 b 110 406 143 403 124 396 z m 331 310 b 319 404 315 338 315 372 b 350 533 324 447 335 492 b 447 572 365 578 418 608 b 460 549 453 565 457 557 b 476 421 475 508 479 464 b 446 318 474 385 467 347 b 331 310 418 278 357 268 z "},"ô":{"ha":783,"x_min":0,"x_max":0,"o":"m 442 -29 b 588 33 494 -24 549 -3 b 697 194 635 76 674 133 b 739 547 743 304 751 431 b 678 713 732 606 713 665 b 475 839 629 776 554 829 b 283 815 411 847 343 839 b 158 729 236 796 194 767 b 85 611 126 696 101 654 b 35 369 53 535 39 451 b 63 201 33 313 42 254 b 215 8 90 124 144 50 b 442 -29 281 -31 365 -37 z m 317 771 b 350 758 324 792 372 782 b 317 771 336 744 307 746 z m 110 406 b 107 438 101 411 106 429 b 126 532 108 451 122 519 b 186 664 139 578 161 622 b 251 733 203 690 225 715 b 267 708 275 750 294 717 b 247 693 261 708 251 696 b 147 451 188 629 157 538 b 146 419 146 440 147 429 b 110 406 143 403 124 396 z m 331 310 b 319 404 315 338 315 372 b 350 533 324 447 335 492 b 447 572 365 578 418 608 b 460 549 453 565 457 557 b 476 421 475 508 479 464 b 446 318 474 385 467 347 b 331 310 418 278 357 268 z "},"õ":{"ha":783,"x_min":0,"x_max":0,"o":"m 442 -29 b 588 33 494 -24 549 -3 b 697 194 635 76 674 133 b 739 547 743 304 751 431 b 678 713 732 606 713 665 b 475 839 629 776 554 829 b 283 815 411 847 343 839 b 158 729 236 796 194 767 b 85 611 126 696 101 654 b 35 369 53 535 39 451 b 63 201 33 313 42 254 b 215 8 90 124 144 50 b 442 -29 281 -31 365 -37 z m 317 771 b 350 758 324 792 372 782 b 317 771 336 744 307 746 z m 110 406 b 107 438 101 411 106 429 b 126 532 108 451 122 519 b 186 664 139 578 161 622 b 251 733 203 690 225 715 b 267 708 275 750 294 717 b 247 693 261 708 251 696 b 147 451 188 629 157 538 b 146 419 146 440 147 429 b 110 406 143 403 124 396 z m 331 310 b 319 404 315 338 315 372 b 350 533 324 447 335 492 b 447 572 365 578 418 608 b 460 549 453 565 457 557 b 476 421 475 508 479 464 b 446 318 474 385 467 347 b 331 310 418 278 357 268 z "},"ö":{"ha":783,"x_min":0,"x_max":0,"o":"m 442 -29 b 588 33 494 -24 549 -3 b 697 194 635 76 674 133 b 739 547 743 304 751 431 b 678 713 732 606 713 665 b 475 839 629 776 554 829 b 283 815 411 847 343 839 b 158 729 236 796 194 767 b 85 611 126 696 101 654 b 35 369 53 535 39 451 b 63 201 33 313 42 254 b 215 8 90 124 144 50 b 442 -29 281 -31 365 -37 z m 317 771 b 350 758 324 792 372 782 b 317 771 336 744 307 746 z m 110 406 b 107 438 101 411 106 429 b 126 532 108 451 122 519 b 186 664 139 578 161 622 b 251 733 203 690 225 715 b 267 708 275 750 294 717 b 247 693 261 708 251 696 b 147 451 188 629 157 538 b 146 419 146 440 147 429 b 110 406 143 403 124 396 z m 331 310 b 319 404 315 338 315 372 b 350 533 324 447 335 492 b 447 572 365 578 418 608 b 460 549 453 565 457 557 b 476 421 475 508 479 464 b 446 318 474 385 467 347 b 331 310 418 278 357 268 z "},"ø":{"ha":783,"x_min":0,"x_max":0,"o":"m 442 -29 b 588 33 494 -24 549 -3 b 697 194 635 76 674 133 b 739 547 743 304 751 431 b 678 713 732 606 713 665 b 475 839 629 776 554 829 b 283 815 411 847 343 839 b 158 729 236 796 194 767 b 85 611 126 696 101 654 b 35 369 53 535 39 451 b 63 201 33 313 42 254 b 215 8 90 124 144 50 b 442 -29 281 -31 365 -37 z m 317 771 b 350 758 324 792 372 782 b 317 771 336 744 307 746 z m 110 406 b 107 438 101 411 106 429 b 126 532 108 451 122 519 b 186 664 139 578 161 622 b 251 733 203 690 225 715 b 267 708 275 750 294 717 b 247 693 261 708 251 696 b 147 451 188 629 157 538 b 146 419 146 440 147 429 b 110 406 143 403 124 396 z m 331 310 b 319 404 315 338 315 372 b 350 533 324 447 335 492 b 447 572 365 578 418 608 b 460 549 453 565 457 557 b 476 421 475 508 479 464 b 446 318 474 385 467 347 b 331 310 418 278 357 268 z "},"p":{"ha":847,"x_min":0,"x_max":0,"o":"m 253 -253 b 346 -161 293 -236 326 -200 b 378 22 372 -106 382 -39 b 511 -26 419 0 464 -21 b 588 -19 536 -29 563 -28 b 719 74 639 -4 686 31 b 793 232 756 119 779 175 b 801 476 813 311 815 396 b 742 636 790 532 772 588 b 561 800 699 706 638 769 b 319 786 486 829 392 821 b 81 761 246 824 131 828 b 53 644 56 729 50 685 b 65 235 61 508 67 371 b 40 -99 64 124 57 11 b 43 -168 36 -121 36 -146 b 253 -253 68 -256 169 -289 z m 217 765 b 219 738 239 776 236 739 b 217 765 193 736 199 757 z m 103 404 b 99 494 99 435 101 465 b 97 582 96 524 97 553 b 107 657 99 607 100 632 b 136 710 113 676 124 694 b 176 728 146 722 163 738 b 171 704 185 722 181 708 b 160 693 168 703 161 696 b 132 619 144 672 132 646 b 132 551 132 611 132 560 b 139 467 133 522 138 494 b 138 401 139 453 144 413 b 103 404 129 386 106 388 z m 442 229 b 381 290 414 233 392 264 b 406 489 358 349 356 450 b 447 504 418 499 432 504 b 528 400 496 507 522 449 b 528 325 531 375 531 350 b 442 229 521 275 492 221 z "},"q":{"ha":856,"x_min":0,"x_max":0,"o":"m 632 -292 b 704 -243 660 -285 685 -265 b 772 -110 739 -207 760 -158 b 796 469 819 78 819 278 b 736 683 788 543 769 617 b 674 768 721 714 700 744 b 606 796 656 783 631 796 b 526 768 578 797 550 785 b 283 781 454 804 358 811 b 99 610 206 750 142 682 b 49 235 35 501 24 358 b 154 25 64 158 99 81 b 301 -46 193 -12 247 -42 b 468 4 360 -49 417 -24 b 467 -144 465 -44 461 -94 b 501 -242 471 -178 481 -214 b 576 -292 519 -267 547 -285 b 632 -292 594 -296 614 -296 z m 354 708 b 383 735 336 721 363 742 b 354 708 407 726 375 694 z m 101 401 b 99 421 100 404 99 418 b 104 443 100 425 104 440 b 107 465 106 450 106 458 b 136 564 114 499 122 532 b 207 660 146 583 190 646 b 278 706 229 676 250 697 b 300 706 285 708 293 710 b 290 681 310 699 303 685 b 231 636 278 678 240 646 b 185 574 211 619 200 594 b 149 471 163 544 157 506 b 144 444 146 463 146 453 b 140 421 144 440 139 425 b 140 407 140 417 140 413 b 101 401 138 386 103 379 z m 364 221 b 318 322 333 242 321 285 b 333 440 314 361 317 404 b 367 479 342 456 353 469 b 474 418 411 506 461 468 b 465 275 486 371 483 319 b 429 222 458 254 447 235 b 364 221 408 207 385 207 z "},"r":{"ha":761,"x_min":0,"x_max":0,"o":"m 297 -10 b 411 314 375 29 400 228 b 435 363 411 324 431 356 b 504 418 450 388 475 414 b 632 403 546 424 589 406 b 676 414 647 401 664 406 b 714 460 693 425 706 442 b 736 550 728 488 733 519 b 724 644 738 582 736 615 b 639 733 708 683 676 717 b 483 724 592 754 529 749 b 403 668 454 708 428 690 b 392 699 399 679 397 689 b 338 764 385 713 350 754 b 183 778 303 786 219 796 b 113 713 154 764 129 740 b 111 710 113 711 113 711 b 75 640 94 690 83 665 b 44 324 40 540 35 429 b 94 90 51 244 64 164 b 163 -4 110 54 132 19 b 297 -10 192 -28 264 -28 z m 229 703 b 254 725 226 717 240 731 b 256 699 265 721 264 707 b 229 703 247 690 231 690 z m 83 408 b 78 428 79 414 75 422 b 85 500 86 450 78 476 b 92 551 86 507 90 544 b 118 640 94 565 111 626 b 158 688 128 658 142 675 b 199 679 175 700 203 699 b 181 664 197 671 188 669 b 139 599 161 649 147 624 b 118 488 128 563 124 525 b 118 421 117 479 118 429 b 83 408 117 406 93 397 z "},"s":{"ha":697,"x_min":0,"x_max":0,"o":"m 471 -4 b 589 72 515 11 558 36 b 647 311 644 135 667 228 b 567 442 636 361 608 413 b 507 471 549 454 528 464 b 354 536 476 482 374 510 b 433 553 332 567 397 567 b 531 539 464 542 499 535 b 583 561 550 542 569 549 b 529 849 683 647 653 807 b 281 867 450 875 363 881 b 138 804 229 857 176 839 b 92 432 42 719 21 540 b 208 344 118 390 161 358 b 349 288 238 335 331 311 b 333 240 363 271 354 246 b 258 257 308 236 282 247 b 172 288 246 261 185 285 b 100 282 149 292 122 290 b 44 133 56 264 43 182 b 53 83 46 117 47 100 b 100 25 60 60 79 39 b 215 -18 133 1 175 -11 b 471 -4 300 -32 390 -32 z m 278 808 b 310 796 289 838 331 818 b 278 808 297 782 272 792 z m 107 539 b 100 615 97 563 96 590 b 135 718 104 649 117 689 b 217 790 154 749 183 778 b 243 793 225 794 235 796 b 229 765 260 786 247 764 b 217 760 226 765 219 761 b 142 651 179 739 154 693 b 142 551 132 619 128 581 b 107 539 151 531 115 518 z "},"t":{"ha":751,"x_min":0,"x_max":0,"o":"m 658 50 b 707 126 682 68 700 97 b 686 301 721 183 710 247 b 632 343 678 322 654 339 b 557 340 607 347 581 347 b 467 333 538 336 485 324 b 442 411 449 343 443 390 b 443 482 440 435 440 458 b 468 478 451 481 460 479 b 589 479 508 475 550 468 b 657 524 615 486 643 501 b 649 731 690 582 697 683 b 600 751 636 742 618 749 b 450 757 550 761 500 760 b 451 882 453 799 454 840 b 436 938 450 901 446 921 b 381 983 425 958 403 974 b 306 993 357 992 331 994 b 235 974 281 990 256 986 b 194 932 218 964 203 949 b 168 814 176 896 174 853 b 156 751 165 793 165 771 b 107 708 144 733 124 721 b 35 633 78 688 50 664 b 19 568 25 613 17 590 b 54 511 24 546 39 526 b 138 460 67 500 121 465 b 139 204 131 375 126 289 b 232 46 149 139 181 85 b 422 -14 285 6 356 -14 b 658 50 503 -12 592 1 z m 288 944 b 317 958 289 957 306 965 b 311 935 325 951 321 939 b 288 944 300 929 286 933 z m 201 760 b 203 807 199 767 203 799 b 233 918 206 846 213 888 b 260 904 250 942 282 921 b 243 871 253 900 244 878 b 233 768 233 838 232 801 b 201 760 233 753 208 746 z "},"u":{"ha":854,"x_min":0,"x_max":0,"o":"m 542 97 b 588 18 553 68 565 39 b 743 8 631 -21 703 -32 b 789 104 768 33 781 69 b 807 272 803 160 806 217 b 800 481 808 342 806 411 b 768 668 794 543 788 607 b 725 746 758 696 746 725 b 604 769 694 774 643 783 b 563 739 588 764 572 753 b 524 646 543 711 532 679 b 476 385 501 561 499 471 b 460 336 471 368 467 351 b 410 293 450 314 432 286 b 383 321 397 296 389 310 b 369 421 369 353 368 388 b 392 642 369 494 386 568 b 379 739 394 674 394 710 b 199 776 347 806 263 814 b 132 713 172 761 150 738 b 40 403 68 625 44 511 b 74 157 36 319 44 235 b 181 21 94 103 132 53 b 542 97 297 -54 461 -17 z m 233 721 b 242 747 222 728 228 744 b 261 732 253 750 265 743 b 233 721 257 721 244 714 z m 101 506 b 142 657 94 539 124 629 b 186 703 154 675 167 697 b 200 681 201 706 211 692 b 168 635 188 668 176 653 b 142 538 154 604 142 571 b 139 506 142 526 144 514 b 101 506 129 489 104 488 z "},"ù":{"ha":854,"x_min":0,"x_max":0,"o":"m 542 97 b 588 18 553 68 565 39 b 743 8 631 -21 703 -32 b 789 104 768 33 781 69 b 807 272 803 160 806 217 b 800 481 808 342 806 411 b 768 668 794 543 788 607 b 725 746 758 696 746 725 b 604 769 694 774 643 783 b 563 739 588 764 572 753 b 524 646 543 711 532 679 b 476 385 501 561 499 471 b 460 336 471 368 467 351 b 410 293 450 314 432 286 b 383 321 397 296 389 310 b 369 421 369 353 368 388 b 392 642 369 494 386 568 b 379 739 394 674 394 710 b 199 776 347 806 263 814 b 132 713 172 761 150 738 b 40 403 68 625 44 511 b 74 157 36 319 44 235 b 181 21 94 103 132 53 b 542 97 297 -54 461 -17 z m 233 721 b 242 747 222 728 228 744 b 261 732 253 750 265 743 b 233 721 257 721 244 714 z m 101 506 b 142 657 94 539 124 629 b 186 703 154 675 167 697 b 200 681 201 706 211 692 b 168 635 188 668 176 653 b 142 538 154 604 142 571 b 139 506 142 526 144 514 b 101 506 129 489 104 488 z "},"ú":{"ha":854,"x_min":0,"x_max":0,"o":"m 542 97 b 588 18 553 68 565 39 b 743 8 631 -21 703 -32 b 789 104 768 33 781 69 b 807 272 803 160 806 217 b 800 481 808 342 806 411 b 768 668 794 543 788 607 b 725 746 758 696 746 725 b 604 769 694 774 643 783 b 563 739 588 764 572 753 b 524 646 543 711 532 679 b 476 385 501 561 499 471 b 460 336 471 368 467 351 b 410 293 450 314 432 286 b 383 321 397 296 389 310 b 369 421 369 353 368 388 b 392 642 369 494 386 568 b 379 739 394 674 394 710 b 199 776 347 806 263 814 b 132 713 172 761 150 738 b 40 403 68 625 44 511 b 74 157 36 319 44 235 b 181 21 94 103 132 53 b 542 97 297 -54 461 -17 z m 233 721 b 242 747 222 728 228 744 b 261 732 253 750 265 743 b 233 721 257 721 244 714 z m 101 506 b 142 657 94 539 124 629 b 186 703 154 675 167 697 b 200 681 201 706 211 692 b 168 635 188 668 176 653 b 142 538 154 604 142 571 b 139 506 142 526 144 514 b 101 506 129 489 104 488 z "},"û":{"ha":854,"x_min":0,"x_max":0,"o":"m 542 97 b 588 18 553 68 565 39 b 743 8 631 -21 703 -32 b 789 104 768 33 781 69 b 807 272 803 160 806 217 b 800 481 808 342 806 411 b 768 668 794 543 788 607 b 725 746 758 696 746 725 b 604 769 694 774 643 783 b 563 739 588 764 572 753 b 524 646 543 711 532 679 b 476 385 501 561 499 471 b 460 336 471 368 467 351 b 410 293 450 314 432 286 b 383 321 397 296 389 310 b 369 421 369 353 368 388 b 392 642 369 494 386 568 b 379 739 394 674 394 710 b 199 776 347 806 263 814 b 132 713 172 761 150 738 b 40 403 68 625 44 511 b 74 157 36 319 44 235 b 181 21 94 103 132 53 b 542 97 297 -54 461 -17 z m 233 721 b 242 747 222 728 228 744 b 261 732 253 750 265 743 b 233 721 257 721 244 714 z m 101 506 b 142 657 94 539 124 629 b 186 703 154 675 167 697 b 200 681 201 706 211 692 b 168 635 188 668 176 653 b 142 538 154 604 142 571 b 139 506 142 526 144 514 b 101 506 129 489 104 488 z "},"ü":{"ha":854,"x_min":0,"x_max":0,"o":"m 542 97 b 588 18 553 68 565 39 b 743 8 631 -21 703 -32 b 789 104 768 33 781 69 b 807 272 803 160 806 217 b 800 481 808 342 806 411 b 768 668 794 543 788 607 b 725 746 758 696 746 725 b 604 769 694 774 643 783 b 563 739 588 764 572 753 b 524 646 543 711 532 679 b 476 385 501 561 499 471 b 460 336 471 368 467 351 b 410 293 450 314 432 286 b 383 321 397 296 389 310 b 369 421 369 353 368 388 b 392 642 369 494 386 568 b 379 739 394 674 394 710 b 199 776 347 806 263 814 b 132 713 172 761 150 738 b 40 403 68 625 44 511 b 74 157 36 319 44 235 b 181 21 94 103 132 53 b 542 97 297 -54 461 -17 z m 233 721 b 242 747 222 728 228 744 b 261 732 253 750 265 743 b 233 721 257 721 244 714 z m 101 506 b 142 657 94 539 124 629 b 186 703 154 675 167 697 b 200 681 201 706 211 692 b 168 635 188 668 176 653 b 142 538 154 604 142 571 b 139 506 142 526 144 514 b 101 506 129 489 104 488 z "},"v":{"ha":818,"x_min":0,"x_max":0,"o":"m 458 -11 b 515 32 481 -3 499 14 b 603 153 549 68 576 110 b 714 374 644 222 682 297 b 783 592 743 444 768 517 b 785 706 792 629 797 669 b 506 735 740 835 564 860 b 467 622 499 719 471 639 b 410 364 458 589 421 396 b 344 633 399 396 356 601 b 306 761 332 675 333 725 b 44 738 238 851 99 838 b 29 631 28 706 24 667 b 101 382 42 544 69 463 b 247 103 140 285 188 190 b 324 10 269 69 293 36 b 458 -11 358 -19 417 -29 z m 124 740 b 158 746 126 761 161 767 b 124 740 157 725 122 721 z m 132 435 b 100 524 128 446 104 513 b 85 588 97 532 88 578 b 81 663 81 613 79 638 b 96 704 82 674 88 697 b 118 686 111 715 131 700 b 114 661 114 682 114 667 b 133 536 113 619 121 576 b 150 489 135 531 149 496 b 154 474 151 483 153 478 b 164 431 158 463 169 439 b 132 435 154 417 136 419 z "},"w":{"ha":1103,"x_min":0,"x_max":0,"o":"m 936 18 b 1029 194 983 65 1011 131 b 1058 479 1054 286 1061 383 b 1029 678 1056 546 1047 613 b 974 789 1018 718 1003 760 b 842 826 942 821 888 832 b 746 774 806 822 767 803 b 721 661 724 742 719 699 b 747 390 728 571 747 481 b 719 308 747 361 740 329 b 671 296 708 296 686 289 b 633 432 633 314 631 390 b 638 579 635 481 643 531 b 619 638 636 600 632 621 b 590 661 613 649 603 657 b 517 654 568 669 538 668 b 472 564 488 636 476 597 b 457 376 463 501 468 439 b 439 326 454 360 450 340 b 376 315 424 306 396 299 b 358 360 364 325 358 343 b 390 604 361 442 379 522 b 383 744 397 650 403 701 b 146 781 344 835 225 840 b 76 674 111 754 90 713 b 43 476 54 610 46 543 b 72 218 39 390 46 300 b 176 40 93 153 126 88 b 314 -28 215 6 263 -18 b 390 -22 339 -33 367 -31 b 483 44 426 -10 458 17 b 553 169 515 81 539 125 b 642 26 572 117 601 65 b 936 18 724 -53 856 -62 z m 225 757 b 244 736 243 769 263 749 b 225 757 221 718 200 739 z m 101 411 b 94 447 94 417 96 438 b 96 522 93 457 96 511 b 117 628 97 539 111 611 b 151 696 125 651 136 675 b 193 714 161 710 179 724 b 188 690 203 708 197 696 b 149 622 172 683 154 640 b 140 583 144 610 143 597 b 129 454 129 542 129 497 b 131 428 129 451 131 431 b 101 411 131 414 113 404 z "},"x":{"ha":793,"x_min":0,"x_max":0,"o":"m 204 6 b 290 64 238 17 265 40 b 388 175 325 97 356 136 b 629 19 433 132 567 18 b 719 57 663 19 696 36 b 753 111 736 71 749 90 b 744 196 760 139 754 169 b 667 328 728 244 697 288 b 590 426 640 360 615 393 b 675 538 600 440 665 524 b 738 669 704 576 731 621 b 475 806 758 817 588 904 b 372 699 438 774 404 736 b 258 813 338 740 304 785 b 192 835 238 824 214 833 b 99 804 158 838 124 825 b 43 717 72 782 53 750 b 57 572 31 668 35 617 b 168 408 88 514 128 460 b 57 122 138 354 49 183 b 204 6 67 44 132 -22 z m 111 731 b 114 756 100 735 103 750 b 139 744 125 761 140 757 b 111 731 138 732 124 726 z m 182 481 b 144 522 172 483 151 515 b 107 581 129 540 118 561 b 92 622 103 586 93 615 b 86 688 85 643 82 665 b 117 686 89 710 125 707 b 118 656 114 676 115 667 b 154 572 124 626 135 596 b 200 507 171 551 183 528 b 182 481 213 493 200 474 z "},"y":{"ha":911,"x_min":0,"x_max":0,"o":"m 589 -264 b 743 -144 650 -242 704 -196 b 835 64 788 -83 817 -10 b 864 458 865 192 869 326 b 806 701 861 542 853 633 b 726 767 786 731 758 756 b 639 767 699 775 667 776 b 578 711 614 757 592 735 b 542 586 556 675 546 629 b 521 411 539 558 531 436 b 385 328 494 347 431 276 b 357 393 369 344 361 369 b 354 486 350 424 351 456 b 371 608 358 526 365 568 b 364 708 374 642 378 678 b 189 756 336 775 254 788 b 90 657 147 735 113 697 b 44 515 68 613 53 564 b 56 267 29 435 28 346 b 125 156 69 226 94 188 b 421 71 201 82 317 47 b 539 125 464 79 504 99 b 506 43 532 96 525 65 b 464 22 494 32 479 26 b 283 22 406 10 342 38 b 258 -224 172 -6 169 -153 b 376 -278 293 -251 335 -268 b 589 -264 446 -292 522 -287 z m 204 706 b 215 681 225 711 235 690 b 204 706 192 669 178 699 z m 106 375 b 92 436 94 383 94 422 b 97 522 88 450 93 507 b 146 649 108 565 124 610 b 179 651 154 663 178 667 b 168 629 181 646 171 633 b 129 521 150 594 138 558 b 135 396 124 496 124 418 b 106 375 140 382 119 367 z "},"ý":{"ha":911,"x_min":0,"x_max":0,"o":"m 589 -264 b 743 -144 650 -242 704 -196 b 835 64 788 -83 817 -10 b 864 458 865 192 869 326 b 806 701 861 542 853 633 b 726 767 786 731 758 756 b 639 767 699 775 667 776 b 578 711 614 757 592 735 b 542 586 556 675 546 629 b 521 411 539 558 531 436 b 385 328 494 347 431 276 b 357 393 369 344 361 369 b 354 486 350 424 351 456 b 371 608 358 526 365 568 b 364 708 374 642 378 678 b 189 756 336 775 254 788 b 90 657 147 735 113 697 b 44 515 68 613 53 564 b 56 267 29 435 28 346 b 125 156 69 226 94 188 b 421 71 201 82 317 47 b 539 125 464 79 504 99 b 506 43 532 96 525 65 b 464 22 494 32 479 26 b 283 22 406 10 342 38 b 258 -224 172 -6 169 -153 b 376 -278 293 -251 335 -268 b 589 -264 446 -292 522 -287 z m 204 706 b 215 681 225 711 235 690 b 204 706 192 669 178 699 z m 106 375 b 92 436 94 383 94 422 b 97 522 88 450 93 507 b 146 649 108 565 124 610 b 179 651 154 663 178 667 b 168 629 181 646 171 633 b 129 521 150 594 138 558 b 135 396 124 496 124 418 b 106 375 140 382 119 367 z "},"ÿ":{"ha":911,"x_min":0,"x_max":0,"o":"m 589 -264 b 743 -144 650 -242 704 -196 b 835 64 788 -83 817 -10 b 864 458 865 192 869 326 b 806 701 861 542 853 633 b 726 767 786 731 758 756 b 639 767 699 775 667 776 b 578 711 614 757 592 735 b 542 586 556 675 546 629 b 521 411 539 558 531 436 b 385 328 494 347 431 276 b 357 393 369 344 361 369 b 354 486 350 424 351 456 b 371 608 358 526 365 568 b 364 708 374 642 378 678 b 189 756 336 775 254 788 b 90 657 147 735 113 697 b 44 515 68 613 53 564 b 56 267 29 435 28 346 b 125 156 69 226 94 188 b 421 71 201 82 317 47 b 539 125 464 79 504 99 b 506 43 532 96 525 65 b 464 22 494 32 479 26 b 283 22 406 10 342 38 b 258 -224 172 -6 169 -153 b 376 -278 293 -251 335 -268 b 589 -264 446 -292 522 -287 z m 204 706 b 215 681 225 711 235 690 b 204 706 192 669 178 699 z m 106 375 b 92 436 94 383 94 422 b 97 522 88 450 93 507 b 146 649 108 565 124 610 b 179 651 154 663 178 667 b 168 629 181 646 171 633 b 129 521 150 594 138 558 b 135 396 124 496 124 418 b 106 375 140 382 119 367 z "},"z":{"ha":742,"x_min":0,"x_max":0,"o":"m 561 -36 b 665 18 599 -29 642 -14 b 707 121 689 47 706 83 b 689 193 708 146 703 172 b 636 239 676 213 658 231 b 415 251 596 256 458 261 b 646 536 442 290 618 499 b 692 658 672 571 689 615 b 679 722 693 681 689 703 b 625 775 668 744 647 763 b 465 813 576 801 519 808 b 267 813 399 818 332 818 b 128 786 219 808 172 803 b 56 740 101 778 74 764 b 58 574 22 699 25 615 b 163 515 82 542 124 522 b 351 515 224 504 288 511 b 175 326 290 454 228 394 b 85 189 140 283 111 238 b 46 64 65 150 44 107 b 69 11 46 42 54 25 b 154 -29 92 -11 124 -21 b 285 -43 197 -39 240 -42 b 561 -36 376 -46 471 -54 z m 318 776 b 346 782 325 783 338 788 b 329 754 358 774 344 756 b 318 776 317 753 310 767 z m 94 596 b 83 650 86 607 81 636 b 115 719 89 675 96 703 b 188 756 128 731 171 756 b 213 764 197 756 204 763 b 267 769 221 767 257 769 b 263 742 282 767 279 746 b 218 735 257 740 225 739 b 190 724 210 731 200 724 b 140 699 176 724 149 708 b 121 651 131 685 124 668 b 125 617 119 643 121 622 b 94 596 139 600 110 581 z "},"{":{"ha":707,"x_min":0,"x_max":0,"o":"m 511 -101 b 599 -51 544 -93 576 -76 b 615 96 625 -19 632 58 b 574 142 607 115 592 131 b 450 181 536 163 490 165 b 417 206 438 186 425 194 b 410 236 411 214 410 225 b 410 392 410 288 425 342 b 339 465 399 424 368 449 b 422 600 389 493 419 543 b 401 725 424 643 408 683 b 400 789 397 746 394 768 b 461 808 404 808 440 808 b 568 821 496 811 533 811 b 628 858 590 828 613 840 b 665 936 647 879 658 908 b 633 1064 676 982 665 1028 b 256 1071 553 1154 363 1126 b 168 983 218 1053 188 1019 b 139 768 133 919 125 839 b 163 635 149 724 161 681 b 136 546 164 604 160 567 b 64 504 117 526 88 519 b 53 454 46 493 36 468 b 110 421 60 449 103 425 b 158 350 132 403 153 378 b 140 121 176 276 150 197 b 151 4 136 82 133 39 b 221 -64 165 -25 192 -50 b 340 -101 258 -83 299 -93 b 511 -101 396 -111 456 -114 z m 351 1040 b 382 1039 354 1071 403 1060 b 351 1040 369 1026 349 1025 z m 197 767 b 188 786 190 771 190 779 b 179 893 176 821 172 858 b 204 964 182 907 196 953 b 257 1015 219 983 235 1007 b 315 1029 272 1021 303 1038 b 303 1003 328 1021 317 1004 b 275 989 297 1003 279 992 b 232 951 258 982 244 967 b 214 896 226 943 215 907 b 211 839 213 888 211 846 b 224 782 211 831 222 790 b 197 767 225 769 207 758 z "},"}":{"ha":707,"x_min":0,"x_max":0,"o":"m 378 -99 b 497 -57 419 -90 461 -78 b 564 35 531 -37 557 -3 b 546 350 582 139 522 247 b 590 417 551 376 569 400 b 656 458 600 425 649 449 b 635 508 668 476 654 497 b 569 544 613 521 588 529 b 547 583 558 554 551 569 b 564 761 532 640 550 703 b 551 953 578 824 574 893 b 450 1071 532 1001 496 1047 b 285 1119 399 1097 342 1113 b 146 1110 239 1124 190 1124 b 75 1067 119 1101 93 1088 b 36 993 56 1047 42 1019 b 47 910 32 965 38 936 b 96 840 57 883 72 857 b 224 810 131 815 179 813 b 296 800 238 810 285 807 b 307 753 310 790 308 768 b 283 589 304 697 278 644 b 367 465 289 538 319 492 b 301 407 342 451 315 432 b 289 332 290 385 289 358 b 292 214 289 313 299 232 b 263 185 286 200 274 190 b 158 153 229 168 192 165 b 97 111 135 144 111 132 b 82 14 79 83 78 46 b 106 -51 86 -10 92 -33 b 226 -107 135 -85 182 -101 b 378 -99 276 -112 328 -108 z m 200 1065 b 203 1089 189 1069 192 1085 b 231 1079 214 1094 232 1092 b 200 1065 229 1067 213 1060 z m 113 910 b 93 950 100 918 96 935 b 121 1051 83 983 94 1028 b 147 1064 128 1057 138 1064 b 147 1036 165 1065 165 1040 b 128 1014 138 1033 132 1022 b 132 940 119 990 121 963 b 139 931 135 936 138 933 b 113 910 144 915 125 901 z "},"~":{"ha":792,"x_min":0,"x_max":0,"o":"m 219 282 b 286 347 246 299 265 324 b 329 374 297 360 313 372 b 379 356 347 376 364 367 b 446 304 401 340 422 319 b 572 271 483 281 529 267 b 667 325 608 276 644 297 b 738 439 696 360 722 397 b 747 542 750 471 758 508 b 615 599 729 596 667 624 b 567 565 597 590 582 578 b 524 533 554 553 540 539 b 475 535 508 528 490 529 b 392 582 444 544 418 564 b 267 622 356 606 311 622 b 128 567 217 624 164 600 b 51 331 72 515 19 400 b 219 282 79 267 160 244 z m 243 581 b 257 560 257 585 275 578 b 243 581 246 549 214 574 z m 85 407 b 115 478 86 421 108 467 b 172 539 129 501 149 524 b 206 542 182 546 197 553 b 190 519 213 532 203 519 b 175 506 186 518 178 508 b 131 443 156 489 142 467 b 113 400 128 436 118 406 b 85 407 103 390 83 393 z "}," ":{"ha":347,"x_min":0,"x_max":0,"o":""},"¢":{"ha":778,"x_min":0,"x_max":0,"o":"m 471 -18 b 503 61 481 -7 499 47 b 642 122 553 69 601 90 b 711 224 674 147 700 183 b 647 386 729 285 707 364 b 590 386 629 393 608 393 b 506 353 578 381 518 356 b 407 361 474 344 438 349 b 338 538 344 388 318 472 b 457 626 354 592 403 640 b 599 594 504 614 550 588 b 696 769 676 607 717 693 b 640 857 688 803 665 833 b 492 926 600 893 546 915 b 461 989 494 943 472 976 b 443 1006 457 996 450 1001 b 353 928 401 1031 371 972 b 210 857 301 917 250 892 b 108 719 167 819 132 771 b 64 363 58 611 44 481 b 167 165 76 290 114 218 b 329 74 211 122 269 92 b 351 28 331 68 349 33 b 394 -26 363 7 375 -14 b 471 -18 417 -40 453 -37 z m 410 861 b 436 882 397 876 422 892 b 410 861 456 869 421 847 z m 189 719 b 222 789 190 733 214 776 b 265 836 235 806 250 821 b 322 867 274 844 311 864 b 347 871 331 869 339 869 b 372 860 357 871 371 869 b 353 842 374 850 363 842 b 301 822 335 839 318 831 b 238 751 286 813 244 768 b 226 725 235 746 226 729 b 189 719 224 701 186 696 z "},"£":{"ha":867,"x_min":0,"x_max":0,"o":"m 699 -24 b 764 -1 721 -22 744 -15 b 806 56 783 13 796 33 b 779 239 826 107 821 201 b 678 276 753 264 714 271 b 576 281 644 282 611 279 b 515 293 556 282 533 282 b 479 346 499 304 486 325 b 463 418 472 369 467 393 b 601 426 508 414 560 406 b 638 532 633 443 646 496 b 621 560 635 542 629 553 b 581 578 611 569 596 575 b 451 572 538 582 494 576 b 492 732 451 615 456 708 b 546 719 504 740 533 728 b 590 682 563 711 576 696 b 731 693 629 643 693 650 b 760 844 764 731 776 796 b 700 924 749 875 726 903 b 619 982 689 932 632 975 b 471 1025 574 1006 522 1022 b 413 1024 451 1026 432 1026 b 332 988 383 1018 357 1004 b 246 901 299 964 268 935 b 197 783 222 867 207 825 b 176 568 179 714 172 640 b 167 563 176 565 169 564 b 94 504 140 547 113 529 b 96 454 85 490 86 468 b 113 433 97 450 110 436 b 194 397 136 414 165 403 b 214 249 199 375 217 272 b 210 236 213 244 213 239 b 164 222 204 228 175 225 b 110 213 146 219 126 218 b 71 186 94 208 81 199 b 54 44 46 157 39 81 b 107 -10 64 21 83 0 b 156 -21 122 -17 139 -19 b 594 -21 211 -25 539 -19 b 699 -24 629 -22 664 -26 z m 372 919 b 397 942 360 935 382 951 b 372 919 414 931 385 906 z m 233 608 b 225 676 218 618 224 658 b 275 850 228 738 244 799 b 326 901 289 871 304 892 b 353 904 335 906 346 910 b 344 879 364 897 356 883 b 307 839 332 876 313 850 b 260 650 274 783 256 715 b 263 622 260 642 263 632 b 233 608 263 610 244 601 z "},"¤":{"ha":793,"x_min":0,"x_max":0,"o":"m 168 90 b 244 119 194 93 219 106 b 285 146 250 122 279 142 b 529 156 363 124 454 125 b 671 103 560 135 636 90 b 694 176 697 111 699 150 b 668 265 689 207 681 238 b 699 625 742 369 753 508 b 721 710 710 653 718 681 b 714 769 724 729 724 751 b 576 751 688 819 624 782 b 244 749 476 801 344 800 b 206 774 232 758 218 765 b 86 790 169 793 113 821 b 79 731 74 775 75 750 b 124 639 85 697 104 667 b 67 367 72 563 47 457 b 136 232 78 318 101 269 b 101 124 121 211 97 149 b 168 90 106 96 140 88 z m 396 740 b 418 744 400 747 411 749 b 411 728 428 740 421 731 b 396 740 400 726 389 732 z m 133 524 b 149 575 133 533 146 567 b 206 661 156 589 194 649 b 264 706 213 669 254 700 b 338 738 275 714 325 735 b 340 718 358 742 361 721 b 288 694 332 717 296 699 b 249 664 281 692 254 668 b 233 653 247 663 235 654 b 182 571 224 642 189 585 b 168 526 179 564 169 533 b 150 514 167 519 157 515 b 133 524 142 514 132 517 z m 344 414 b 363 538 339 456 340 501 b 396 568 369 551 382 564 b 435 557 408 572 425 567 b 464 474 457 538 464 503 b 446 385 463 443 461 411 b 344 414 419 336 353 358 z "},"¥":{"ha":949,"x_min":0,"x_max":0,"o":"m 507 -14 b 561 69 536 3 553 38 b 596 261 578 132 586 196 b 600 263 596 263 599 261 b 692 285 615 264 679 276 b 706 342 714 296 721 324 b 611 382 692 357 631 376 b 613 388 613 382 611 386 b 694 413 640 393 668 400 b 731 443 708 419 724 429 b 722 489 739 460 735 478 b 658 519 704 504 681 511 b 818 647 715 558 772 599 b 893 751 847 679 874 714 b 800 1006 940 842 894 969 b 726 1013 778 1015 751 1018 b 658 981 703 1008 679 996 b 464 776 586 922 522 851 b 317 992 446 814 347 963 b 43 839 197 1114 0 1004 b 138 679 60 779 99 728 b 268 525 179 626 224 575 b 185 500 239 525 206 519 b 189 428 165 479 167 444 b 279 393 201 418 264 399 b 279 382 281 393 281 382 b 207 365 254 379 229 376 b 185 307 186 353 172 329 b 288 265 197 283 260 271 b 329 57 293 194 301 122 b 349 19 335 43 340 31 b 507 -14 383 -26 458 -43 z m 169 968 b 174 979 171 971 171 975 b 204 971 183 994 211 989 b 169 968 197 951 165 947 z m 206 675 b 192 689 204 678 194 686 b 175 707 188 696 181 700 b 143 749 169 713 147 742 b 111 811 139 757 114 801 b 96 854 106 825 97 839 b 119 944 93 879 99 931 b 144 931 133 956 154 946 b 139 924 143 928 140 926 b 128 876 132 910 128 893 b 178 764 131 836 158 801 b 226 703 183 754 219 713 b 239 685 232 697 239 692 b 206 675 236 668 213 660 z "},"­":{"ha":0,"x_min":0,"x_max":0,"o":""},"±":{"ha":775,"x_min":0,"x_max":0,"o":"m 465 379 b 521 481 489 410 507 444 b 617 493 553 483 586 485 b 724 644 681 511 726 576 b 686 725 722 674 710 706 b 635 749 672 738 653 744 b 513 761 618 751 529 760 b 481 829 501 783 492 807 b 360 886 457 876 406 913 b 318 843 343 875 331 858 b 275 763 300 818 286 790 b 174 751 240 761 207 757 b 81 693 138 746 100 724 b 107 526 47 640 56 564 b 179 494 128 510 154 501 b 282 479 213 486 247 482 b 346 372 296 440 315 400 b 407 346 363 357 385 346 b 465 379 429 347 451 361 z m 232 707 b 265 724 233 722 253 732 b 258 699 275 717 268 706 b 232 707 247 692 231 694 z m 119 582 b 111 631 108 589 110 618 b 122 671 111 639 117 664 b 171 706 133 688 153 699 b 201 701 182 710 197 711 b 188 681 206 692 197 683 b 154 657 179 678 158 665 b 146 610 146 643 146 625 b 147 592 146 603 150 597 b 119 582 143 582 128 576 z m 515 -7 b 579 4 536 -4 558 -1 b 639 42 601 11 622 25 b 679 165 668 75 683 122 b 647 232 676 189 665 215 b 588 260 632 247 610 257 b 168 261 449 278 306 285 b 94 226 142 257 114 246 b 122 24 36 165 47 64 b 256 -8 163 3 210 -6 b 515 -7 342 -15 429 -15 z m 219 217 b 250 233 221 232 239 242 b 240 207 261 226 253 213 b 219 217 231 201 218 207 z m 114 92 b 106 128 106 97 106 118 b 122 188 106 149 107 174 b 183 217 136 201 165 224 b 178 190 197 211 192 194 b 146 168 169 188 150 175 b 138 118 139 153 139 135 b 140 104 138 114 140 110 b 114 92 139 93 124 86 z "},"×":{"ha":629,"x_min":0,"x_max":0,"o":"m 149 146 b 218 172 174 147 197 158 b 307 247 251 193 279 221 b 457 163 354 214 403 182 b 572 197 493 150 550 165 b 526 324 597 235 557 290 b 457 393 518 332 465 383 b 544 485 488 422 519 450 b 568 542 557 501 567 521 b 558 585 569 557 565 572 b 513 624 547 601 531 615 b 372 611 467 644 413 639 b 296 550 344 593 319 572 b 206 618 268 575 240 603 b 143 628 186 626 164 629 b 63 478 68 619 21 540 b 146 382 86 442 115 411 b 64 238 113 338 79 290 b 103 160 56 211 79 175 b 149 146 117 150 132 144 z m 103 568 b 111 583 92 572 100 583 b 103 568 132 585 122 563 z m 144 431 b 94 492 125 449 107 468 b 85 544 88 503 79 533 b 107 543 89 556 113 554 b 113 511 104 536 108 518 b 153 456 122 490 138 472 b 172 435 156 453 169 439 b 160 424 176 429 167 424 b 144 431 154 422 149 426 z "},"÷":{"ha":693,"x_min":0,"x_max":0,"o":"m 379 589 b 446 644 407 597 435 618 b 449 744 458 675 464 715 b 296 782 422 793 349 801 b 238 722 271 771 244 749 b 256 624 231 689 235 649 b 379 589 283 592 338 579 z m 331 753 b 335 771 322 757 326 768 b 353 761 344 775 357 771 b 331 753 350 753 338 747 z m 268 663 b 268 719 258 674 263 706 b 297 750 272 732 285 749 b 303 732 311 750 315 736 b 292 711 297 729 293 717 b 293 675 289 700 288 686 b 268 663 299 664 278 653 z m 492 272 b 556 282 513 274 535 276 b 615 319 578 289 600 303 b 656 443 646 353 661 400 b 625 510 653 468 642 493 b 564 538 608 525 586 535 b 144 540 426 556 283 563 b 72 504 118 535 90 524 b 46 357 35 467 24 406 b 86 308 54 338 69 321 b 144 283 104 297 125 289 b 310 265 199 269 254 267 b 492 272 371 265 431 265 z m 196 496 b 228 511 197 510 215 519 b 217 485 238 504 229 490 b 196 496 207 479 194 485 z m 90 371 b 82 406 83 375 82 397 b 99 465 82 426 83 451 b 161 494 113 479 143 501 b 154 468 174 489 168 472 b 124 446 146 465 128 453 b 115 396 115 431 115 413 b 117 382 115 392 118 388 b 90 371 117 371 100 364 z m 435 96 b 438 185 446 124 450 157 b 378 232 428 208 403 225 b 269 219 342 242 301 238 b 225 167 249 210 231 189 b 226 100 221 146 219 121 b 435 96 254 10 403 7 z m 318 197 b 322 217 310 203 314 213 b 340 207 332 221 344 215 b 318 197 338 197 325 193 z m 256 107 b 256 165 244 119 250 150 b 285 194 260 176 272 194 b 289 176 299 196 303 182 b 279 157 285 175 281 161 b 281 121 276 144 275 132 b 256 107 286 110 265 99 z "},"‘":{"ha":283,"x_min":0,"x_max":0,"o":"m 157 685 b 213 754 183 699 203 726 b 239 906 229 803 238 854 b 222 996 240 936 235 968 b 189 1024 215 1008 203 1018 b 53 988 143 1038 75 1031 b 50 869 35 953 46 910 b 60 713 53 818 44 763 b 79 688 63 703 71 693 b 157 685 103 676 133 674 z m 122 993 b 113 967 143 985 129 967 b 122 993 88 964 106 999 z m 75 811 b 71 826 71 815 72 821 b 75 910 69 839 72 897 b 82 942 76 915 79 938 b 110 932 93 958 121 949 b 103 890 106 925 104 899 b 104 825 103 868 101 846 b 75 811 107 810 85 800 z "},"’":{"ha":283,"x_min":0,"x_max":0,"o":"m 157 685 b 213 754 183 699 203 726 b 239 906 229 803 238 854 b 222 996 240 936 235 968 b 189 1024 215 1008 203 1018 b 53 988 143 1038 75 1031 b 50 869 35 953 46 910 b 60 713 53 818 44 763 b 79 688 63 703 71 693 b 157 685 103 676 133 674 z m 122 993 b 113 967 143 985 129 967 b 122 993 88 964 106 999 z m 75 811 b 71 826 71 815 72 821 b 75 910 69 839 72 897 b 82 942 76 915 79 938 b 110 932 93 958 121 949 b 103 890 106 925 104 899 b 104 825 103 868 101 846 b 75 811 107 810 85 800 z "},"“":{"ha":517,"x_min":0,"x_max":0,"o":"m 158 685 b 214 754 185 699 204 726 b 240 906 231 803 239 854 b 224 996 242 936 236 968 b 190 1024 217 1008 204 1018 b 54 988 144 1038 76 1031 b 51 869 36 953 47 910 b 61 713 54 818 46 763 b 81 688 64 703 72 693 b 158 685 104 676 135 674 z m 390 681 b 444 750 417 693 436 722 b 472 901 461 799 471 850 b 454 992 474 932 468 964 b 422 1018 449 1004 436 1014 b 286 983 376 1033 308 1026 b 282 865 268 949 279 904 b 293 708 286 813 278 758 b 313 683 296 697 303 688 b 390 681 336 672 367 669 z m 124 993 b 114 967 144 985 131 967 b 124 993 89 964 107 999 z m 356 989 b 346 961 376 981 361 963 b 356 989 319 960 339 994 z m 76 811 b 72 826 72 815 74 821 b 76 910 71 839 74 897 b 83 942 78 915 81 938 b 111 932 94 958 122 949 b 104 890 107 925 106 899 b 106 825 104 868 103 846 b 76 811 108 810 86 800 z m 308 807 b 304 822 304 810 304 817 b 308 906 303 835 306 892 b 315 938 310 910 313 932 b 343 928 326 954 354 944 b 336 886 339 921 338 893 b 338 819 335 864 333 842 b 308 807 340 806 318 796 z "},"”":{"ha":517,"x_min":0,"x_max":0,"o":"m 158 685 b 214 754 185 699 204 726 b 240 906 231 803 239 854 b 224 996 242 936 236 968 b 190 1024 217 1008 204 1018 b 54 988 144 1038 76 1031 b 51 869 36 953 47 910 b 61 713 54 818 46 763 b 81 688 64 703 72 693 b 158 685 104 676 135 674 z m 390 681 b 444 750 417 693 436 722 b 472 901 461 799 471 850 b 454 992 474 932 468 964 b 422 1018 449 1004 436 1014 b 286 983 376 1033 308 1026 b 282 865 268 949 279 904 b 293 708 286 813 278 758 b 313 683 296 697 303 688 b 390 681 336 672 367 669 z m 124 993 b 114 967 144 985 131 967 b 124 993 89 964 107 999 z m 356 989 b 346 961 376 981 361 963 b 356 989 319 960 339 994 z m 76 811 b 72 826 72 815 74 821 b 76 910 71 839 74 897 b 83 942 78 915 81 938 b 111 932 94 958 122 949 b 104 890 107 925 106 899 b 106 825 104 868 103 846 b 76 811 108 810 86 800 z m 308 807 b 304 822 304 810 304 817 b 308 906 303 835 306 892 b 315 938 310 910 313 932 b 343 928 326 954 354 944 b 336 886 339 921 338 893 b 338 819 335 864 333 842 b 308 807 340 806 318 796 z "},"€":{"ha":840,"x_min":0,"x_max":0,"o":"m 708 19 b 778 138 743 49 769 92 b 767 224 782 165 779 197 b 725 272 757 243 742 261 b 651 294 703 286 676 294 b 536 278 613 294 575 281 b 453 350 501 274 467 317 b 588 388 501 344 576 340 b 567 460 593 410 586 447 b 429 468 543 474 457 469 b 428 508 428 481 428 494 b 507 507 454 504 481 504 b 565 525 528 508 549 513 b 585 556 575 533 582 544 b 551 642 592 586 579 629 b 449 650 519 657 482 651 b 499 711 458 675 475 700 b 525 718 507 715 515 717 b 654 703 568 721 611 700 b 740 749 686 706 718 725 b 758 943 789 803 796 883 b 681 1004 740 971 711 992 b 543 1035 638 1024 589 1031 b 211 846 408 1044 272 967 b 143 661 181 788 157 725 b 65 622 117 653 88 640 b 44 593 57 614 49 606 b 126 503 29 550 85 519 b 128 469 128 492 131 481 b 57 421 100 460 68 447 b 131 342 40 381 89 356 b 143 336 135 340 143 340 b 271 74 161 240 201 142 b 708 19 382 -36 586 -76 z m 406 942 b 432 963 392 957 418 972 b 406 942 451 950 417 929 z m 207 715 b 211 736 210 722 208 729 b 254 832 215 751 244 818 b 289 881 258 839 283 875 b 340 924 296 888 333 918 b 357 899 365 942 388 906 b 318 863 353 893 324 867 b 289 825 313 857 293 831 b 244 732 276 811 249 750 b 242 713 244 729 243 715 b 207 715 235 693 200 696 z "},"™":{"ha":1333,"x_min":0,"x_max":0,"o":"m 390 413 b 435 522 417 442 426 483 b 443 829 454 624 451 728 b 522 838 469 829 496 829 b 564 865 538 842 554 851 b 524 1010 596 913 575 988 b 454 1026 501 1018 478 1022 b 342 1035 417 1032 379 1035 b 57 990 272 1036 101 1043 b 42 863 29 958 25 901 b 88 821 51 843 68 826 b 192 825 121 811 157 819 b 208 521 189 724 185 619 b 265 411 218 481 235 439 b 319 389 281 397 300 390 b 390 413 344 386 374 394 z m 765 401 b 793 474 781 422 788 449 b 800 636 803 526 801 582 b 903 447 836 574 860 504 b 933 431 910 439 922 429 b 958 450 943 432 953 440 b 1061 639 993 513 1021 579 b 1068 476 1060 585 1058 531 b 1089 417 1072 457 1079 435 b 1235 411 1119 361 1199 358 b 1258 478 1249 431 1254 456 b 1271 644 1268 533 1271 589 b 1258 871 1272 719 1271 796 b 1215 975 1251 907 1239 946 b 1151 1015 1200 994 1176 1011 b 1076 997 1126 1019 1099 1011 b 1004 921 1047 979 1021 951 b 929 778 978 875 954 826 b 844 938 918 801 860 917 b 750 1008 821 969 788 999 b 690 1007 731 1014 710 1014 b 636 958 668 997 649 978 b 606 878 621 933 611 906 b 592 747 596 835 593 792 b 603 479 588 658 588 567 b 618 421 606 460 610 439 b 765 401 646 364 725 351 z m 224 993 b 244 990 233 1015 257 1010 b 224 993 239 981 219 983 z m 85 871 b 78 904 79 881 79 893 b 106 975 78 929 86 960 b 157 994 119 986 139 990 b 181 1000 160 994 178 999 b 197 986 190 1001 204 994 b 182 981 194 982 188 979 b 126 963 164 972 142 974 b 106 925 115 954 108 939 b 110 878 103 910 103 892 b 85 871 117 867 92 860 z m 701 976 b 701 957 718 981 711 958 b 701 976 682 957 689 974 z m 621 744 b 635 890 615 793 619 843 b 660 935 638 899 653 928 b 665 940 660 935 664 939 b 679 931 675 954 693 940 b 649 868 667 922 653 883 b 644 747 644 849 642 768 b 621 744 647 735 622 732 z "},"−":{"ha":699,"x_min":0,"x_max":0,"o":"m 494 272 b 558 282 515 274 538 276 b 618 319 581 289 603 303 b 658 443 649 353 664 400 b 628 510 656 468 644 493 b 567 538 611 525 589 535 b 147 540 429 556 286 563 b 75 504 121 535 93 524 b 49 357 38 467 26 406 b 89 308 57 338 72 321 b 147 283 107 297 128 289 b 313 265 201 269 257 267 b 494 272 374 265 433 265 z m 199 496 b 231 511 200 510 218 519 b 219 485 240 504 232 490 b 199 496 210 479 197 485 z m 93 371 b 85 406 86 375 85 397 b 101 465 85 426 86 451 b 164 494 115 479 146 501 b 157 468 176 489 171 472 b 126 446 149 465 131 453 b 118 396 118 431 118 413 b 119 382 118 392 121 388 b 93 371 119 371 103 364 z "},"|":{"ha":513,"x_min":0,"x_max":0,"o":"m 311 -193 b 368 -114 339 -176 357 -144 b 403 94 393 -49 399 24 b 433 822 418 336 425 579 b 422 985 436 876 436 933 b 369 1075 413 1018 394 1051 b 257 1110 340 1101 296 1117 b 169 1060 224 1103 193 1083 b 107 936 136 1026 115 981 b 76 496 78 792 75 643 b 94 107 78 365 81 236 b 138 -112 103 33 114 -42 b 225 -197 150 -151 186 -183 b 311 -193 251 -206 286 -207 z m 254 1008 b 249 1029 246 1010 244 1021 b 276 1036 254 1039 268 1043 b 254 1008 290 1024 272 1004 z m 124 711 b 128 824 118 731 125 803 b 178 964 138 872 151 922 b 214 1001 183 975 201 1000 b 225 976 228 1003 236 986 b 207 958 218 971 211 965 b 174 882 192 936 181 908 b 161 742 164 836 164 789 b 161 710 160 738 161 714 b 124 711 158 690 129 692 z "},"`":{"ha":382,"x_min":0,"x_max":0,"o":"m 325 717 b 307 938 357 764 328 885 b 247 1032 293 972 275 1007 b 150 1064 221 1054 183 1071 b 69 1017 119 1057 92 1039 b 35 958 53 1000 39 981 b 43 906 31 940 35 921 b 64 876 49 894 57 886 b 213 718 106 817 153 758 b 325 717 247 696 300 682 z m 96 994 b 129 996 97 1018 138 1018 b 96 994 124 979 93 976 z m 161 797 b 110 856 151 804 117 846 b 92 889 103 865 97 878 b 82 938 88 900 78 926 b 113 933 89 956 119 951 b 118 910 111 929 117 915 b 136 874 119 904 132 879 b 186 819 143 864 176 826 b 161 797 203 808 178 786 z "},"\n":{"ha":0,"x_min":0,"x_max":0,"o":""}}}
